G04*
G04 #@! TF.GenerationSoftware,Altium Limited,Altium Designer,18.0.7 (293)*
G04*
G04 Layer_Color=32896*
%FSLAX25Y25*%
%MOIN*%
G70*
G01*
G75*
%ADD10C,0.01000*%
D10*
X66220Y170000D02*
X65564Y169344D01*
Y168032D01*
X66220Y167376D01*
X68844D01*
X69500Y168032D01*
Y169344D01*
X68844Y170000D01*
X66220D01*
X69500Y163440D02*
Y166064D01*
X66876Y163440D01*
X66220D01*
X65564Y164096D01*
Y165408D01*
X66220Y166064D01*
X69500Y162128D02*
X66876Y159505D01*
X69500Y155569D02*
Y158193D01*
X66876Y155569D01*
X66220D01*
X65564Y156225D01*
Y157537D01*
X66220Y158193D01*
Y154257D02*
X65564Y153601D01*
Y152289D01*
X66220Y151633D01*
X68844D01*
X69500Y152289D01*
Y153601D01*
X68844Y154257D01*
X66220D01*
X69500Y147697D02*
Y150321D01*
X66876Y147697D01*
X66220D01*
X65564Y148353D01*
Y149665D01*
X66220Y150321D01*
X69500Y146386D02*
Y145074D01*
Y145730D01*
X65564D01*
X66220Y146386D01*
X213564Y27500D02*
Y26188D01*
Y26844D01*
X217500D01*
Y27500D01*
Y26188D01*
X214220Y21596D02*
X213564Y22252D01*
Y23564D01*
X214220Y24220D01*
X214876D01*
X215532Y23564D01*
Y22252D01*
X216188Y21596D01*
X216844D01*
X217500Y22252D01*
Y23564D01*
X216844Y24220D01*
X217500Y20285D02*
Y18973D01*
Y19628D01*
X213564D01*
X214220Y20285D01*
X203564Y29000D02*
Y27688D01*
Y28344D01*
X207500D01*
Y29000D01*
Y27688D01*
X204220Y23096D02*
X203564Y23752D01*
Y25064D01*
X204220Y25720D01*
X204876D01*
X205532Y25064D01*
Y23752D01*
X206188Y23096D01*
X206844D01*
X207500Y23752D01*
Y25064D01*
X206844Y25720D01*
X207500Y19161D02*
Y21784D01*
X204876Y19161D01*
X204220D01*
X203564Y19817D01*
Y21128D01*
X204220Y21784D01*
X194064Y29500D02*
Y28188D01*
Y28844D01*
X198000D01*
Y29500D01*
Y28188D01*
X194720Y23596D02*
X194064Y24252D01*
Y25564D01*
X194720Y26220D01*
X195376D01*
X196032Y25564D01*
Y24252D01*
X196688Y23596D01*
X197344D01*
X198000Y24252D01*
Y25564D01*
X197344Y26220D01*
X194720Y22285D02*
X194064Y21629D01*
Y20317D01*
X194720Y19661D01*
X195376D01*
X196032Y20317D01*
Y20973D01*
Y20317D01*
X196688Y19661D01*
X197344D01*
X198000Y20317D01*
Y21629D01*
X197344Y22285D01*
X148064Y182000D02*
Y180688D01*
Y181344D01*
X152000D01*
Y182000D01*
Y180688D01*
Y178720D02*
X148064D01*
X152000Y176096D01*
X148064D01*
X152000Y174785D02*
Y173473D01*
Y174128D01*
X148064D01*
X148720Y174785D01*
X157564Y187000D02*
Y185688D01*
Y186344D01*
X161500D01*
Y187000D01*
Y185688D01*
Y183720D02*
X157564D01*
X161500Y181096D01*
X157564D01*
Y179785D02*
X161500D01*
X159532D01*
Y177161D01*
X157564D01*
X161500D01*
Y175849D02*
Y174537D01*
Y175193D01*
X157564D01*
X158220Y175849D01*
X172564Y187000D02*
Y185688D01*
Y186344D01*
X176500D01*
Y187000D01*
Y185688D01*
Y183720D02*
X172564D01*
X176500Y181096D01*
X172564D01*
Y179785D02*
X176500D01*
X174532D01*
Y177161D01*
X172564D01*
X176500D01*
Y173225D02*
Y175849D01*
X173876Y173225D01*
X173220D01*
X172564Y173881D01*
Y175193D01*
X173220Y175849D01*
X184064Y183500D02*
Y182188D01*
Y182844D01*
X188000D01*
Y183500D01*
Y182188D01*
Y180220D02*
X184064D01*
X188000Y177596D01*
X184064D01*
X188000Y173661D02*
Y176285D01*
X185376Y173661D01*
X184720D01*
X184064Y174317D01*
Y175628D01*
X184720Y176285D01*
X195064Y188000D02*
Y186688D01*
Y187344D01*
X199000D01*
Y188000D01*
Y186688D01*
Y184720D02*
X195064D01*
X199000Y182096D01*
X195064D01*
X195720Y180784D02*
X195064Y180129D01*
Y178817D01*
X195720Y178161D01*
X196376D01*
X197032Y178817D01*
Y179473D01*
Y178817D01*
X197688Y178161D01*
X198344D01*
X199000Y178817D01*
Y180129D01*
X198344Y180784D01*
X204564Y188000D02*
Y186688D01*
Y187344D01*
X208500D01*
Y188000D01*
Y186688D01*
Y184720D02*
X204564D01*
X208500Y182096D01*
X204564D01*
Y180784D02*
X208500D01*
X206532D01*
Y178161D01*
X204564D01*
X208500D01*
X205220Y176849D02*
X204564Y176193D01*
Y174881D01*
X205220Y174225D01*
X205876D01*
X206532Y174881D01*
Y175537D01*
Y174881D01*
X207188Y174225D01*
X207844D01*
X208500Y174881D01*
Y176193D01*
X207844Y176849D01*
M02*
