G04*
G04 #@! TF.GenerationSoftware,Altium Limited,Altium Designer,18.0.7 (293)*
G04*
G04 Layer_Color=128*
%FSLAX25Y25*%
%MOIN*%
G70*
G01*
G75*
%ADD49R,0.03937X0.03937*%
%ADD50R,0.03937X0.06000*%
%ADD51R,0.06000X0.03937*%
%ADD52R,0.06000X0.06000*%
D49*
X257000Y112700D02*
D03*
X251095D02*
D03*
X73500Y183800D02*
D03*
X67594D02*
D03*
X48700Y201800D02*
D03*
X54606D02*
D03*
D50*
X101181Y176807D02*
D03*
Y143701D02*
D03*
X146500Y175197D02*
D03*
D51*
X94488Y170114D02*
D03*
Y183500D02*
D03*
Y137008D02*
D03*
Y150394D02*
D03*
X153193Y181890D02*
D03*
Y168504D02*
D03*
X94488Y116142D02*
D03*
X94587Y110335D02*
D03*
X94488Y104331D02*
D03*
X257202Y41339D02*
D03*
X257300Y35531D02*
D03*
X257202Y29528D02*
D03*
X239002Y41339D02*
D03*
X239100Y35531D02*
D03*
X239002Y29528D02*
D03*
X174400Y169289D02*
D03*
X174302Y175096D02*
D03*
X174400Y181100D02*
D03*
X206802Y181102D02*
D03*
X206900Y175295D02*
D03*
X206802Y169291D02*
D03*
X232702Y181102D02*
D03*
X232800Y175295D02*
D03*
X232702Y169291D02*
D03*
D52*
X94488Y176807D02*
D03*
Y143701D02*
D03*
X153193Y175197D02*
D03*
M02*
