M48
;Layer_Color=9474304
;FILE_FORMAT=2:5
INCH,LZ
;TYPE=PLATED
T1F00S00C0.01968
T2F00S00C0.03543
T3F00S00C0.05906
%
T01
X02569Y00111
X00606Y0018
X00595Y00306
X00528Y00655
X00546Y01479
X00574Y01724
X006875Y01397
X01062Y01291
X0113Y01294
X01465Y01315
X01515
X0156
X01605
X01586Y01352
X01537Y0135
X0149Y01349
X01604Y01131
X01708Y00807
X01757Y0080709
X01807
X01781Y00772
X01731
X01686
X01836
X01876Y00935
X02105Y00978
X02101Y01071
X01958Y01438
X01957Y01493
X01933Y01631
X01407Y0164
X01458Y00776
X01137Y00779
X01129Y00263
X01045
X00912Y00254
X00775Y00233
Y00303
Y00363
X00689Y00695
X01333Y00259
X0147Y00255
X0152Y0025591
X01575
X0163Y00255
X01601Y0029
X01548Y00291
X01498
X01944Y00431
X01945Y00477
X01986Y00536
X02357Y00566
X02484Y01459
X02479Y01742
X02216Y01849
X01912Y01825
X0169Y01913
X01457Y01827
X01313Y01843
X01246Y01846
X01239Y0191
X01112Y019
X01134Y01827
X0085Y01811
X00604Y01947
X0060384Y0201284
T02
X0216063Y001
X0226063
X0236063
X0246063
X0206063
X0196063
X0175984
X0165984
X0155984
X0145984
X0135984
X0125984
X0115984
X0105984
X00368Y01435
Y01535
Y01635
Y01735
X0216063Y0198819
X0226063
X0236063
X0246063
X0206063
X0196063
X0186063
X0176063
X0161063
X0151063
X0141063
X0131063
X0121063
X0111063
X0101063
X0091063
X0081063
X0071063
X00368Y01835
T03
X00434Y0084515
Y01042
Y0123885
X02555Y0090685
Y0071
M30
