G04*
G04 #@! TF.GenerationSoftware,Altium Limited,Altium Designer,18.0.7 (293)*
G04*
G04 Layer_Color=8421504*
%FSLAX25Y25*%
%MOIN*%
G70*
G01*
G75*
%ADD12R,0.03150X0.03543*%
%ADD13R,0.03543X0.03150*%
%ADD14R,0.10236X0.05906*%
G04:AMPARAMS|DCode=15|XSize=35.43mil|YSize=27.56mil|CornerRadius=0mil|HoleSize=0mil|Usage=FLASHONLY|Rotation=225.000|XOffset=0mil|YOffset=0mil|HoleType=Round|Shape=Rectangle|*
%AMROTATEDRECTD15*
4,1,4,0.00278,0.02227,0.02227,0.00278,-0.00278,-0.02227,-0.02227,-0.00278,0.00278,0.02227,0.0*
%
%ADD15ROTATEDRECTD15*%

%ADD16R,0.24016X0.24803*%
%ADD17R,0.11024X0.05906*%
%ADD18R,0.03543X0.02756*%
%ADD19R,0.02756X0.03543*%
%ADD20R,0.12992X0.04331*%
%ADD21R,0.01575X0.05906*%
%ADD22R,0.37008X0.42520*%
%ADD23R,0.18110X0.03150*%
%ADD24R,0.17717X0.07874*%
D12*
X93144Y78500D02*
D03*
X98656D02*
D03*
X93444Y131400D02*
D03*
X98956D02*
D03*
X231656Y20600D02*
D03*
X226144D02*
D03*
X67144Y178300D02*
D03*
X72656D02*
D03*
X70756Y30600D02*
D03*
X65244D02*
D03*
X203543Y99500D02*
D03*
X198031D02*
D03*
X182756Y166000D02*
D03*
X177244D02*
D03*
X203543Y111500D02*
D03*
X198031D02*
D03*
X183505Y154897D02*
D03*
X177993D02*
D03*
X185058Y46300D02*
D03*
X179546D02*
D03*
X183858Y58500D02*
D03*
X178346D02*
D03*
D13*
X105100Y84956D02*
D03*
Y79444D02*
D03*
D14*
X241500Y116689D02*
D03*
Y128500D02*
D03*
D15*
X80288Y184012D02*
D03*
X76112Y188188D02*
D03*
X89988Y184351D02*
D03*
X85812Y188527D02*
D03*
D16*
X254736Y37109D02*
D03*
D17*
X230130Y28165D02*
D03*
Y46165D02*
D03*
D18*
X39600Y201284D02*
D03*
Y195379D02*
D03*
X46500Y201284D02*
D03*
Y195379D02*
D03*
X53900Y201284D02*
D03*
Y195379D02*
D03*
D19*
X225747Y126800D02*
D03*
X231653D02*
D03*
X203740Y94000D02*
D03*
X197835D02*
D03*
X185255Y40300D02*
D03*
X179350D02*
D03*
X204953Y105000D02*
D03*
X199047D02*
D03*
X184055Y52000D02*
D03*
X178150D02*
D03*
X203853Y88700D02*
D03*
X197947D02*
D03*
X203740Y80400D02*
D03*
X197835D02*
D03*
X185753Y33800D02*
D03*
X179847D02*
D03*
X190353Y28100D02*
D03*
X184447D02*
D03*
X183702Y148097D02*
D03*
X177796D02*
D03*
X186024Y160500D02*
D03*
X180118D02*
D03*
X186024Y141400D02*
D03*
X180118D02*
D03*
Y134800D02*
D03*
X186024D02*
D03*
D20*
X88583Y46780D02*
D03*
Y69220D02*
D03*
Y163720D02*
D03*
Y141280D02*
D03*
D21*
X72736Y62817D02*
D03*
X70177D02*
D03*
X72736Y39983D02*
D03*
X70177D02*
D03*
X67618Y62817D02*
D03*
X65059D02*
D03*
X67618Y39983D02*
D03*
X65059D02*
D03*
X65061Y146283D02*
D03*
X67620D02*
D03*
X65061Y169117D02*
D03*
X67620D02*
D03*
X70180Y146283D02*
D03*
X72739D02*
D03*
X70180Y169117D02*
D03*
X72739D02*
D03*
D22*
X118110Y157480D02*
D03*
X137795Y104331D02*
D03*
X118110Y51181D02*
D03*
D23*
X154331Y142480D02*
D03*
X154134Y147480D02*
D03*
Y152480D02*
D03*
Y157480D02*
D03*
Y162480D02*
D03*
Y167480D02*
D03*
Y172480D02*
D03*
X173819Y119331D02*
D03*
Y114331D02*
D03*
Y109331D02*
D03*
Y104331D02*
D03*
Y99331D02*
D03*
Y94331D02*
D03*
X174016Y89331D02*
D03*
X154134Y66181D02*
D03*
Y61181D02*
D03*
Y56181D02*
D03*
Y51181D02*
D03*
Y46181D02*
D03*
Y41181D02*
D03*
X154331Y36181D02*
D03*
D24*
X246037Y159614D02*
D03*
X210604D02*
D03*
M02*
