G04*
G04 #@! TF.GenerationSoftware,Altium Limited,Altium Designer,18.0.7 (293)*
G04*
G04 Layer_Color=8388736*
%FSLAX25Y25*%
%MOIN*%
G70*
G01*
G75*
%ADD21R,0.06706X0.11036*%
%ADD22R,0.04343X0.03556*%
%ADD23R,0.03556X0.04343*%
%ADD24R,0.13792X0.05131*%
%ADD25R,0.01968X0.06299*%
%ADD26R,0.37808X0.43320*%
%ADD27R,0.18910X0.03950*%
%ADD28R,0.03950X0.04343*%
%ADD29R,0.18517X0.08674*%
%ADD30C,0.06706*%
%ADD31R,0.06706X0.06706*%
%ADD32C,0.16548*%
%ADD33R,0.06706X0.06706*%
%ADD34C,0.03950*%
D21*
X260705Y37400D02*
D03*
X248895D02*
D03*
D22*
X241800Y55705D02*
D03*
Y49800D02*
D03*
D23*
X92947Y186000D02*
D03*
X98853D02*
D03*
X109647Y186299D02*
D03*
X115553D02*
D03*
X75547Y186100D02*
D03*
X81453D02*
D03*
X184055Y140500D02*
D03*
X178150D02*
D03*
X203953Y85500D02*
D03*
X198047D02*
D03*
X184055Y35500D02*
D03*
X178150D02*
D03*
X184953Y160500D02*
D03*
X179047D02*
D03*
X204953Y105000D02*
D03*
X199047D02*
D03*
X184055Y52000D02*
D03*
X178150D02*
D03*
X223547Y187008D02*
D03*
X229453D02*
D03*
X209453Y187008D02*
D03*
X203547D02*
D03*
X174047Y187008D02*
D03*
X179953D02*
D03*
X197953Y187008D02*
D03*
X192047D02*
D03*
X160953D02*
D03*
X155047D02*
D03*
X137953D02*
D03*
X132047D02*
D03*
D24*
X88583Y46780D02*
D03*
Y69221D02*
D03*
Y163721D02*
D03*
Y141279D02*
D03*
D25*
X72736Y62817D02*
D03*
X70177D02*
D03*
X72736Y39983D02*
D03*
X70177D02*
D03*
X67618Y62817D02*
D03*
X65059D02*
D03*
X67618Y39983D02*
D03*
X65059D02*
D03*
X65061Y146283D02*
D03*
X67620D02*
D03*
X65061Y169117D02*
D03*
X67620D02*
D03*
X70179Y146283D02*
D03*
X72739D02*
D03*
X70179Y169117D02*
D03*
X72739D02*
D03*
D26*
X118110Y157480D02*
D03*
X137795Y104331D02*
D03*
X118110Y51181D02*
D03*
D27*
X154331Y142480D02*
D03*
X154134Y147480D02*
D03*
Y152480D02*
D03*
Y157480D02*
D03*
Y162480D02*
D03*
Y167480D02*
D03*
Y172480D02*
D03*
X173819Y119331D02*
D03*
Y114331D02*
D03*
Y109331D02*
D03*
Y104331D02*
D03*
Y99331D02*
D03*
Y94331D02*
D03*
X174016Y89331D02*
D03*
X154134Y66181D02*
D03*
Y61181D02*
D03*
Y56181D02*
D03*
Y51181D02*
D03*
Y46181D02*
D03*
Y41181D02*
D03*
X154331Y36181D02*
D03*
D28*
X70756Y30600D02*
D03*
X65244D02*
D03*
X67144Y178300D02*
D03*
X72656D02*
D03*
X183858Y146500D02*
D03*
X178347D02*
D03*
X203543Y91000D02*
D03*
X198031D02*
D03*
X183858Y41500D02*
D03*
X178347D02*
D03*
X182756Y166000D02*
D03*
X177244D02*
D03*
X203543Y111500D02*
D03*
X198031D02*
D03*
X183858Y58500D02*
D03*
X178347D02*
D03*
D29*
X245433Y156500D02*
D03*
X210000D02*
D03*
D30*
X43800Y183600D02*
D03*
Y173600D02*
D03*
Y163600D02*
D03*
Y153600D02*
D03*
X115984Y9500D02*
D03*
X125984D02*
D03*
X135984D02*
D03*
X145984D02*
D03*
X155984D02*
D03*
X165984D02*
D03*
X175984D02*
D03*
X206063Y10000D02*
D03*
X216063D02*
D03*
X226063D02*
D03*
X236063D02*
D03*
X246063D02*
D03*
X91063Y197047D02*
D03*
X161063D02*
D03*
X151063D02*
D03*
X141063D02*
D03*
X131063D02*
D03*
X121063D02*
D03*
X111063D02*
D03*
X101063D02*
D03*
X81063D02*
D03*
X186063D02*
D03*
X196063D02*
D03*
X206063D02*
D03*
X216063D02*
D03*
X226063D02*
D03*
X236063D02*
D03*
X246063D02*
D03*
D31*
X43800Y143600D02*
D03*
D32*
X255500Y90685D02*
D03*
Y71000D02*
D03*
X53150Y124016D02*
D03*
Y104331D02*
D03*
Y84646D02*
D03*
D33*
X105984Y9500D02*
D03*
X196063Y10000D02*
D03*
X71063Y197047D02*
D03*
X176063D02*
D03*
D34*
X259842Y18500D02*
D03*
Y28400D02*
D03*
X233600Y54300D02*
D03*
X233800Y41300D02*
D03*
X193200Y35200D02*
D03*
X191900Y50600D02*
D03*
X126900Y185500D02*
D03*
X88000Y185700D02*
D03*
X70300Y187000D02*
D03*
X105100Y186200D02*
D03*
X57900Y139900D02*
D03*
X56400Y171900D02*
D03*
Y183600D02*
D03*
X66000Y160300D02*
D03*
X186300Y187400D02*
D03*
X77500Y23300D02*
D03*
Y30300D02*
D03*
Y36300D02*
D03*
X59500Y30600D02*
D03*
X62000Y178600D02*
D03*
X68900Y69500D02*
D03*
X68750Y139700D02*
D03*
X167500Y147000D02*
D03*
X168000Y152500D02*
D03*
X188000Y93350D02*
D03*
X167000Y46000D02*
D03*
X60600Y18000D02*
D03*
X211500Y89500D02*
D03*
Y101000D02*
D03*
X192000Y140500D02*
D03*
X193000Y153000D02*
D03*
X168000Y39000D02*
D03*
X236500Y187500D02*
D03*
X183500Y78000D02*
D03*
X168500D02*
D03*
X173000D02*
D03*
X246000Y171000D02*
D03*
X248500Y144500D02*
D03*
X237500Y142000D02*
D03*
X238000Y174500D02*
D03*
X163000Y25500D02*
D03*
X157500Y25591D02*
D03*
X152000D02*
D03*
X147000Y25500D02*
D03*
X142000Y25591D02*
D03*
X160500Y131500D02*
D03*
X156000D02*
D03*
X151500D02*
D03*
X146500D02*
D03*
X142000D02*
D03*
X178000Y78000D02*
D03*
X163500D02*
D03*
X167500Y187000D02*
D03*
X214500Y186500D02*
D03*
X149500Y187000D02*
D03*
X188075Y98425D02*
D03*
X199000Y98000D02*
D03*
M02*
