G04*
G04 #@! TF.GenerationSoftware,Altium Limited,Altium Designer,18.0.7 (293)*
G04*
G04 Layer_Color=8388736*
%FSLAX25Y25*%
%MOIN*%
G70*
G01*
G75*
%ADD25R,0.03950X0.04343*%
%ADD26R,0.04343X0.03950*%
%ADD27R,0.11036X0.06706*%
G04:AMPARAMS|DCode=28|XSize=43.43mil|YSize=35.56mil|CornerRadius=0mil|HoleSize=0mil|Usage=FLASHONLY|Rotation=225.000|XOffset=0mil|YOffset=0mil|HoleType=Round|Shape=Rectangle|*
%AMROTATEDRECTD28*
4,1,4,0.00278,0.02793,0.02793,0.00278,-0.00278,-0.02793,-0.02793,-0.00278,0.00278,0.02793,0.0*
%
%ADD28ROTATEDRECTD28*%

%ADD29R,0.24816X0.25603*%
%ADD30R,0.11824X0.06706*%
%ADD31R,0.04343X0.03556*%
%ADD32R,0.03556X0.04343*%
%ADD33R,0.13792X0.05131*%
%ADD34R,0.01968X0.06299*%
%ADD35R,0.37808X0.43320*%
%ADD36R,0.18910X0.03950*%
%ADD37R,0.18517X0.08674*%
%ADD38C,0.16548*%
%ADD39R,0.06706X0.06706*%
%ADD40C,0.06706*%
%ADD41R,0.06706X0.06706*%
%ADD42C,0.03950*%
D25*
X93144Y78500D02*
D03*
X98656D02*
D03*
X93444Y131400D02*
D03*
X98956D02*
D03*
X231656Y20600D02*
D03*
X226144D02*
D03*
X67144Y178300D02*
D03*
X72656D02*
D03*
X70756Y30600D02*
D03*
X65244D02*
D03*
X203543Y99500D02*
D03*
X198031D02*
D03*
X182756Y166000D02*
D03*
X177244D02*
D03*
X203543Y111500D02*
D03*
X198031D02*
D03*
X183505Y154897D02*
D03*
X177993D02*
D03*
X185058Y46300D02*
D03*
X179546D02*
D03*
X183858Y58500D02*
D03*
X178346D02*
D03*
D26*
X105100Y84956D02*
D03*
Y79444D02*
D03*
D27*
X241500Y116689D02*
D03*
Y128500D02*
D03*
D28*
X80288Y184012D02*
D03*
X76112Y188188D02*
D03*
X89988Y184351D02*
D03*
X85812Y188527D02*
D03*
D29*
X254736Y37109D02*
D03*
D30*
X230130Y28165D02*
D03*
Y46165D02*
D03*
D31*
X39600Y201284D02*
D03*
Y195379D02*
D03*
X46500Y201284D02*
D03*
Y195379D02*
D03*
X53900Y201284D02*
D03*
Y195379D02*
D03*
D32*
X225747Y126800D02*
D03*
X231653D02*
D03*
X203740Y94000D02*
D03*
X197835D02*
D03*
X185255Y40300D02*
D03*
X179350D02*
D03*
X204953Y105000D02*
D03*
X199047D02*
D03*
X184055Y52000D02*
D03*
X178150D02*
D03*
X203853Y88700D02*
D03*
X197947D02*
D03*
X203740Y80400D02*
D03*
X197835D02*
D03*
X185753Y33800D02*
D03*
X179847D02*
D03*
X190353Y28100D02*
D03*
X184447D02*
D03*
X183702Y148097D02*
D03*
X177796D02*
D03*
X186024Y160500D02*
D03*
X180118D02*
D03*
X186024Y141400D02*
D03*
X180118D02*
D03*
Y134800D02*
D03*
X186024D02*
D03*
D33*
X88583Y46780D02*
D03*
Y69220D02*
D03*
Y163720D02*
D03*
Y141280D02*
D03*
D34*
X72736Y62817D02*
D03*
X70177D02*
D03*
X72736Y39983D02*
D03*
X70177D02*
D03*
X67618Y62817D02*
D03*
X65059D02*
D03*
X67618Y39983D02*
D03*
X65059D02*
D03*
X65061Y146283D02*
D03*
X67620D02*
D03*
X65061Y169117D02*
D03*
X67620D02*
D03*
X70180Y146283D02*
D03*
X72739D02*
D03*
X70180Y169117D02*
D03*
X72739D02*
D03*
D35*
X118110Y157480D02*
D03*
X137795Y104331D02*
D03*
X118110Y51181D02*
D03*
D36*
X154331Y142480D02*
D03*
X154134Y147480D02*
D03*
Y152480D02*
D03*
Y157480D02*
D03*
Y162480D02*
D03*
Y167480D02*
D03*
Y172480D02*
D03*
X173819Y119331D02*
D03*
Y114331D02*
D03*
Y109331D02*
D03*
Y104331D02*
D03*
Y99331D02*
D03*
Y94331D02*
D03*
X174016Y89331D02*
D03*
X154134Y66181D02*
D03*
Y61181D02*
D03*
Y56181D02*
D03*
Y51181D02*
D03*
Y46181D02*
D03*
Y41181D02*
D03*
X154331Y36181D02*
D03*
D37*
X246037Y159614D02*
D03*
X210604D02*
D03*
D38*
X255500Y90685D02*
D03*
Y71000D02*
D03*
X43400Y123885D02*
D03*
Y104200D02*
D03*
Y84515D02*
D03*
D39*
X36800Y183500D02*
D03*
D40*
Y173500D02*
D03*
Y163500D02*
D03*
Y153500D02*
D03*
Y143500D02*
D03*
X246063Y10000D02*
D03*
X236063D02*
D03*
X226063D02*
D03*
X216063D02*
D03*
X206063D02*
D03*
X246063Y198819D02*
D03*
X236063D02*
D03*
X226063D02*
D03*
X216063D02*
D03*
X206063D02*
D03*
X196063D02*
D03*
X186063D02*
D03*
X175984Y10000D02*
D03*
X165984D02*
D03*
X155984D02*
D03*
X145984D02*
D03*
X135984D02*
D03*
X125984D02*
D03*
X115984D02*
D03*
X81063Y198819D02*
D03*
X101063D02*
D03*
X111063D02*
D03*
X121063D02*
D03*
X131063D02*
D03*
X141063D02*
D03*
X151063D02*
D03*
X161063D02*
D03*
X91063D02*
D03*
D41*
X196063Y10000D02*
D03*
X176063Y198819D02*
D03*
X105984Y10000D02*
D03*
X71063Y198819D02*
D03*
D42*
X256900Y11100D02*
D03*
X106200Y129100D02*
D03*
X235700Y56600D02*
D03*
X57400Y172400D02*
D03*
X54600Y147900D02*
D03*
X68900Y69500D02*
D03*
X85000Y181100D02*
D03*
X60400Y194700D02*
D03*
X60384Y201284D02*
D03*
X91200Y25400D02*
D03*
X104500Y26300D02*
D03*
X112900D02*
D03*
X113000Y129400D02*
D03*
X123900Y191000D02*
D03*
X124600Y184600D02*
D03*
X111200Y190000D02*
D03*
X133300Y25900D02*
D03*
X113700Y77900D02*
D03*
X131300Y184300D02*
D03*
X160100Y29000D02*
D03*
X154800Y29100D02*
D03*
X195800Y143800D02*
D03*
X195700Y149300D02*
D03*
X180700Y80709D02*
D03*
X175700D02*
D03*
X158600Y135200D02*
D03*
X153700Y135000D02*
D03*
X149000Y134900D02*
D03*
X140700Y164000D02*
D03*
X113400Y182700D02*
D03*
X145700D02*
D03*
X169000Y191300D02*
D03*
X52800Y65500D02*
D03*
X221600Y184900D02*
D03*
X194400Y43100D02*
D03*
X194500Y47700D02*
D03*
X210500Y97800D02*
D03*
X187600Y93500D02*
D03*
X191200Y182500D02*
D03*
X170800Y80700D02*
D03*
X151500Y131500D02*
D03*
X156000D02*
D03*
X146500D02*
D03*
X160400Y113100D02*
D03*
X145800Y77600D02*
D03*
X198600Y53600D02*
D03*
X77500Y23300D02*
D03*
Y30300D02*
D03*
Y36300D02*
D03*
X59500Y30600D02*
D03*
X68750Y139700D02*
D03*
X60600Y18000D02*
D03*
X210100Y107100D02*
D03*
X193300Y163100D02*
D03*
X183600Y77200D02*
D03*
X168600D02*
D03*
X173100D02*
D03*
X247900Y174200D02*
D03*
X248400Y145900D02*
D03*
X163000Y25500D02*
D03*
X157500Y25591D02*
D03*
X152000D02*
D03*
X147000Y25500D02*
D03*
X149800Y29100D02*
D03*
X160500Y131500D02*
D03*
X178100Y77200D02*
D03*
M02*
