G04*
G04 #@! TF.GenerationSoftware,Altium Limited,Altium Designer,18.0.7 (293)*
G04*
G04 Layer_Color=32896*
%FSLAX25Y25*%
%MOIN*%
G70*
G01*
G75*
%ADD10C,0.01000*%
D10*
X213700Y30900D02*
X228600D01*
X194700Y30800D02*
X209500D01*
X214829Y65800D02*
X218765D01*
X216797D01*
Y63176D01*
X214829D01*
X218765D01*
Y61864D02*
Y60552D01*
Y61208D01*
X216141D01*
Y61864D01*
X220077Y57273D02*
Y56617D01*
X219421Y55961D01*
X216141D01*
Y57929D01*
X216797Y58584D01*
X218109D01*
X218765Y57929D01*
Y55961D01*
X214829Y54649D02*
X218765D01*
X216797D01*
X216141Y53993D01*
Y52681D01*
X216797Y52025D01*
X218765D01*
X216797Y50713D02*
Y48089D01*
X218765Y46777D02*
Y44809D01*
X218109Y44153D01*
X217453Y44809D01*
Y46121D01*
X216797Y46777D01*
X216141Y46121D01*
Y44153D01*
X218765Y42842D02*
Y41530D01*
Y42186D01*
X216141D01*
Y42842D01*
X214829Y36938D02*
X218765D01*
Y38906D01*
X218109Y39562D01*
X216797D01*
X216141Y38906D01*
Y36938D01*
X218765Y33658D02*
Y34970D01*
X218109Y35626D01*
X216797D01*
X216141Y34970D01*
Y33658D01*
X216797Y33002D01*
X217453D01*
Y35626D01*
X223264Y59240D02*
X227200D01*
Y57273D01*
X226544Y56617D01*
X225888D01*
X225232Y57273D01*
Y59240D01*
Y57273D01*
X224576Y56617D01*
X223920D01*
X223264Y57273D01*
Y59240D01*
Y55305D02*
Y52681D01*
Y53993D01*
X227200D01*
Y51369D02*
X223264D01*
X227200Y48745D01*
X223264D01*
X223920Y47433D02*
X223264Y46777D01*
Y45465D01*
X223920Y44809D01*
X224576D01*
X225232Y45465D01*
X225888Y44809D01*
X226544D01*
X227200Y45465D01*
Y46777D01*
X226544Y47433D01*
X225888D01*
X225232Y46777D01*
X224576Y47433D01*
X223920D01*
X225232Y46777D02*
Y45465D01*
X226544Y43497D02*
X227200Y42842D01*
Y41530D01*
X226544Y40874D01*
X223920D01*
X223264Y41530D01*
Y42842D01*
X223920Y43497D01*
X224576D01*
X225232Y42842D01*
Y40874D01*
X223920Y39562D02*
X223264Y38906D01*
Y37594D01*
X223920Y36938D01*
X224576D01*
X225232Y37594D01*
X225888Y36938D01*
X226544D01*
X227200Y37594D01*
Y38906D01*
X226544Y39562D01*
X225888D01*
X225232Y38906D01*
X224576Y39562D01*
X223920D01*
X225232Y38906D02*
Y37594D01*
X227200Y33002D02*
Y35626D01*
X224576Y33002D01*
X223920D01*
X223264Y33658D01*
Y34970D01*
X223920Y35626D01*
X78000Y169736D02*
X76688D01*
X77344D01*
Y165800D01*
X78000D01*
X76688D01*
X74720D02*
X72096Y168424D01*
X70784Y169736D02*
Y165800D01*
X69473Y167112D01*
X68161Y165800D01*
Y169736D01*
X129476Y162538D02*
X130132Y163193D01*
X131444D01*
X132100Y162538D01*
Y161881D01*
X131444Y161226D01*
X130132D01*
X129476Y160570D01*
Y159914D01*
X130132Y159258D01*
X131444D01*
X132100Y159914D01*
X127508Y159258D02*
X126196D01*
X125540Y159914D01*
Y161226D01*
X126196Y161881D01*
X127508D01*
X128164Y161226D01*
Y159914D01*
X127508Y159258D01*
X124229D02*
X122917D01*
X123573D01*
Y163193D01*
X124229D01*
X118325D02*
Y159258D01*
X120293D01*
X120949Y159914D01*
Y161226D01*
X120293Y161881D01*
X118325D01*
X115045Y159258D02*
X116357D01*
X117013Y159914D01*
Y161226D01*
X116357Y161881D01*
X115045D01*
X114389Y161226D01*
Y160570D01*
X117013D01*
X113077Y161881D02*
Y159258D01*
Y160570D01*
X112421Y161226D01*
X111765Y161881D01*
X111109D01*
X104550Y162538D02*
Y161881D01*
X105206D01*
X103894D01*
X104550D01*
Y159914D01*
X103894Y159258D01*
X101270D02*
X99958D01*
X99302Y159914D01*
Y161226D01*
X99958Y161881D01*
X101270D01*
X101926Y161226D01*
Y159914D01*
X101270Y159258D01*
X92087D02*
X93399D01*
X94055Y159914D01*
Y161226D01*
X93399Y161881D01*
X92087D01*
X91431Y161226D01*
Y160570D01*
X94055D01*
X90119Y159258D02*
Y161881D01*
X88151D01*
X87495Y161226D01*
Y159258D01*
X85527Y161881D02*
X84215D01*
X83559Y161226D01*
Y159258D01*
X85527D01*
X86183Y159914D01*
X85527Y160570D01*
X83559D01*
X82247Y163193D02*
Y159258D01*
X80279D01*
X79624Y159914D01*
Y160570D01*
Y161226D01*
X80279Y161881D01*
X82247D01*
X78312Y159258D02*
X77000D01*
X77656D01*
Y163193D01*
X78312D01*
X73064Y159258D02*
X74376D01*
X75032Y159914D01*
Y161226D01*
X74376Y161881D01*
X73064D01*
X72408Y161226D01*
Y160570D01*
X75032D01*
X129476Y156070D02*
X132100D01*
Y152135D01*
X129476D01*
X132100Y154103D02*
X130788D01*
X128164Y152135D02*
Y154759D01*
X126196D01*
X125540Y154103D01*
Y152135D01*
X121605Y154759D02*
X123573D01*
X124229Y154103D01*
Y152791D01*
X123573Y152135D01*
X121605D01*
X119637D02*
X118325D01*
X117669Y152791D01*
Y154103D01*
X118325Y154759D01*
X119637D01*
X120293Y154103D01*
Y152791D01*
X119637Y152135D01*
X113733Y156070D02*
Y152135D01*
X115701D01*
X116357Y152791D01*
Y154103D01*
X115701Y154759D01*
X113733D01*
X110453Y152135D02*
X111765D01*
X112421Y152791D01*
Y154103D01*
X111765Y154759D01*
X110453D01*
X109798Y154103D01*
Y153447D01*
X112421D01*
X108486Y154759D02*
Y152135D01*
Y153447D01*
X107830Y154103D01*
X107174Y154759D01*
X106518D01*
X104550Y152135D02*
X101926Y154759D01*
X100614Y156070D02*
Y152135D01*
Y154103D01*
X97990D01*
Y156070D01*
Y152135D01*
X96022Y154759D02*
X94710D01*
X94055Y154103D01*
Y152135D01*
X96022D01*
X96678Y152791D01*
X96022Y153447D01*
X94055D01*
X92743Y152135D02*
X91431D01*
X92087D01*
Y156070D01*
X92743D01*
X89463Y152135D02*
X88151D01*
X88807D01*
Y156070D01*
X89463D01*
X132100Y145012D02*
Y148948D01*
X130132D01*
X129476Y148292D01*
Y146980D01*
X130132Y146324D01*
X132100D01*
X128164Y147636D02*
Y145668D01*
X127508Y145012D01*
X125540D01*
Y147636D01*
X124229Y145012D02*
X122917D01*
X123573D01*
Y148948D01*
X124229D01*
X120949Y145012D02*
X119637D01*
X120293D01*
Y148948D01*
X120949D01*
X117669Y147636D02*
Y145668D01*
X117013Y145012D01*
X115045D01*
Y147636D01*
X113733Y143700D02*
Y147636D01*
X111765D01*
X111109Y146980D01*
Y145668D01*
X111765Y145012D01*
X113733D01*
X109798D02*
X107830D01*
X107174Y145668D01*
X107830Y146324D01*
X109142D01*
X109798Y146980D01*
X109142Y147636D01*
X107174D01*
X196241Y58100D02*
Y56788D01*
Y57444D01*
X200177D01*
Y58100D01*
Y56788D01*
Y54820D02*
X197553D01*
Y52852D01*
X198209Y52196D01*
X200177D01*
X198209Y50884D02*
Y48261D01*
X200177Y46949D02*
Y45637D01*
Y46293D01*
X196241D01*
Y46949D01*
X200177Y43669D02*
Y42357D01*
Y43013D01*
X197553D01*
Y43669D01*
X200177Y40389D02*
X197553D01*
Y38421D01*
X198209Y37765D01*
X200177D01*
Y34486D02*
Y35798D01*
X199521Y36453D01*
X198209D01*
X197553Y35798D01*
Y34486D01*
X198209Y33830D01*
X198865D01*
Y36453D01*
X203364Y55476D02*
Y54164D01*
Y54820D01*
X207300D01*
Y55476D01*
Y54164D01*
Y52196D02*
X203364D01*
X207300Y49573D01*
X203364D01*
X207300Y48261D02*
X204676D01*
X203364Y46949D01*
X204676Y45637D01*
X207300D01*
X205332D01*
Y48261D01*
X207300Y41701D02*
Y44325D01*
X204676Y41701D01*
X204020D01*
X203364Y42357D01*
Y43669D01*
X204020Y44325D01*
X207300Y38421D02*
X203364D01*
X205332Y40389D01*
Y37765D01*
X204020Y36453D02*
X203364Y35798D01*
Y34486D01*
X204020Y33830D01*
X206644D01*
X207300Y34486D01*
Y35798D01*
X206644Y36453D01*
X204020D01*
X250030Y126918D02*
Y125606D01*
Y126262D01*
X246095D01*
X246751Y126918D01*
X250030Y121014D02*
Y123638D01*
X247407Y121014D01*
X246751D01*
X246095Y121670D01*
Y122982D01*
X246751Y123638D01*
X248062Y119702D02*
Y117078D01*
X250030Y113143D02*
Y115766D01*
X247407Y113143D01*
X246751D01*
X246095Y113799D01*
Y115111D01*
X246751Y115766D01*
X250030Y109863D02*
X246095D01*
X248062Y111831D01*
Y109207D01*
X246095Y107895D02*
X248719D01*
X250030Y106583D01*
X248719Y105271D01*
X246095D01*
X253873Y145940D02*
X253218Y145284D01*
Y143973D01*
X253873Y143317D01*
X254530D01*
X255185Y143973D01*
Y144629D01*
Y143973D01*
X255841Y143317D01*
X256497D01*
X257153Y143973D01*
Y145284D01*
X256497Y145940D01*
X253873Y142005D02*
X253218Y141349D01*
Y140037D01*
X253873Y139381D01*
X256497D01*
X257153Y140037D01*
Y141349D01*
X256497Y142005D01*
X253873D01*
X257153Y138069D02*
X254530D01*
X253218Y136757D01*
X254530Y135445D01*
X257153D01*
X255185D01*
Y138069D01*
X257153Y134133D02*
X254530D01*
Y133477D01*
X255185Y132821D01*
X257153D01*
X255185D01*
X254530Y132165D01*
X255185Y131509D01*
X257153D01*
X258465Y130198D02*
X254530D01*
Y128230D01*
X255185Y127574D01*
X256497D01*
X257153Y128230D01*
Y130198D01*
Y126262D02*
Y124294D01*
X256497Y123638D01*
X255841Y124294D01*
Y125606D01*
X255185Y126262D01*
X254530Y125606D01*
Y123638D01*
Y115766D02*
Y117734D01*
X255185Y118390D01*
X256497D01*
X257153Y117734D01*
Y115766D01*
Y113799D02*
Y112487D01*
X256497Y111831D01*
X255185D01*
X254530Y112487D01*
Y113799D01*
X255185Y114454D01*
X256497D01*
X257153Y113799D01*
Y110519D02*
X254530D01*
Y108551D01*
X255185Y107895D01*
X257153D01*
X253873Y105927D02*
X254530D01*
Y106583D01*
Y105271D01*
Y105927D01*
X256497D01*
X257153Y105271D01*
X261652Y143973D02*
Y146596D01*
X263620D01*
X262964Y145284D01*
Y144629D01*
X263620Y143973D01*
X264932D01*
X265588Y144629D01*
Y145940D01*
X264932Y146596D01*
X262308Y142661D02*
X261652Y142005D01*
Y140693D01*
X262308Y140037D01*
X264932D01*
X265588Y140693D01*
Y142005D01*
X264932Y142661D01*
X262308D01*
X265588Y138725D02*
X262964D01*
X261652Y137413D01*
X262964Y136101D01*
X265588D01*
X263620D01*
Y138725D01*
X265588Y134789D02*
X262964D01*
Y134133D01*
X263620Y133477D01*
X265588D01*
X263620D01*
X262964Y132821D01*
X263620Y132165D01*
X265588D01*
X266900Y130853D02*
X262964D01*
Y128886D01*
X263620Y128230D01*
X264932D01*
X265588Y128886D01*
Y130853D01*
Y126918D02*
Y124950D01*
X264932Y124294D01*
X264276Y124950D01*
Y126262D01*
X263620Y126918D01*
X262964Y126262D01*
Y124294D01*
X266900Y119046D02*
X262964D01*
Y117078D01*
X263620Y116422D01*
X264932D01*
X265588Y117078D01*
Y119046D01*
Y113143D02*
Y114454D01*
X264932Y115111D01*
X263620D01*
X262964Y114454D01*
Y113143D01*
X263620Y112487D01*
X264276D01*
Y115111D01*
X262964Y110519D02*
Y109207D01*
X263620Y108551D01*
X265588D01*
Y110519D01*
X264932Y111175D01*
X264276Y110519D01*
Y108551D01*
X265588Y107239D02*
X261652D01*
X264276D02*
X262964Y105271D01*
X264276Y107239D02*
X265588Y105271D01*
X178785Y42002D02*
X178129Y42658D01*
Y43970D01*
X178785Y44626D01*
X181409D01*
X182065Y43970D01*
Y42658D01*
X181409Y42002D01*
X179441Y40691D02*
X181409D01*
X182065Y40035D01*
Y38067D01*
X179441D01*
Y36755D02*
X182065D01*
X180753D01*
X180097Y36099D01*
X179441Y35443D01*
Y34787D01*
Y32819D02*
X182065D01*
X180753D01*
X180097Y32163D01*
X179441Y31507D01*
Y30851D01*
X182065Y26915D02*
Y28227D01*
X181409Y28883D01*
X180097D01*
X179441Y28227D01*
Y26915D01*
X180097Y26260D01*
X180753D01*
Y28883D01*
X182065Y24948D02*
X179441D01*
Y22980D01*
X180097Y22324D01*
X182065D01*
X178785Y20356D02*
X179441D01*
Y21012D01*
Y19700D01*
Y20356D01*
X181409D01*
X182065Y19700D01*
X189188Y45282D02*
Y43314D01*
X188532Y42658D01*
X187876Y43314D01*
Y44626D01*
X187220Y45282D01*
X186564Y44626D01*
Y42658D01*
X189188Y39379D02*
Y40691D01*
X188532Y41347D01*
X187220D01*
X186564Y40691D01*
Y39379D01*
X187220Y38723D01*
X187876D01*
Y41347D01*
X189188Y37411D02*
X186564D01*
Y35443D01*
X187220Y34787D01*
X189188D01*
Y33475D02*
Y31507D01*
X188532Y30851D01*
X187876Y31507D01*
Y32819D01*
X187220Y33475D01*
X186564Y32819D01*
Y30851D01*
X189188Y29539D02*
Y28227D01*
Y28883D01*
X186564D01*
Y29539D01*
X189188Y26260D02*
X186564D01*
Y24292D01*
X187220Y23636D01*
X189188D01*
X190500Y21012D02*
Y20356D01*
X189844Y19700D01*
X186564D01*
Y21668D01*
X187220Y22324D01*
X188532D01*
X189188Y21668D01*
Y19700D01*
X265264Y96400D02*
X267888D01*
X269200Y95088D01*
X267888Y93776D01*
X265264D01*
X265920Y89840D02*
X265264Y90496D01*
Y91808D01*
X265920Y92464D01*
X268544D01*
X269200Y91808D01*
Y90496D01*
X268544Y89840D01*
X265920Y85905D02*
X265264Y86561D01*
Y87873D01*
X265920Y88529D01*
X268544D01*
X269200Y87873D01*
Y86561D01*
X268544Y85905D01*
X266220Y72876D02*
X265564Y73532D01*
Y74844D01*
X266220Y75500D01*
X268844D01*
X269500Y74844D01*
Y73532D01*
X268844Y72876D01*
X267532D01*
Y74188D01*
X269500Y71564D02*
X265564D01*
X269500Y68940D01*
X265564D01*
Y67629D02*
X269500D01*
Y65661D01*
X268844Y65005D01*
X266220D01*
X265564Y65661D01*
Y67629D01*
X63300Y116920D02*
X62480Y117740D01*
Y119380D01*
X63300Y120200D01*
X66580D01*
X67400Y119380D01*
Y117740D01*
X66580Y116920D01*
X62480Y99800D02*
X67400D01*
Y97340D01*
X66580Y96520D01*
X65760D01*
X64940Y97340D01*
Y99800D01*
Y97340D01*
X64120Y96520D01*
X63300D01*
X62480Y97340D01*
Y99800D01*
X67200Y80500D02*
X63920D01*
X62280Y78860D01*
X63920Y77220D01*
X67200D01*
X64740D01*
Y80500D01*
X224164Y27700D02*
Y26388D01*
Y27044D01*
X228100D01*
Y27700D01*
Y26388D01*
X224820Y21796D02*
X224164Y22452D01*
Y23764D01*
X224820Y24420D01*
X225476D01*
X226132Y23764D01*
Y22452D01*
X226788Y21796D01*
X227444D01*
X228100Y22452D01*
Y23764D01*
X227444Y24420D01*
X228100Y17861D02*
Y20484D01*
X225476Y17861D01*
X224820D01*
X224164Y18517D01*
Y19828D01*
X224820Y20484D01*
X45064Y69776D02*
X49000D01*
Y71744D01*
X48344Y72400D01*
X47032D01*
X46376Y71744D01*
Y69776D01*
X49000Y67808D02*
Y66496D01*
X48344Y65840D01*
X47032D01*
X46376Y66496D01*
Y67808D01*
X47032Y68464D01*
X48344D01*
X49000Y67808D01*
X46376Y61905D02*
Y63873D01*
X47032Y64529D01*
X48344D01*
X49000Y63873D01*
Y61905D01*
Y60593D02*
Y58625D01*
X48344Y57969D01*
X47688Y58625D01*
Y59937D01*
X47032Y60593D01*
X46376Y59937D01*
Y57969D01*
X49000Y56657D02*
X48344D01*
Y56001D01*
X49000D01*
Y56657D01*
Y53377D02*
Y51409D01*
X48344Y50753D01*
X47688Y51409D01*
Y52721D01*
X47032Y53377D01*
X46376Y52721D01*
Y50753D01*
X49000Y49441D02*
Y48130D01*
Y48786D01*
X46376D01*
Y49441D01*
X49000Y46162D02*
X46376D01*
Y45506D01*
X47032Y44850D01*
X49000D01*
X47032D01*
X46376Y44194D01*
X47032Y43538D01*
X49000D01*
X50312Y42226D02*
X46376D01*
Y40258D01*
X47032Y39602D01*
X48344D01*
X49000Y40258D01*
Y42226D01*
Y38290D02*
Y36978D01*
Y37634D01*
X45064D01*
Y38290D01*
X49000Y33043D02*
Y34354D01*
X48344Y35010D01*
X47032D01*
X46376Y34354D01*
Y33043D01*
X47032Y32387D01*
X47688D01*
Y35010D01*
X49000Y30419D02*
X45720D01*
X47032D01*
Y31075D01*
Y29763D01*
Y30419D01*
X45720D01*
X45064Y29763D01*
X49000Y27139D02*
Y25827D01*
X48344Y25171D01*
X47032D01*
X46376Y25827D01*
Y27139D01*
X47032Y27795D01*
X48344D01*
X49000Y27139D01*
X46376Y21235D02*
Y23203D01*
X47032Y23859D01*
X48344D01*
X49000Y23203D01*
Y21235D01*
Y19924D02*
X48344D01*
Y19267D01*
X49000D01*
Y19924D01*
X46376Y14020D02*
Y15988D01*
X47032Y16644D01*
X48344D01*
X49000Y15988D01*
Y14020D01*
Y12052D02*
Y10740D01*
X48344Y10084D01*
X47032D01*
X46376Y10740D01*
Y12052D01*
X47032Y12708D01*
X48344D01*
X49000Y12052D01*
Y8772D02*
X46376D01*
Y8116D01*
X47032Y7460D01*
X49000D01*
X47032D01*
X46376Y6804D01*
X47032Y6148D01*
X49000D01*
X112200Y165500D02*
Y168124D01*
X110888Y169436D01*
X109576Y168124D01*
Y165500D01*
Y167468D01*
X112200D01*
X108264Y165500D02*
X105640Y168124D01*
X104329Y169436D02*
Y166156D01*
X103673Y165500D01*
X102361D01*
X101705Y166156D01*
Y169436D01*
X94100Y169636D02*
Y165700D01*
X92132D01*
X91476Y166356D01*
Y167012D01*
X92132Y167668D01*
X94100D01*
X92132D01*
X91476Y168324D01*
Y168980D01*
X92132Y169636D01*
X94100D01*
X90164Y165700D02*
X87540Y168324D01*
X86229Y169636D02*
Y167012D01*
X84917Y165700D01*
X83605Y167012D01*
Y169636D01*
X53020Y71900D02*
X52364Y71244D01*
Y69932D01*
X53020Y69276D01*
X55644D01*
X56300Y69932D01*
Y71244D01*
X55644Y71900D01*
X53020D01*
Y67964D02*
X52364Y67308D01*
Y65996D01*
X53020Y65340D01*
X53676D01*
X54332Y65996D01*
Y66652D01*
Y65996D01*
X54988Y65340D01*
X55644D01*
X56300Y65996D01*
Y67308D01*
X55644Y67964D01*
X56300Y64029D02*
X53676Y61405D01*
X56300Y57469D02*
Y60093D01*
X53676Y57469D01*
X53020D01*
X52364Y58125D01*
Y59437D01*
X53020Y60093D01*
Y56157D02*
X52364Y55501D01*
Y54189D01*
X53020Y53533D01*
X55644D01*
X56300Y54189D01*
Y55501D01*
X55644Y56157D01*
X53020D01*
X56300Y49597D02*
Y52221D01*
X53676Y49597D01*
X53020D01*
X52364Y50253D01*
Y51565D01*
X53020Y52221D01*
X56300Y48286D02*
Y46974D01*
Y47630D01*
X52364D01*
X53020Y48286D01*
X214464Y27500D02*
Y26188D01*
Y26844D01*
X218400D01*
Y27500D01*
Y26188D01*
X215120Y21596D02*
X214464Y22252D01*
Y23564D01*
X215120Y24220D01*
X215776D01*
X216432Y23564D01*
Y22252D01*
X217088Y21596D01*
X217744D01*
X218400Y22252D01*
Y23564D01*
X217744Y24220D01*
X218400Y20285D02*
Y18973D01*
Y19628D01*
X214464D01*
X215120Y20285D01*
X204820Y24676D02*
X204164Y25332D01*
Y26644D01*
X204820Y27300D01*
X207444D01*
X208100Y26644D01*
Y25332D01*
X207444Y24676D01*
X208100Y23364D02*
X205476Y20740D01*
X204820Y19429D02*
X204164Y18773D01*
Y17461D01*
X204820Y16805D01*
X205476D01*
X206132Y17461D01*
Y18117D01*
Y17461D01*
X206788Y16805D01*
X207444D01*
X208100Y17461D01*
Y18773D01*
X207444Y19429D01*
X198000Y27200D02*
X195376D01*
X194064Y25888D01*
X195376Y24576D01*
X198000D01*
X196032D01*
Y27200D01*
X198000Y23264D02*
X195376Y20640D01*
X198000Y19329D02*
Y18017D01*
Y18673D01*
X194064D01*
X194720Y19329D01*
X148064Y182000D02*
Y180688D01*
Y181344D01*
X152000D01*
Y182000D01*
Y180688D01*
Y178720D02*
X148064D01*
X152000Y176096D01*
X148064D01*
X152000Y174785D02*
Y173473D01*
Y174128D01*
X148064D01*
X148720Y174785D01*
X157564Y187000D02*
Y185688D01*
Y186344D01*
X161500D01*
Y187000D01*
Y185688D01*
Y183720D02*
X157564D01*
X161500Y181096D01*
X157564D01*
Y179785D02*
X161500D01*
X159532D01*
Y177161D01*
X157564D01*
X161500D01*
Y175849D02*
Y174537D01*
Y175193D01*
X157564D01*
X158220Y175849D01*
X172564Y187000D02*
Y185688D01*
Y186344D01*
X176500D01*
Y187000D01*
Y185688D01*
Y183720D02*
X172564D01*
X176500Y181096D01*
X172564D01*
Y179785D02*
X176500D01*
X174532D01*
Y177161D01*
X172564D01*
X176500D01*
Y173225D02*
Y175849D01*
X173876Y173225D01*
X173220D01*
X172564Y173881D01*
Y175193D01*
X173220Y175849D01*
X184064Y183500D02*
Y182188D01*
Y182844D01*
X188000D01*
Y183500D01*
Y182188D01*
Y180220D02*
X184064D01*
X188000Y177596D01*
X184064D01*
X188000Y173661D02*
Y176285D01*
X185376Y173661D01*
X184720D01*
X184064Y174317D01*
Y175628D01*
X184720Y176285D01*
X195064Y188000D02*
Y186688D01*
Y187344D01*
X199000D01*
Y188000D01*
Y186688D01*
Y184720D02*
X195064D01*
X199000Y182096D01*
X195064D01*
X195720Y180784D02*
X195064Y180129D01*
Y178817D01*
X195720Y178161D01*
X196376D01*
X197032Y178817D01*
Y179473D01*
Y178817D01*
X197688Y178161D01*
X198344D01*
X199000Y178817D01*
Y180129D01*
X198344Y180784D01*
X204564Y188000D02*
Y186688D01*
Y187344D01*
X208500D01*
Y188000D01*
Y186688D01*
Y184720D02*
X204564D01*
X208500Y182096D01*
X204564D01*
Y180784D02*
X208500D01*
X206532D01*
Y178161D01*
X204564D01*
X208500D01*
X205220Y176849D02*
X204564Y176193D01*
Y174881D01*
X205220Y174225D01*
X205876D01*
X206532Y174881D01*
Y175537D01*
Y174881D01*
X207188Y174225D01*
X207844D01*
X208500Y174881D01*
Y176193D01*
X207844Y176849D01*
M02*
