G04*
G04 #@! TF.GenerationSoftware,Altium Limited,Altium Designer,18.0.7 (293)*
G04*
G04 Layer_Physical_Order=2*
G04 Layer_Color=16711680*
%FSLAX25Y25*%
%MOIN*%
G70*
G01*
G75*
%ADD10C,0.01000*%
%ADD26C,0.15748*%
%ADD27R,0.05906X0.05906*%
%ADD28C,0.05906*%
%ADD29C,0.03150*%
G36*
X251016Y206374D02*
X255516Y201874D01*
Y156874D01*
X255016Y156374D01*
X267516Y143874D01*
X268016D01*
Y20874D01*
X256516Y9374D01*
Y7874D01*
X250516Y1874D01*
X64516D01*
X60516Y5874D01*
Y7874D01*
X60016Y8374D01*
Y199874D01*
X60516D01*
X67016Y206374D01*
X251016Y206374D01*
D02*
G37*
%LPC*%
G36*
X246063Y202011D02*
X244778Y201842D01*
X243581Y201346D01*
X242553Y200557D01*
X241764Y199529D01*
X241320Y198456D01*
X241319Y198455D01*
X240807D01*
X240806Y198456D01*
X240362Y199529D01*
X239573Y200557D01*
X238545Y201346D01*
X237348Y201842D01*
X236063Y202011D01*
X234778Y201842D01*
X233581Y201346D01*
X232553Y200557D01*
X231764Y199529D01*
X231320Y198456D01*
X231319Y198455D01*
X230807D01*
X230806Y198456D01*
X230362Y199529D01*
X229573Y200557D01*
X228545Y201346D01*
X227348Y201842D01*
X226063Y202011D01*
X224778Y201842D01*
X223581Y201346D01*
X222553Y200557D01*
X221764Y199529D01*
X221320Y198456D01*
X221319Y198455D01*
X220807D01*
X220806Y198456D01*
X220362Y199529D01*
X219573Y200557D01*
X218545Y201346D01*
X217348Y201842D01*
X216063Y202011D01*
X214778Y201842D01*
X213581Y201346D01*
X212553Y200557D01*
X211764Y199529D01*
X211320Y198456D01*
X211319Y198455D01*
X210807D01*
X210806Y198456D01*
X210362Y199529D01*
X209573Y200557D01*
X208545Y201346D01*
X207348Y201842D01*
X206063Y202011D01*
X204778Y201842D01*
X203581Y201346D01*
X202553Y200557D01*
X201764Y199529D01*
X201320Y198456D01*
X201319Y198455D01*
X200807D01*
X200806Y198456D01*
X200362Y199529D01*
X199573Y200557D01*
X198545Y201346D01*
X197348Y201842D01*
X196063Y202011D01*
X194778Y201842D01*
X193581Y201346D01*
X192553Y200557D01*
X191764Y199529D01*
X191320Y198456D01*
X191319Y198455D01*
X190807D01*
X190806Y198456D01*
X190362Y199529D01*
X189573Y200557D01*
X188545Y201346D01*
X187348Y201842D01*
X186063Y202011D01*
X184778Y201842D01*
X183581Y201346D01*
X182553Y200557D01*
X181764Y199529D01*
X181484Y198853D01*
X180984Y198952D01*
Y201969D01*
X171142D01*
Y192126D01*
X180984D01*
Y195142D01*
X181484Y195241D01*
X181764Y194565D01*
X182553Y193537D01*
X183581Y192748D01*
X184389Y192414D01*
X184386Y191874D01*
X183713Y191595D01*
X182973Y191027D01*
X182405Y190287D01*
X182048Y189425D01*
X181926Y188500D01*
X181928Y188487D01*
X174958Y181517D01*
X166229D01*
X166038Y181979D01*
X167487Y183428D01*
X167500Y183426D01*
X168425Y183548D01*
X169287Y183905D01*
X170027Y184473D01*
X170595Y185213D01*
X170952Y186075D01*
X171074Y187000D01*
X170952Y187925D01*
X170595Y188787D01*
X170027Y189527D01*
X169287Y190095D01*
X168425Y190452D01*
X167500Y190574D01*
X166575Y190452D01*
X165713Y190095D01*
X164973Y189527D01*
X164405Y188787D01*
X164048Y187925D01*
X163926Y187000D01*
X163928Y186987D01*
X160958Y184017D01*
X152182D01*
X152131Y184167D01*
X152061Y184517D01*
X152595Y185213D01*
X152952Y186075D01*
X153074Y187000D01*
X152952Y187925D01*
X152595Y188787D01*
X152027Y189527D01*
X151287Y190095D01*
X150425Y190452D01*
X149500Y190574D01*
X148575Y190452D01*
X147713Y190095D01*
X146973Y189527D01*
X146965Y189517D01*
X133500D01*
X132537Y189325D01*
X131720Y188780D01*
X130458Y187517D01*
X129985Y187678D01*
X129952Y187925D01*
X129595Y188787D01*
X129027Y189527D01*
X128287Y190095D01*
X127425Y190452D01*
X126500Y190574D01*
X125575Y190452D01*
X124713Y190095D01*
X123973Y189527D01*
X123869Y189391D01*
X123537Y189325D01*
X122720Y188780D01*
X105720Y171780D01*
X105175Y170963D01*
X104983Y170000D01*
Y58500D01*
X105175Y57537D01*
X105720Y56720D01*
X125220Y37220D01*
X126037Y36675D01*
X127000Y36483D01*
X165465D01*
X165473Y36473D01*
X166213Y35905D01*
X167075Y35548D01*
X168000Y35426D01*
X168925Y35548D01*
X169787Y35905D01*
X170527Y36473D01*
X171095Y37213D01*
X171452Y38075D01*
X171574Y39000D01*
X171452Y39925D01*
X171095Y40787D01*
X170527Y41527D01*
X169787Y42095D01*
X168963Y42437D01*
X168884Y42646D01*
X168864Y42964D01*
X169527Y43473D01*
X170095Y44213D01*
X170452Y45075D01*
X170574Y46000D01*
X170452Y46925D01*
X170095Y47787D01*
X169527Y48527D01*
X168787Y49095D01*
X167925Y49452D01*
X167000Y49574D01*
X166075Y49452D01*
X165213Y49095D01*
X164473Y48527D01*
X164465Y48517D01*
X127042D01*
X114017Y61542D01*
Y97771D01*
X114479Y97962D01*
X120870Y91571D01*
X121686Y91025D01*
X122650Y90833D01*
X185465D01*
X185473Y90823D01*
X186213Y90255D01*
X186789Y90017D01*
X186689Y89517D01*
X122172D01*
X121208Y89325D01*
X120392Y88780D01*
X116720Y85108D01*
X116175Y84292D01*
X115983Y83328D01*
Y64172D01*
X116175Y63208D01*
X116720Y62392D01*
X127392Y51720D01*
X128208Y51175D01*
X129172Y50983D01*
X180457D01*
X191928Y39513D01*
X191926Y39500D01*
X192048Y38575D01*
X192405Y37713D01*
X192973Y36973D01*
X193713Y36405D01*
X194575Y36048D01*
X195500Y35926D01*
X196425Y36048D01*
X197287Y36405D01*
X198027Y36973D01*
X198595Y37713D01*
X198952Y38575D01*
X199074Y39500D01*
X198952Y40425D01*
X198595Y41287D01*
X198027Y42027D01*
X197287Y42595D01*
X196425Y42952D01*
X195500Y43074D01*
X195487Y43072D01*
X195122Y43438D01*
X195301Y43966D01*
X195925Y44048D01*
X196787Y44405D01*
X197527Y44973D01*
X198095Y45713D01*
X198452Y46575D01*
X198574Y47500D01*
X198452Y48425D01*
X198095Y49287D01*
X197527Y50027D01*
X196787Y50595D01*
X195925Y50952D01*
X195000Y51074D01*
X194987Y51072D01*
X188780Y57280D01*
X187963Y57825D01*
X187000Y58017D01*
X131043D01*
X123017Y66043D01*
Y81458D01*
X124042Y82483D01*
X193000D01*
X193963Y82675D01*
X194780Y83220D01*
X200780Y89220D01*
X201325Y90037D01*
X201517Y91000D01*
Y95465D01*
X201527Y95473D01*
X202095Y96213D01*
X202452Y97075D01*
X202574Y98000D01*
X202452Y98925D01*
X202095Y99787D01*
X201527Y100527D01*
X200787Y101095D01*
X199925Y101452D01*
X199000Y101574D01*
X198075Y101452D01*
X197213Y101095D01*
X196473Y100527D01*
X196017Y99933D01*
X195711Y99974D01*
X195503Y100071D01*
X195325Y100963D01*
X194780Y101780D01*
X192280Y104280D01*
X191463Y104825D01*
X190500Y105017D01*
X122543D01*
X122017Y105543D01*
Y135958D01*
X123542Y137483D01*
X176500D01*
X177463Y137675D01*
X178280Y138220D01*
X183780Y143720D01*
X184325Y144537D01*
X184517Y145500D01*
Y152465D01*
X184527Y152473D01*
X185095Y153213D01*
X185452Y154075D01*
X185574Y155000D01*
X185452Y155925D01*
X185095Y156787D01*
X184527Y157527D01*
X183787Y158095D01*
X182925Y158452D01*
X182000Y158574D01*
X181075Y158452D01*
X180213Y158095D01*
X179473Y157527D01*
X178905Y156787D01*
X178548Y155925D01*
X178426Y155000D01*
X178548Y154075D01*
X178905Y153213D01*
X179473Y152473D01*
X179483Y152465D01*
Y146543D01*
X175458Y142517D01*
X122500D01*
X121537Y142325D01*
X120720Y141780D01*
X118979Y140038D01*
X118517Y140229D01*
Y159958D01*
X135043Y176483D01*
X148270D01*
X148462Y176021D01*
X144220Y171780D01*
X143675Y170963D01*
X143483Y170000D01*
Y150000D01*
X143675Y149037D01*
X144220Y148220D01*
X147220Y145220D01*
X148037Y144675D01*
X149000Y144483D01*
X164965D01*
X164973Y144473D01*
X165713Y143905D01*
X166575Y143548D01*
X167500Y143426D01*
X168425Y143548D01*
X169287Y143905D01*
X170027Y144473D01*
X170595Y145213D01*
X170952Y146075D01*
X171074Y147000D01*
X170952Y147925D01*
X170595Y148787D01*
X170301Y149170D01*
X170378Y149858D01*
X170527Y149973D01*
X171095Y150713D01*
X171452Y151575D01*
X171574Y152500D01*
X171452Y153425D01*
X171095Y154287D01*
X170527Y155027D01*
X169787Y155595D01*
X168925Y155952D01*
X168000Y156074D01*
X167075Y155952D01*
X166213Y155595D01*
X165473Y155027D01*
X165465Y155017D01*
X154543D01*
X152017Y157543D01*
Y167457D01*
X154526Y169966D01*
X211983D01*
X212946Y170158D01*
X213763Y170703D01*
X228043Y184983D01*
X233965D01*
X233973Y184973D01*
X234713Y184405D01*
X235575Y184048D01*
X236500Y183926D01*
X237425Y184048D01*
X238287Y184405D01*
X239027Y184973D01*
X239595Y185713D01*
X239952Y186575D01*
X240074Y187500D01*
X239952Y188425D01*
X239595Y189287D01*
X239027Y190027D01*
X238287Y190595D01*
X237425Y190952D01*
X236500Y191074D01*
X235575Y190952D01*
X234713Y190595D01*
X233973Y190027D01*
X233965Y190017D01*
X227000D01*
X226037Y189825D01*
X225220Y189280D01*
X210941Y175000D01*
X192713D01*
X192521Y175462D01*
X201043Y183983D01*
X211965D01*
X211973Y183973D01*
X212713Y183405D01*
X213575Y183048D01*
X214500Y182926D01*
X215425Y183048D01*
X216287Y183405D01*
X217027Y183973D01*
X217595Y184713D01*
X217952Y185575D01*
X218074Y186500D01*
X217952Y187425D01*
X217595Y188287D01*
X217027Y189027D01*
X216287Y189595D01*
X215425Y189952D01*
X214500Y190074D01*
X213575Y189952D01*
X212713Y189595D01*
X211973Y189027D01*
X211965Y189017D01*
X200000D01*
X199037Y188825D01*
X198220Y188280D01*
X187458Y177517D01*
X178729D01*
X178538Y177979D01*
X185487Y184928D01*
X185500Y184926D01*
X186425Y185048D01*
X187287Y185405D01*
X188027Y185973D01*
X188595Y186713D01*
X188952Y187575D01*
X189074Y188500D01*
X188952Y189425D01*
X188595Y190287D01*
X188027Y191027D01*
X187287Y191595D01*
X187021Y191705D01*
X187088Y192218D01*
X187348Y192253D01*
X188545Y192748D01*
X189573Y193537D01*
X190362Y194565D01*
X190806Y195639D01*
X190807Y195639D01*
X191319D01*
X191320Y195639D01*
X191764Y194565D01*
X192553Y193537D01*
X193581Y192748D01*
X194778Y192253D01*
X196063Y192084D01*
X197348Y192253D01*
X198545Y192748D01*
X199573Y193537D01*
X200362Y194565D01*
X200806Y195639D01*
X200807Y195639D01*
X201319D01*
X201320Y195639D01*
X201764Y194565D01*
X202553Y193537D01*
X203581Y192748D01*
X204778Y192253D01*
X206063Y192084D01*
X207348Y192253D01*
X208545Y192748D01*
X209573Y193537D01*
X210362Y194565D01*
X210806Y195639D01*
X210807Y195639D01*
X211319D01*
X211320Y195639D01*
X211764Y194565D01*
X212553Y193537D01*
X213581Y192748D01*
X214778Y192253D01*
X216063Y192084D01*
X217348Y192253D01*
X218545Y192748D01*
X219573Y193537D01*
X220362Y194565D01*
X220806Y195639D01*
X220807Y195639D01*
X221319D01*
X221320Y195639D01*
X221764Y194565D01*
X222553Y193537D01*
X223581Y192748D01*
X224778Y192253D01*
X226063Y192084D01*
X227348Y192253D01*
X228545Y192748D01*
X229573Y193537D01*
X230362Y194565D01*
X230806Y195639D01*
X230807Y195639D01*
X231319D01*
X231320Y195639D01*
X231764Y194565D01*
X232553Y193537D01*
X233581Y192748D01*
X234778Y192253D01*
X236063Y192084D01*
X237348Y192253D01*
X238545Y192748D01*
X239573Y193537D01*
X240362Y194565D01*
X240806Y195639D01*
X240807Y195639D01*
X241319D01*
X241320Y195639D01*
X241764Y194565D01*
X242553Y193537D01*
X243581Y192748D01*
X244778Y192253D01*
X246063Y192084D01*
X247348Y192253D01*
X248545Y192748D01*
X249573Y193537D01*
X250362Y194565D01*
X250858Y195763D01*
X251027Y197047D01*
X250858Y198332D01*
X250362Y199529D01*
X249573Y200557D01*
X248545Y201346D01*
X247348Y201842D01*
X246063Y202011D01*
D02*
G37*
G36*
X161063D02*
X159778Y201842D01*
X158581Y201346D01*
X157553Y200557D01*
X156764Y199529D01*
X156320Y198456D01*
X156319Y198455D01*
X155807D01*
X155806Y198456D01*
X155362Y199529D01*
X154573Y200557D01*
X153545Y201346D01*
X152348Y201842D01*
X151063Y202011D01*
X149778Y201842D01*
X148581Y201346D01*
X147553Y200557D01*
X146764Y199529D01*
X146320Y198456D01*
X146319Y198455D01*
X145807D01*
X145806Y198456D01*
X145362Y199529D01*
X144573Y200557D01*
X143545Y201346D01*
X142348Y201842D01*
X141063Y202011D01*
X139778Y201842D01*
X138581Y201346D01*
X137553Y200557D01*
X136764Y199529D01*
X136320Y198456D01*
X136319Y198455D01*
X135807D01*
X135806Y198456D01*
X135362Y199529D01*
X134573Y200557D01*
X133545Y201346D01*
X132348Y201842D01*
X131063Y202011D01*
X129778Y201842D01*
X128581Y201346D01*
X127553Y200557D01*
X126764Y199529D01*
X126320Y198456D01*
X126319Y198455D01*
X125807D01*
X125806Y198456D01*
X125362Y199529D01*
X124573Y200557D01*
X123545Y201346D01*
X122348Y201842D01*
X121063Y202011D01*
X119778Y201842D01*
X118581Y201346D01*
X117553Y200557D01*
X116764Y199529D01*
X116320Y198456D01*
X116319Y198455D01*
X115807D01*
X115806Y198456D01*
X115362Y199529D01*
X114573Y200557D01*
X113545Y201346D01*
X112348Y201842D01*
X111063Y202011D01*
X109778Y201842D01*
X108581Y201346D01*
X107553Y200557D01*
X106764Y199529D01*
X106268Y198332D01*
X106099Y197047D01*
X106268Y195763D01*
X106764Y194565D01*
X107553Y193537D01*
X108581Y192748D01*
X109778Y192253D01*
X111063Y192084D01*
X112348Y192253D01*
X113545Y192748D01*
X114573Y193537D01*
X115362Y194565D01*
X115806Y195639D01*
X115807Y195639D01*
X116319D01*
X116320Y195639D01*
X116764Y194565D01*
X117553Y193537D01*
X118581Y192748D01*
X119778Y192253D01*
X121063Y192084D01*
X122348Y192253D01*
X123545Y192748D01*
X124573Y193537D01*
X125362Y194565D01*
X125806Y195639D01*
X125807Y195639D01*
X126319D01*
X126320Y195639D01*
X126764Y194565D01*
X127553Y193537D01*
X128581Y192748D01*
X129778Y192253D01*
X131063Y192084D01*
X132348Y192253D01*
X133545Y192748D01*
X134573Y193537D01*
X135362Y194565D01*
X135806Y195639D01*
X135807Y195639D01*
X136319D01*
X136320Y195639D01*
X136764Y194565D01*
X137553Y193537D01*
X138581Y192748D01*
X139778Y192253D01*
X141063Y192084D01*
X142348Y192253D01*
X143545Y192748D01*
X144573Y193537D01*
X145362Y194565D01*
X145806Y195639D01*
X145807Y195639D01*
X146319D01*
X146320Y195639D01*
X146764Y194565D01*
X147553Y193537D01*
X148581Y192748D01*
X149778Y192253D01*
X151063Y192084D01*
X152348Y192253D01*
X153545Y192748D01*
X154573Y193537D01*
X155362Y194565D01*
X155806Y195639D01*
X155807Y195639D01*
X156319D01*
X156320Y195639D01*
X156764Y194565D01*
X157553Y193537D01*
X158581Y192748D01*
X159778Y192253D01*
X161063Y192084D01*
X162348Y192253D01*
X163545Y192748D01*
X164573Y193537D01*
X165362Y194565D01*
X165858Y195763D01*
X166027Y197047D01*
X165858Y198332D01*
X165362Y199529D01*
X164573Y200557D01*
X163545Y201346D01*
X162348Y201842D01*
X161063Y202011D01*
D02*
G37*
G36*
X91063D02*
X89778Y201842D01*
X88581Y201346D01*
X87553Y200557D01*
X86764Y199529D01*
X86320Y198456D01*
X86319Y198455D01*
X85807D01*
X85806Y198456D01*
X85362Y199529D01*
X84573Y200557D01*
X83545Y201346D01*
X82348Y201842D01*
X81063Y202011D01*
X79778Y201842D01*
X78581Y201346D01*
X77553Y200557D01*
X76764Y199529D01*
X76484Y198853D01*
X75984Y198952D01*
Y201969D01*
X66142D01*
Y192126D01*
X75984D01*
Y195142D01*
X76484Y195241D01*
X76764Y194565D01*
X77553Y193537D01*
X78581Y192748D01*
X79778Y192253D01*
X81063Y192084D01*
X82348Y192253D01*
X83545Y192748D01*
X84573Y193537D01*
X85362Y194565D01*
X85806Y195639D01*
X85807Y195639D01*
X86319D01*
X86320Y195639D01*
X86764Y194565D01*
X87553Y193537D01*
X88581Y192748D01*
X89778Y192253D01*
X91063Y192084D01*
X92348Y192253D01*
X93545Y192748D01*
X94573Y193537D01*
X95362Y194565D01*
X95858Y195763D01*
X96027Y197047D01*
X95858Y198332D01*
X95362Y199529D01*
X94573Y200557D01*
X93545Y201346D01*
X92348Y201842D01*
X91063Y202011D01*
D02*
G37*
G36*
X255500Y100575D02*
X253571Y100385D01*
X251715Y99822D01*
X250005Y98908D01*
X248507Y97678D01*
X247277Y96180D01*
X246363Y94470D01*
X245800Y92615D01*
X245610Y90685D01*
X245800Y88756D01*
X246363Y86900D01*
X247277Y85190D01*
X248507Y83692D01*
X250005Y82462D01*
X251715Y81548D01*
X253571Y80985D01*
X255500Y80795D01*
X257430Y80985D01*
X259285Y81548D01*
X260995Y82462D01*
X262493Y83692D01*
X263723Y85190D01*
X264637Y86900D01*
X265200Y88756D01*
X265390Y90685D01*
X265200Y92615D01*
X264637Y94470D01*
X263723Y96180D01*
X262493Y97678D01*
X260995Y98908D01*
X259285Y99822D01*
X257430Y100385D01*
X255500Y100575D01*
D02*
G37*
G36*
X72835Y133906D02*
X70905Y133716D01*
X69050Y133153D01*
X67340Y132239D01*
X65841Y131009D01*
X64611Y129510D01*
X63697Y127801D01*
X63135Y125945D01*
X62945Y124016D01*
X63135Y122086D01*
X63697Y120231D01*
X64611Y118521D01*
X65841Y117022D01*
X67340Y115792D01*
X69050Y114878D01*
X70513Y114435D01*
Y113912D01*
X69050Y113468D01*
X67340Y112554D01*
X65841Y111324D01*
X64611Y109825D01*
X63697Y108115D01*
X63135Y106260D01*
X62945Y104331D01*
X63135Y102401D01*
X63697Y100546D01*
X64611Y98836D01*
X65841Y97337D01*
X67340Y96107D01*
X69050Y95193D01*
X70513Y94749D01*
Y94227D01*
X69050Y93783D01*
X67340Y92869D01*
X65841Y91639D01*
X64611Y90140D01*
X63697Y88431D01*
X63135Y86575D01*
X62945Y84646D01*
X63135Y82716D01*
X63697Y80861D01*
X64611Y79151D01*
X65841Y77652D01*
X67340Y76422D01*
X69050Y75508D01*
X70905Y74946D01*
X72835Y74756D01*
X74764Y74946D01*
X76619Y75508D01*
X78329Y76422D01*
X79828Y77652D01*
X81058Y79151D01*
X81972Y80861D01*
X82535Y82716D01*
X82725Y84646D01*
X82535Y86575D01*
X81972Y88431D01*
X81058Y90140D01*
X79828Y91639D01*
X78329Y92869D01*
X76619Y93783D01*
X75156Y94227D01*
Y94749D01*
X76619Y95193D01*
X78329Y96107D01*
X79828Y97337D01*
X81058Y98836D01*
X81972Y100546D01*
X82535Y102401D01*
X82725Y104331D01*
X82535Y106260D01*
X81972Y108115D01*
X81058Y109825D01*
X79828Y111324D01*
X78329Y112554D01*
X76619Y113468D01*
X75156Y113912D01*
Y114435D01*
X76619Y114878D01*
X78329Y115792D01*
X79828Y117022D01*
X81058Y118521D01*
X81972Y120231D01*
X82535Y122086D01*
X82725Y124016D01*
X82535Y125945D01*
X81972Y127801D01*
X81058Y129510D01*
X79828Y131009D01*
X78329Y132239D01*
X76619Y133153D01*
X74764Y133716D01*
X72835Y133906D01*
D02*
G37*
G36*
X246063Y14964D02*
X244778Y14795D01*
X243581Y14299D01*
X242553Y13510D01*
X241764Y12482D01*
X241320Y11408D01*
X241319Y11408D01*
X240807D01*
X240806Y11408D01*
X240362Y12482D01*
X239573Y13510D01*
X238545Y14299D01*
X237348Y14795D01*
X236063Y14964D01*
X234778Y14795D01*
X233581Y14299D01*
X232553Y13510D01*
X231764Y12482D01*
X231320Y11408D01*
X231319Y11408D01*
X230807D01*
X230806Y11408D01*
X230362Y12482D01*
X229573Y13510D01*
X228545Y14299D01*
X227348Y14795D01*
X226063Y14964D01*
X224778Y14795D01*
X223581Y14299D01*
X222553Y13510D01*
X221764Y12482D01*
X221320Y11408D01*
X221319Y11408D01*
X220807D01*
X220806Y11408D01*
X220362Y12482D01*
X219573Y13510D01*
X218545Y14299D01*
X217348Y14795D01*
X216063Y14964D01*
X214778Y14795D01*
X213581Y14299D01*
X212553Y13510D01*
X211764Y12482D01*
X211320Y11408D01*
X211319Y11408D01*
X210807D01*
X210806Y11408D01*
X210362Y12482D01*
X209573Y13510D01*
X208545Y14299D01*
X207348Y14795D01*
X206063Y14964D01*
X204778Y14795D01*
X203581Y14299D01*
X202553Y13510D01*
X201764Y12482D01*
X201484Y11806D01*
X200984Y11905D01*
Y14921D01*
X191142D01*
Y5079D01*
X200984D01*
Y8095D01*
X201484Y8194D01*
X201764Y7518D01*
X202553Y6490D01*
X203581Y5701D01*
X204778Y5205D01*
X206063Y5036D01*
X207348Y5205D01*
X208545Y5701D01*
X209573Y6490D01*
X210362Y7518D01*
X210806Y8592D01*
X210807Y8592D01*
X211319D01*
X211320Y8592D01*
X211764Y7518D01*
X212553Y6490D01*
X213581Y5701D01*
X214778Y5205D01*
X216063Y5036D01*
X217348Y5205D01*
X218545Y5701D01*
X219573Y6490D01*
X220362Y7518D01*
X220806Y8592D01*
X220807Y8592D01*
X221319D01*
X221320Y8592D01*
X221764Y7518D01*
X222553Y6490D01*
X223581Y5701D01*
X224778Y5205D01*
X226063Y5036D01*
X227348Y5205D01*
X228545Y5701D01*
X229573Y6490D01*
X230362Y7518D01*
X230806Y8592D01*
X230807Y8592D01*
X231319D01*
X231320Y8592D01*
X231764Y7518D01*
X232553Y6490D01*
X233581Y5701D01*
X234778Y5205D01*
X236063Y5036D01*
X237348Y5205D01*
X238545Y5701D01*
X239573Y6490D01*
X240362Y7518D01*
X240806Y8592D01*
X240807Y8592D01*
X241319D01*
X241320Y8592D01*
X241764Y7518D01*
X242553Y6490D01*
X243581Y5701D01*
X244778Y5205D01*
X246063Y5036D01*
X247348Y5205D01*
X248545Y5701D01*
X249573Y6490D01*
X250362Y7518D01*
X250858Y8715D01*
X251027Y10000D01*
X250858Y11285D01*
X250362Y12482D01*
X249573Y13510D01*
X248545Y14299D01*
X247348Y14795D01*
X246063Y14964D01*
D02*
G37*
G36*
X145984Y14464D02*
X144700Y14295D01*
X143502Y13799D01*
X142474Y13010D01*
X141685Y11982D01*
X141241Y10908D01*
X141240Y10908D01*
X140728D01*
X140728Y10908D01*
X140283Y11982D01*
X139494Y13010D01*
X138466Y13799D01*
X137269Y14295D01*
X135984Y14464D01*
X134699Y14295D01*
X133502Y13799D01*
X132474Y13010D01*
X131685Y11982D01*
X131241Y10908D01*
X131240Y10908D01*
X130728D01*
X130728Y10908D01*
X130283Y11982D01*
X129494Y13010D01*
X128466Y13799D01*
X127269Y14295D01*
X125984Y14464D01*
X124699Y14295D01*
X123502Y13799D01*
X122474Y13010D01*
X121686Y11982D01*
X121241Y10908D01*
X121240Y10908D01*
X120728D01*
X120728Y10908D01*
X120283Y11982D01*
X119494Y13010D01*
X118466Y13799D01*
X117269Y14295D01*
X115984Y14464D01*
X114699Y14295D01*
X113502Y13799D01*
X112474Y13010D01*
X111686Y11982D01*
X111405Y11306D01*
X110905Y11405D01*
Y14421D01*
X101063D01*
Y4579D01*
X110905D01*
Y7595D01*
X111405Y7694D01*
X111686Y7018D01*
X112474Y5990D01*
X113502Y5201D01*
X114699Y4705D01*
X115984Y4536D01*
X117269Y4705D01*
X118466Y5201D01*
X119494Y5990D01*
X120283Y7018D01*
X120728Y8092D01*
X120728Y8092D01*
X121240D01*
X121241Y8092D01*
X121686Y7018D01*
X122474Y5990D01*
X123502Y5201D01*
X124699Y4705D01*
X125984Y4536D01*
X127269Y4705D01*
X128466Y5201D01*
X129494Y5990D01*
X130283Y7018D01*
X130728Y8092D01*
X130728Y8092D01*
X131240D01*
X131241Y8092D01*
X131685Y7018D01*
X132474Y5990D01*
X133502Y5201D01*
X134699Y4705D01*
X135984Y4536D01*
X137269Y4705D01*
X138466Y5201D01*
X139494Y5990D01*
X140283Y7018D01*
X140728Y8092D01*
X140728Y8092D01*
X141240D01*
X141241Y8092D01*
X141685Y7018D01*
X142474Y5990D01*
X143502Y5201D01*
X144700Y4705D01*
X145984Y4536D01*
X147269Y4705D01*
X148466Y5201D01*
X149494Y5990D01*
X150283Y7018D01*
X150779Y8215D01*
X150948Y9500D01*
X150779Y10785D01*
X150283Y11982D01*
X149494Y13010D01*
X148466Y13799D01*
X147269Y14295D01*
X145984Y14464D01*
D02*
G37*
G36*
X175984D02*
X174699Y14295D01*
X173502Y13799D01*
X172474Y13010D01*
X171686Y11982D01*
X171190Y10785D01*
X171020Y9500D01*
X171190Y8215D01*
X171686Y7018D01*
X172474Y5990D01*
X173502Y5201D01*
X174699Y4705D01*
X175984Y4536D01*
X177269Y4705D01*
X178466Y5201D01*
X179494Y5990D01*
X180283Y7018D01*
X180779Y8215D01*
X180948Y9500D01*
X180779Y10785D01*
X180283Y11982D01*
X179494Y13010D01*
X178466Y13799D01*
X177269Y14295D01*
X175984Y14464D01*
D02*
G37*
%LPD*%
G36*
X125575Y183548D02*
X125822Y183515D01*
X125983Y183042D01*
X110479Y167538D01*
X110017Y167729D01*
Y168957D01*
X124891Y183831D01*
X125575Y183548D01*
D02*
G37*
G36*
X164473Y43473D02*
X165213Y42905D01*
X166037Y42564D01*
X166116Y42354D01*
X166136Y42036D01*
X165473Y41527D01*
X165465Y41517D01*
X128042D01*
X126538Y43021D01*
X126730Y43483D01*
X164465D01*
X164473Y43473D01*
D02*
G37*
D10*
X114000Y102000D02*
X122650Y93350D01*
X149500Y156500D02*
X153500Y152500D01*
X149000Y147000D02*
X167500D01*
X146000Y150000D02*
X149000Y147000D01*
X153500Y152500D02*
X168000D01*
X122650Y93350D02*
X188000D01*
X111500Y60500D02*
X126000Y46000D01*
X167000D01*
X187000Y55500D02*
X195000Y47500D01*
X130000Y55500D02*
X187000D01*
X181500Y53500D02*
X195500Y39500D01*
X129172Y53500D02*
X181500D01*
X118500Y64172D02*
X129172Y53500D01*
X118500Y64172D02*
Y83328D01*
X122172Y87000D01*
X190500D01*
X193000Y89500D01*
Y100000D01*
X190500Y102500D02*
X193000Y100000D01*
X121500Y102500D02*
X190500D01*
X119500Y104500D02*
X121500Y102500D01*
X119500Y104500D02*
Y137000D01*
X122500Y140000D01*
X176500D01*
X182000Y145500D01*
Y155000D01*
X120500Y65000D02*
X130000Y55500D01*
X120500Y65000D02*
Y82500D01*
X123000Y85000D01*
X193000D01*
X199000Y91000D01*
Y98000D01*
X116000Y161000D02*
X134000Y179000D01*
X116000Y103500D02*
Y161000D01*
Y103500D02*
X121075Y98425D01*
X114000Y102000D02*
Y163500D01*
X121075Y98425D02*
X188075D01*
X107500Y58500D02*
X127000Y39000D01*
X107500Y58500D02*
Y170000D01*
X127000Y39000D02*
X168000D01*
X227000Y187500D02*
X236500D01*
X211983Y172483D02*
X227000Y187500D01*
X153483Y172483D02*
X211983D01*
X149500Y168500D02*
X153483Y172483D01*
X149500Y156500D02*
Y168500D01*
X200000Y186500D02*
X214500D01*
X188500Y175000D02*
X200000Y186500D01*
X151000Y175000D02*
X188500D01*
X146000Y170000D02*
X151000Y175000D01*
X146000Y150000D02*
Y170000D01*
X176000Y179000D02*
X185500Y188500D01*
X134000Y179000D02*
X176000D01*
X114000Y163500D02*
X132000Y181500D01*
X162000D01*
X111500Y165000D02*
X133500Y187000D01*
X111500Y60500D02*
Y165000D01*
X133500Y187000D02*
X149500D01*
X162000Y181500D02*
X167500Y187000D01*
X107500Y170000D02*
X124500Y187000D01*
X126500D01*
D26*
X255500Y90685D02*
D03*
Y71000D02*
D03*
X72835Y124016D02*
D03*
Y104331D02*
D03*
Y84646D02*
D03*
D27*
X105984Y9500D02*
D03*
X196063Y10000D02*
D03*
X71063Y197047D02*
D03*
X176063D02*
D03*
D28*
X115984Y9500D02*
D03*
X125984D02*
D03*
X135984D02*
D03*
X145984D02*
D03*
X155984D02*
D03*
X165984D02*
D03*
X175984D02*
D03*
X206063Y10000D02*
D03*
X216063D02*
D03*
X226063D02*
D03*
X236063D02*
D03*
X246063D02*
D03*
X91063Y197047D02*
D03*
X161063D02*
D03*
X151063D02*
D03*
X141063D02*
D03*
X131063D02*
D03*
X121063D02*
D03*
X111063D02*
D03*
X101063D02*
D03*
X81063D02*
D03*
X186063D02*
D03*
X196063D02*
D03*
X206063D02*
D03*
X216063D02*
D03*
X226063D02*
D03*
X236063D02*
D03*
X246063D02*
D03*
D29*
X249000Y25000D02*
D03*
X234000Y38000D02*
D03*
X167500Y147000D02*
D03*
X168000Y152500D02*
D03*
X188000Y93350D02*
D03*
X167000Y46000D02*
D03*
X73000Y17500D02*
D03*
Y175000D02*
D03*
X234000Y52000D02*
D03*
X249000Y42000D02*
D03*
X211500Y89500D02*
D03*
Y101000D02*
D03*
X192000Y140500D02*
D03*
X193000Y153000D02*
D03*
X195000Y47500D02*
D03*
X195500Y39500D02*
D03*
X168000Y39000D02*
D03*
X236500Y187500D02*
D03*
X183500Y78000D02*
D03*
X168500D02*
D03*
X173000D02*
D03*
X246000Y171000D02*
D03*
X248500Y144500D02*
D03*
X237500Y142000D02*
D03*
X238000Y174500D02*
D03*
X163000Y25500D02*
D03*
X157500Y25591D02*
D03*
X152000D02*
D03*
X147000Y25500D02*
D03*
X142000Y25591D02*
D03*
X158000Y131783D02*
D03*
X153500D02*
D03*
X149000D02*
D03*
X144000D02*
D03*
X139500D02*
D03*
X178000Y78000D02*
D03*
X163500D02*
D03*
X167500Y187000D02*
D03*
X185500Y188500D02*
D03*
X214500Y186500D02*
D03*
X126500Y187000D02*
D03*
X149500D02*
D03*
X182000Y155000D02*
D03*
X188075Y98425D02*
D03*
X199000Y98000D02*
D03*
M02*
