G04*
G04 #@! TF.GenerationSoftware,Altium Limited,Altium Designer,18.0.7 (293)*
G04*
G04 Layer_Color=8388736*
%FSLAX25Y25*%
%MOIN*%
G70*
G01*
G75*
%ADD17R,0.18910X0.03950*%
%ADD18R,0.37808X0.43320*%
%ADD19R,0.03556X0.04343*%
%ADD20R,0.18517X0.08674*%
%ADD21R,0.03950X0.04343*%
%ADD22C,0.16548*%
%ADD23R,0.06706X0.06706*%
%ADD24C,0.06706*%
%ADD25C,0.03950*%
D17*
X154134Y172480D02*
D03*
Y167480D02*
D03*
Y162480D02*
D03*
Y157480D02*
D03*
Y152480D02*
D03*
Y147480D02*
D03*
X154331Y142480D02*
D03*
X173819Y119331D02*
D03*
Y114331D02*
D03*
Y109331D02*
D03*
Y104331D02*
D03*
Y99331D02*
D03*
Y94331D02*
D03*
X174016Y89331D02*
D03*
X154134Y66181D02*
D03*
Y61181D02*
D03*
Y56181D02*
D03*
Y51181D02*
D03*
Y46181D02*
D03*
Y41181D02*
D03*
X154331Y36181D02*
D03*
D18*
X118110Y157480D02*
D03*
X137795Y104331D02*
D03*
X118110Y51181D02*
D03*
D19*
X184055Y140500D02*
D03*
X178150D02*
D03*
X203953Y85500D02*
D03*
X198047D02*
D03*
X184055Y35500D02*
D03*
X178150D02*
D03*
X184953Y160500D02*
D03*
X179047D02*
D03*
X204953Y105000D02*
D03*
X199047D02*
D03*
X184055Y52000D02*
D03*
X178150D02*
D03*
X223547Y187008D02*
D03*
X229453D02*
D03*
X209453Y187008D02*
D03*
X203547D02*
D03*
X174047Y187008D02*
D03*
X179953D02*
D03*
X197953Y187008D02*
D03*
X192047D02*
D03*
X160953D02*
D03*
X155047D02*
D03*
X137953D02*
D03*
X132047D02*
D03*
D20*
X245433Y156500D02*
D03*
X210000D02*
D03*
D21*
X183858Y146500D02*
D03*
X178347D02*
D03*
X203543Y91000D02*
D03*
X198031D02*
D03*
X183858Y41500D02*
D03*
X178347D02*
D03*
X182756Y166000D02*
D03*
X177244D02*
D03*
X203543Y111500D02*
D03*
X198031D02*
D03*
X183858Y58500D02*
D03*
X178347D02*
D03*
D22*
X255500Y90685D02*
D03*
Y71000D02*
D03*
X72835Y124016D02*
D03*
Y104331D02*
D03*
Y84646D02*
D03*
D23*
X105984Y9500D02*
D03*
X196063Y10000D02*
D03*
X71063Y197047D02*
D03*
X176063D02*
D03*
D24*
X115984Y9500D02*
D03*
X125984D02*
D03*
X135984D02*
D03*
X145984D02*
D03*
X155984D02*
D03*
X165984D02*
D03*
X175984D02*
D03*
X206063Y10000D02*
D03*
X216063D02*
D03*
X226063D02*
D03*
X236063D02*
D03*
X246063D02*
D03*
X91063Y197047D02*
D03*
X161063D02*
D03*
X151063D02*
D03*
X141063D02*
D03*
X131063D02*
D03*
X121063D02*
D03*
X111063D02*
D03*
X101063D02*
D03*
X81063D02*
D03*
X186063D02*
D03*
X196063D02*
D03*
X206063D02*
D03*
X216063D02*
D03*
X226063D02*
D03*
X236063D02*
D03*
X246063D02*
D03*
D25*
X249000Y25000D02*
D03*
X234000Y38000D02*
D03*
X167500Y147000D02*
D03*
X168000Y152500D02*
D03*
X188000Y93350D02*
D03*
X167000Y46000D02*
D03*
X73000Y17500D02*
D03*
Y175000D02*
D03*
X234000Y52000D02*
D03*
X249000Y42000D02*
D03*
X211500Y89500D02*
D03*
Y101000D02*
D03*
X192000Y140500D02*
D03*
X193000Y153000D02*
D03*
X195000Y47500D02*
D03*
X195500Y39500D02*
D03*
X168000Y39000D02*
D03*
X236500Y187500D02*
D03*
X183500Y78000D02*
D03*
X168500D02*
D03*
X173000D02*
D03*
X246000Y171000D02*
D03*
X248500Y144500D02*
D03*
X237500Y142000D02*
D03*
X238000Y174500D02*
D03*
X163000Y25500D02*
D03*
X157500Y25591D02*
D03*
X152000D02*
D03*
X147000Y25500D02*
D03*
X142000Y25591D02*
D03*
X158000Y131783D02*
D03*
X153500D02*
D03*
X149000D02*
D03*
X144000D02*
D03*
X139500D02*
D03*
X178000Y78000D02*
D03*
X163500D02*
D03*
X167500Y187000D02*
D03*
X185500Y188500D02*
D03*
X214500Y186500D02*
D03*
X126500Y187000D02*
D03*
X149500D02*
D03*
X182000Y155000D02*
D03*
X188075Y98425D02*
D03*
X199000Y98000D02*
D03*
M02*
