G04*
G04 #@! TF.GenerationSoftware,Altium Limited,Altium Designer,18.0.7 (293)*
G04*
G04 Layer_Physical_Order=1*
G04 Layer_Color=255*
%FSLAX25Y25*%
%MOIN*%
G70*
G01*
G75*
%ADD10C,0.01000*%
%ADD12R,0.18110X0.03150*%
%ADD13R,0.37008X0.42520*%
%ADD14R,0.02756X0.03543*%
%ADD15R,0.17717X0.07874*%
%ADD16R,0.03150X0.03543*%
%ADD26C,0.15748*%
%ADD27R,0.05906X0.05906*%
%ADD28C,0.05906*%
%ADD29C,0.03150*%
G36*
X251016Y206374D02*
X255516Y201874D01*
Y156874D01*
X255016Y156374D01*
X267516Y143874D01*
X268016D01*
Y20874D01*
X256516Y9374D01*
Y7874D01*
X250516Y1874D01*
X64516D01*
X60516Y5874D01*
Y7874D01*
X60016Y8374D01*
Y199874D01*
X60516D01*
X67016Y206374D01*
X251016Y206374D01*
D02*
G37*
%LPC*%
G36*
X246063Y202011D02*
X244778Y201842D01*
X243581Y201346D01*
X242553Y200557D01*
X241764Y199529D01*
X241320Y198456D01*
X241319Y198455D01*
X240807D01*
X240806Y198456D01*
X240362Y199529D01*
X239573Y200557D01*
X238545Y201346D01*
X237348Y201842D01*
X236063Y202011D01*
X234778Y201842D01*
X233581Y201346D01*
X232553Y200557D01*
X231764Y199529D01*
X231320Y198456D01*
X231319Y198455D01*
X230807D01*
X230806Y198456D01*
X230362Y199529D01*
X229573Y200557D01*
X228545Y201346D01*
X227348Y201842D01*
X226063Y202011D01*
X224778Y201842D01*
X223581Y201346D01*
X222553Y200557D01*
X221764Y199529D01*
X221320Y198456D01*
X221319Y198455D01*
X220807D01*
X220806Y198456D01*
X220362Y199529D01*
X219573Y200557D01*
X218545Y201346D01*
X217348Y201842D01*
X216063Y202011D01*
X214778Y201842D01*
X213581Y201346D01*
X212553Y200557D01*
X211764Y199529D01*
X211320Y198456D01*
X211319Y198455D01*
X210807D01*
X210806Y198456D01*
X210362Y199529D01*
X209573Y200557D01*
X208545Y201346D01*
X207348Y201842D01*
X206063Y202011D01*
X204778Y201842D01*
X203581Y201346D01*
X202553Y200557D01*
X201764Y199529D01*
X201320Y198456D01*
X201319Y198455D01*
X200807D01*
X200806Y198456D01*
X200362Y199529D01*
X199573Y200557D01*
X198545Y201346D01*
X197348Y201842D01*
X196063Y202011D01*
X194778Y201842D01*
X193581Y201346D01*
X192553Y200557D01*
X191764Y199529D01*
X191320Y198456D01*
X191319Y198455D01*
X190807D01*
X190806Y198456D01*
X190362Y199529D01*
X189573Y200557D01*
X188545Y201346D01*
X187348Y201842D01*
X186063Y202011D01*
X184778Y201842D01*
X183581Y201346D01*
X182553Y200557D01*
X181764Y199529D01*
X181484Y198853D01*
X180984Y198952D01*
Y201969D01*
X171142D01*
Y192126D01*
X171603D01*
X171839Y191685D01*
X171722Y191510D01*
X171570Y190748D01*
X170701D01*
Y189471D01*
X170201Y189301D01*
X170027Y189527D01*
X169287Y190095D01*
X168425Y190452D01*
X167500Y190574D01*
X166575Y190452D01*
X165713Y190095D01*
X164973Y189527D01*
X164799Y189301D01*
X164299Y189471D01*
Y190748D01*
X163580D01*
Y192775D01*
X164573Y193537D01*
X165362Y194565D01*
X165858Y195763D01*
X166027Y197047D01*
X165858Y198332D01*
X165362Y199529D01*
X164573Y200557D01*
X163545Y201346D01*
X162348Y201842D01*
X161063Y202011D01*
X159778Y201842D01*
X158581Y201346D01*
X157553Y200557D01*
X156764Y199529D01*
X156320Y198456D01*
X156319Y198455D01*
X155807D01*
X155806Y198456D01*
X155362Y199529D01*
X154573Y200557D01*
X153545Y201346D01*
X152348Y201842D01*
X151063Y202011D01*
X149778Y201842D01*
X148581Y201346D01*
X147553Y200557D01*
X146764Y199529D01*
X146320Y198456D01*
X146319Y198455D01*
X145807D01*
X145806Y198456D01*
X145362Y199529D01*
X144573Y200557D01*
X143545Y201346D01*
X142348Y201842D01*
X141063Y202011D01*
X139778Y201842D01*
X138581Y201346D01*
X137553Y200557D01*
X136764Y199529D01*
X136320Y198456D01*
X136319Y198455D01*
X135807D01*
X135806Y198456D01*
X135362Y199529D01*
X134573Y200557D01*
X133545Y201346D01*
X132348Y201842D01*
X131063Y202011D01*
X129778Y201842D01*
X128581Y201346D01*
X127553Y200557D01*
X126764Y199529D01*
X126320Y198456D01*
X126319Y198455D01*
X125807D01*
X125806Y198456D01*
X125362Y199529D01*
X124573Y200557D01*
X123545Y201346D01*
X122348Y201842D01*
X121063Y202011D01*
X119778Y201842D01*
X118581Y201346D01*
X117553Y200557D01*
X116764Y199529D01*
X116320Y198456D01*
X116319Y198455D01*
X115807D01*
X115806Y198456D01*
X115362Y199529D01*
X114573Y200557D01*
X113545Y201346D01*
X112348Y201842D01*
X111063Y202011D01*
X109778Y201842D01*
X108581Y201346D01*
X107553Y200557D01*
X106764Y199529D01*
X106268Y198332D01*
X106099Y197047D01*
X106268Y195763D01*
X106764Y194565D01*
X107553Y193537D01*
X108581Y192748D01*
X109778Y192253D01*
X111063Y192084D01*
X112348Y192253D01*
X113545Y192748D01*
X114573Y193537D01*
X115362Y194565D01*
X115806Y195639D01*
X115807Y195639D01*
X116319D01*
X116320Y195639D01*
X116764Y194565D01*
X117553Y193537D01*
X118581Y192748D01*
X119778Y192253D01*
X121063Y192084D01*
X122348Y192253D01*
X123545Y192748D01*
X124573Y193537D01*
X125362Y194565D01*
X125806Y195639D01*
X125807Y195639D01*
X126319D01*
X126320Y195639D01*
X126764Y194565D01*
X127553Y193537D01*
X128581Y192748D01*
X129778Y192253D01*
X131063Y192084D01*
X132348Y192253D01*
X133545Y192748D01*
X134573Y193537D01*
X135362Y194565D01*
X135806Y195639D01*
X135807Y195639D01*
X136319D01*
X136320Y195639D01*
X136764Y194565D01*
X137553Y193537D01*
X138581Y192748D01*
X139778Y192253D01*
X141063Y192084D01*
X142348Y192253D01*
X143545Y192748D01*
X144573Y193537D01*
X145362Y194565D01*
X145806Y195639D01*
X145807Y195639D01*
X146319D01*
X146320Y195639D01*
X146764Y194565D01*
X147086Y194146D01*
X142457Y189517D01*
X141299D01*
Y190748D01*
X128701D01*
Y190334D01*
X128201Y190131D01*
X127425Y190452D01*
X126500Y190574D01*
X125575Y190452D01*
X124713Y190095D01*
X123973Y189527D01*
X123405Y188787D01*
X123048Y187925D01*
X122926Y187000D01*
X123048Y186075D01*
X123405Y185213D01*
X123973Y184473D01*
X124713Y183905D01*
X125575Y183548D01*
X126500Y183426D01*
X127425Y183548D01*
X128201Y183869D01*
X128701Y183666D01*
Y183268D01*
X141299D01*
Y184483D01*
X143500D01*
X144463Y184675D01*
X145280Y185220D01*
X145755Y185696D01*
X146245Y185598D01*
X146405Y185213D01*
X146973Y184473D01*
X147713Y183905D01*
X148575Y183548D01*
X149500Y183426D01*
X150425Y183548D01*
X151201Y183869D01*
X151701Y183666D01*
Y183268D01*
X164299D01*
Y184529D01*
X164799Y184699D01*
X164973Y184473D01*
X165403Y184143D01*
X165720Y183668D01*
X168168Y181220D01*
X168371Y181085D01*
X168218Y180586D01*
X144261Y180754D01*
X144254Y180752D01*
X144246Y180754D01*
X143870Y180679D01*
X143491Y180606D01*
X143485Y180602D01*
X143478Y180601D01*
X143159Y180387D01*
X142837Y180176D01*
X142833Y180170D01*
X142827Y180166D01*
X140581Y177920D01*
X140146Y177269D01*
X139993Y176500D01*
X139993Y171999D01*
X140146Y171230D01*
X140419Y170822D01*
X140581Y170579D01*
X141304Y169857D01*
X141478Y169741D01*
X141627Y169594D01*
X142014Y169342D01*
X142187Y169273D01*
X142342Y169169D01*
X142547Y169129D01*
X142741Y169051D01*
X143110Y168629D01*
Y163937D01*
Y158937D01*
Y153937D01*
Y148937D01*
Y143937D01*
X165157D01*
Y143937D01*
X165470Y144091D01*
X165713Y143905D01*
X166575Y143548D01*
X167500Y143426D01*
X168425Y143548D01*
X169287Y143905D01*
X170027Y144473D01*
X170483Y145067D01*
X170983Y144897D01*
Y142000D01*
X171175Y141037D01*
X171720Y140220D01*
X173220Y138720D01*
X174037Y138175D01*
X174803Y138022D01*
Y136760D01*
X181496D01*
Y142760D01*
X181890D01*
Y150240D01*
X176017D01*
Y152941D01*
X175825Y153904D01*
X175280Y154720D01*
X166646Y163355D01*
X166341Y163558D01*
X166493Y164058D01*
X169103D01*
X169175Y163697D01*
X169720Y162881D01*
X173381Y159220D01*
X174197Y158675D01*
X175160Y158483D01*
X175701D01*
Y156760D01*
X176530D01*
Y155973D01*
X176722Y155010D01*
X177268Y154194D01*
X178241Y153220D01*
X179057Y152675D01*
X179365Y152614D01*
X179473Y152473D01*
X180213Y151905D01*
X181075Y151548D01*
X182000Y151426D01*
X182925Y151548D01*
X183787Y151905D01*
X184527Y152473D01*
X185095Y153213D01*
X185452Y154075D01*
X185574Y155000D01*
X185452Y155925D01*
X185095Y156787D01*
X184527Y157527D01*
X183787Y158095D01*
X182925Y158452D01*
X182394Y158522D01*
Y164240D01*
X180787D01*
Y168493D01*
X192669Y168493D01*
X198493Y162669D01*
X198493Y130373D01*
X198127Y130007D01*
X164500D01*
X163732Y129854D01*
X163081Y129419D01*
X160581Y126919D01*
X160146Y126268D01*
X159993Y125500D01*
X159993Y119500D01*
X160146Y118732D01*
X160310Y118487D01*
X160581Y118081D01*
X162207Y116455D01*
X162795Y116062D01*
Y110787D01*
Y105787D01*
Y100787D01*
Y95787D01*
Y90787D01*
X184843D01*
Y90823D01*
X185343Y90993D01*
X185473Y90823D01*
X186213Y90255D01*
X187075Y89898D01*
X188000Y89776D01*
X188925Y89898D01*
X189787Y90255D01*
X190035Y90445D01*
X190483Y90224D01*
Y87000D01*
X190675Y86037D01*
X191220Y85220D01*
X193220Y83220D01*
X194037Y82675D01*
X194701Y82543D01*
Y81760D01*
X201394D01*
Y87260D01*
X201575D01*
Y94740D01*
X201394D01*
X201224Y95240D01*
X201527Y95473D01*
X202095Y96213D01*
X202452Y97075D01*
X202574Y98000D01*
X202452Y98925D01*
X202095Y99787D01*
X201527Y100527D01*
X201517Y100535D01*
Y101260D01*
X202394D01*
Y108740D01*
X201575D01*
Y115240D01*
X201970Y115493D01*
X205169D01*
X214493Y106169D01*
X214493Y81831D01*
X207169Y74507D01*
X143500Y74507D01*
X142732Y74354D01*
X142081Y73919D01*
X140581Y72419D01*
X140146Y71768D01*
X139993Y71000D01*
Y66000D01*
X140146Y65232D01*
X140581Y64581D01*
X141856Y63305D01*
X142508Y62870D01*
X143110Y62750D01*
Y57638D01*
Y52638D01*
Y47638D01*
Y42638D01*
Y37638D01*
X164729D01*
X164905Y37213D01*
X165473Y36473D01*
X166213Y35905D01*
X167075Y35548D01*
X168000Y35426D01*
X168925Y35548D01*
X169787Y35905D01*
X170032Y36093D01*
X170526Y36012D01*
X170720Y35720D01*
X172720Y33720D01*
X173537Y33175D01*
X174500Y32983D01*
X174803D01*
Y31760D01*
X181496D01*
Y37760D01*
X181890D01*
Y45240D01*
X182389Y45243D01*
X187260D01*
X188223Y45435D01*
X189040Y45980D01*
X190977Y47917D01*
X191450Y47684D01*
X191426Y47500D01*
X191548Y46575D01*
X191905Y45713D01*
X192473Y44973D01*
X193213Y44405D01*
X194075Y44048D01*
X195000Y43926D01*
X195013Y43928D01*
X195378Y43562D01*
X195199Y43034D01*
X194575Y42952D01*
X193713Y42595D01*
X192973Y42027D01*
X192405Y41287D01*
X192048Y40425D01*
X191926Y39500D01*
X192048Y38575D01*
X192405Y37713D01*
X192973Y36973D01*
X192983Y36965D01*
Y14921D01*
X191142D01*
Y5079D01*
X200984D01*
Y8095D01*
X201484Y8194D01*
X201764Y7518D01*
X202553Y6490D01*
X203581Y5701D01*
X204778Y5205D01*
X206063Y5036D01*
X207348Y5205D01*
X208545Y5701D01*
X209573Y6490D01*
X210362Y7518D01*
X210806Y8592D01*
X210807Y8592D01*
X211319D01*
X211320Y8592D01*
X211764Y7518D01*
X212553Y6490D01*
X213581Y5701D01*
X214778Y5205D01*
X216063Y5036D01*
X217348Y5205D01*
X218545Y5701D01*
X219573Y6490D01*
X220362Y7518D01*
X220806Y8592D01*
X220807Y8592D01*
X221319D01*
X221320Y8592D01*
X221764Y7518D01*
X222553Y6490D01*
X223581Y5701D01*
X224778Y5205D01*
X226063Y5036D01*
X227348Y5205D01*
X228545Y5701D01*
X229573Y6490D01*
X230362Y7518D01*
X230806Y8592D01*
X230807Y8592D01*
X231319D01*
X231320Y8592D01*
X231764Y7518D01*
X232553Y6490D01*
X233581Y5701D01*
X234778Y5205D01*
X236063Y5036D01*
X237348Y5205D01*
X238545Y5701D01*
X239573Y6490D01*
X240362Y7518D01*
X240806Y8592D01*
X240807Y8592D01*
X241319D01*
X241320Y8592D01*
X241764Y7518D01*
X242553Y6490D01*
X243581Y5701D01*
X244778Y5205D01*
X246063Y5036D01*
X247348Y5205D01*
X248545Y5701D01*
X249573Y6490D01*
X250362Y7518D01*
X250858Y8715D01*
X251027Y10000D01*
X250858Y11285D01*
X250362Y12482D01*
X249573Y13510D01*
X248545Y14299D01*
X247348Y14795D01*
X246063Y14964D01*
X244778Y14795D01*
X243581Y14299D01*
X242553Y13510D01*
X241764Y12482D01*
X241320Y11408D01*
X241319Y11408D01*
X240807D01*
X240806Y11408D01*
X240362Y12482D01*
X239573Y13510D01*
X238545Y14299D01*
X237348Y14795D01*
X236063Y14964D01*
X234778Y14795D01*
X233581Y14299D01*
X232553Y13510D01*
X231764Y12482D01*
X231320Y11408D01*
X231319Y11408D01*
X230807D01*
X230806Y11408D01*
X230362Y12482D01*
X229573Y13510D01*
X228545Y14299D01*
X227348Y14795D01*
X226063Y14964D01*
X224778Y14795D01*
X223581Y14299D01*
X222553Y13510D01*
X221764Y12482D01*
X221320Y11408D01*
X221319Y11408D01*
X220807D01*
X220806Y11408D01*
X220362Y12482D01*
X219573Y13510D01*
X218580Y14272D01*
Y33437D01*
X218388Y34400D01*
X217843Y35217D01*
X198182Y54878D01*
X197365Y55423D01*
X196402Y55615D01*
X192598D01*
X191635Y55423D01*
X190818Y54878D01*
X186217Y50277D01*
X181496D01*
Y54760D01*
X181890D01*
Y62240D01*
X182285Y62493D01*
X228000D01*
X228768Y62646D01*
X229419Y63081D01*
X234919Y68581D01*
X235354Y69232D01*
X235507Y70000D01*
X235507Y72669D01*
X241831Y78993D01*
X262000Y78993D01*
X262768Y79145D01*
X263419Y79580D01*
X266809Y82971D01*
X267244Y83622D01*
X267397Y84390D01*
X267397Y98610D01*
X267244Y99378D01*
X266809Y100029D01*
X264419Y102419D01*
X263768Y102854D01*
X263000Y103007D01*
X244831D01*
X229507Y118331D01*
X229507Y164000D01*
X229354Y164768D01*
X228919Y165419D01*
X214655Y179683D01*
X214335Y179897D01*
X214017Y180113D01*
X214010Y180114D01*
X214004Y180118D01*
X213627Y180193D01*
X213250Y180271D01*
X190497Y180430D01*
X190347Y180931D01*
X190780Y181220D01*
X192827Y183268D01*
X212799D01*
Y183268D01*
X212893Y183330D01*
X213575Y183048D01*
X214500Y182926D01*
X215425Y183048D01*
X216287Y183405D01*
X217027Y183973D01*
X217595Y184713D01*
X217952Y185575D01*
X218074Y186500D01*
X217952Y187425D01*
X217721Y187983D01*
X218052Y188483D01*
X219458D01*
X220201Y187740D01*
Y183268D01*
X232799D01*
Y184983D01*
X233965D01*
X233973Y184973D01*
X234713Y184405D01*
X235575Y184048D01*
X236500Y183926D01*
X237425Y184048D01*
X238287Y184405D01*
X239027Y184973D01*
X239595Y185713D01*
X239952Y186575D01*
X240074Y187500D01*
X239952Y188425D01*
X239595Y189287D01*
X239027Y190027D01*
X238287Y190595D01*
X237425Y190952D01*
X236500Y191074D01*
X235575Y190952D01*
X234713Y190595D01*
X233973Y190027D01*
X233965Y190017D01*
X232799D01*
Y190748D01*
X224311D01*
X222280Y192780D01*
X221463Y193325D01*
X220500Y193517D01*
X220187D01*
X219941Y194017D01*
X220362Y194565D01*
X220806Y195639D01*
X220807Y195639D01*
X221319D01*
X221320Y195639D01*
X221764Y194565D01*
X222553Y193537D01*
X223581Y192748D01*
X224778Y192253D01*
X226063Y192084D01*
X227348Y192253D01*
X228545Y192748D01*
X229573Y193537D01*
X230362Y194565D01*
X230806Y195639D01*
X230807Y195639D01*
X231319D01*
X231320Y195639D01*
X231764Y194565D01*
X232553Y193537D01*
X233581Y192748D01*
X234778Y192253D01*
X236063Y192084D01*
X237348Y192253D01*
X238545Y192748D01*
X239573Y193537D01*
X240362Y194565D01*
X240806Y195639D01*
X240807Y195639D01*
X241319D01*
X241320Y195639D01*
X241764Y194565D01*
X242553Y193537D01*
X243581Y192748D01*
X244778Y192253D01*
X246063Y192084D01*
X247348Y192253D01*
X248545Y192748D01*
X249573Y193537D01*
X250362Y194565D01*
X250858Y195763D01*
X251027Y197047D01*
X250858Y198332D01*
X250362Y199529D01*
X249573Y200557D01*
X248545Y201346D01*
X247348Y201842D01*
X246063Y202011D01*
D02*
G37*
G36*
X91063D02*
X89778Y201842D01*
X88581Y201346D01*
X87553Y200557D01*
X86764Y199529D01*
X86320Y198456D01*
X86319Y198455D01*
X85807D01*
X85806Y198456D01*
X85362Y199529D01*
X84573Y200557D01*
X83545Y201346D01*
X82348Y201842D01*
X81063Y202011D01*
X79778Y201842D01*
X78581Y201346D01*
X77553Y200557D01*
X76764Y199529D01*
X76484Y198853D01*
X75984Y198952D01*
Y201969D01*
X66142D01*
Y192126D01*
X75984D01*
Y195142D01*
X76484Y195241D01*
X76764Y194565D01*
X77553Y193537D01*
X78581Y192748D01*
X79778Y192253D01*
X81063Y192084D01*
X82348Y192253D01*
X83545Y192748D01*
X84573Y193537D01*
X85362Y194565D01*
X85806Y195639D01*
X85807Y195639D01*
X86319D01*
X86320Y195639D01*
X86764Y194565D01*
X87553Y193537D01*
X88581Y192748D01*
X89778Y192253D01*
X91063Y192084D01*
X92348Y192253D01*
X93545Y192748D01*
X94573Y193537D01*
X95362Y194565D01*
X95858Y195763D01*
X96027Y197047D01*
X95858Y198332D01*
X95362Y199529D01*
X94573Y200557D01*
X93545Y201346D01*
X92348Y201842D01*
X91063Y202011D01*
D02*
G37*
G36*
X119620Y181007D02*
X99500D01*
X98732Y180854D01*
X98514Y180709D01*
X97638D01*
Y179976D01*
X62081Y144419D01*
X61646Y143768D01*
X61493Y143000D01*
X61493Y134000D01*
Y118500D01*
X61646Y117732D01*
X62081Y117081D01*
X65081Y114081D01*
X65150Y114035D01*
X65199Y113537D01*
X62581Y110919D01*
X62146Y110268D01*
X61993Y109500D01*
Y99000D01*
X62146Y98232D01*
X62581Y97581D01*
X65204Y94958D01*
X65039Y94415D01*
X64732Y94354D01*
X64081Y93919D01*
X61581Y91419D01*
X61146Y90768D01*
X60993Y90000D01*
Y67000D01*
X61146Y66232D01*
X61581Y65581D01*
X97638Y29524D01*
Y27953D01*
X138583D01*
Y74409D01*
X104491D01*
X104000Y74507D01*
X101831D01*
X95819Y80519D01*
X95953Y80870D01*
X96053Y80993D01*
X119500D01*
X119817Y81056D01*
X120137Y81097D01*
X120147Y81102D01*
X158268D01*
Y127559D01*
X117323D01*
Y127507D01*
X95553D01*
X95345Y128007D01*
X101590Y134252D01*
X138583D01*
Y180709D01*
X120628D01*
X120511Y180798D01*
X120445Y180816D01*
X120388Y180854D01*
X120069Y180918D01*
X119755Y181002D01*
X119687Y180994D01*
X119620Y181007D01*
D02*
G37*
G36*
X145984Y14464D02*
X144700Y14295D01*
X143502Y13799D01*
X142474Y13010D01*
X141685Y11982D01*
X141241Y10908D01*
X141240Y10908D01*
X140728D01*
X140728Y10908D01*
X140283Y11982D01*
X139494Y13010D01*
X138466Y13799D01*
X137269Y14295D01*
X135984Y14464D01*
X134699Y14295D01*
X133502Y13799D01*
X132474Y13010D01*
X131685Y11982D01*
X131241Y10908D01*
X131240Y10908D01*
X130728D01*
X130728Y10908D01*
X130283Y11982D01*
X129494Y13010D01*
X128466Y13799D01*
X127269Y14295D01*
X125984Y14464D01*
X124699Y14295D01*
X123502Y13799D01*
X122474Y13010D01*
X121686Y11982D01*
X121241Y10908D01*
X121240Y10908D01*
X120728D01*
X120728Y10908D01*
X120283Y11982D01*
X119494Y13010D01*
X118466Y13799D01*
X117269Y14295D01*
X115984Y14464D01*
X114699Y14295D01*
X113502Y13799D01*
X112474Y13010D01*
X111686Y11982D01*
X111405Y11306D01*
X110905Y11405D01*
Y14421D01*
X101063D01*
Y4579D01*
X110905D01*
Y7595D01*
X111405Y7694D01*
X111686Y7018D01*
X112474Y5990D01*
X113502Y5201D01*
X114699Y4705D01*
X115984Y4536D01*
X117269Y4705D01*
X118466Y5201D01*
X119494Y5990D01*
X120283Y7018D01*
X120728Y8092D01*
X120728Y8092D01*
X121240D01*
X121241Y8092D01*
X121686Y7018D01*
X122474Y5990D01*
X123502Y5201D01*
X124699Y4705D01*
X125984Y4536D01*
X127269Y4705D01*
X128466Y5201D01*
X129494Y5990D01*
X130283Y7018D01*
X130728Y8092D01*
X130728Y8092D01*
X131240D01*
X131241Y8092D01*
X131685Y7018D01*
X132474Y5990D01*
X133502Y5201D01*
X134699Y4705D01*
X135984Y4536D01*
X137269Y4705D01*
X138466Y5201D01*
X139494Y5990D01*
X140283Y7018D01*
X140728Y8092D01*
X140728Y8092D01*
X141240D01*
X141241Y8092D01*
X141685Y7018D01*
X142474Y5990D01*
X143502Y5201D01*
X144700Y4705D01*
X145984Y4536D01*
X147269Y4705D01*
X148466Y5201D01*
X149494Y5990D01*
X150283Y7018D01*
X150779Y8215D01*
X150948Y9500D01*
X150779Y10785D01*
X150283Y11982D01*
X149494Y13010D01*
X148466Y13799D01*
X147269Y14295D01*
X145984Y14464D01*
D02*
G37*
G36*
X175984D02*
X174699Y14295D01*
X173502Y13799D01*
X172474Y13010D01*
X171686Y11982D01*
X171190Y10785D01*
X171020Y9500D01*
X171190Y8215D01*
X171686Y7018D01*
X172474Y5990D01*
X173502Y5201D01*
X174699Y4705D01*
X175984Y4536D01*
X177269Y4705D01*
X178466Y5201D01*
X179494Y5990D01*
X180283Y7018D01*
X180779Y8215D01*
X180948Y9500D01*
X180779Y10785D01*
X180283Y11982D01*
X179494Y13010D01*
X178466Y13799D01*
X177269Y14295D01*
X175984Y14464D01*
D02*
G37*
%LPD*%
G36*
X213236Y178264D02*
X227500Y164000D01*
X227500Y117500D01*
X244000Y101000D01*
X263000D01*
X265390Y98610D01*
X265390Y84390D01*
X262000Y81000D01*
X241000Y81000D01*
X233500Y73500D01*
X233500Y70000D01*
X228000Y64500D01*
X165157D01*
Y64724D01*
X143276D01*
X142000Y66000D01*
Y71000D01*
X143500Y72500D01*
X208000Y72500D01*
X216500Y81000D01*
X216500Y107000D01*
X206000Y117500D01*
X184843Y117500D01*
Y117874D01*
X163626D01*
X162000Y119500D01*
X162000Y125500D01*
X164500Y128000D01*
X199000D01*
X200500Y129500D01*
X200500Y163500D01*
X193500Y170500D01*
X165157Y170500D01*
Y171024D01*
X143110D01*
X143110Y171024D01*
Y171024D01*
X142723Y171276D01*
X142000Y171999D01*
X142000Y176500D01*
X144246Y178746D01*
X213236Y178264D01*
D02*
G37*
G36*
X203546Y35394D02*
Y14272D01*
X202553Y13510D01*
X201764Y12482D01*
X201484Y11806D01*
X200984Y11905D01*
Y14921D01*
X198017D01*
Y36965D01*
X198027Y36973D01*
X198595Y37713D01*
X198952Y38575D01*
X199034Y39199D01*
X199562Y39378D01*
X203546Y35394D01*
D02*
G37*
G36*
X213546Y32394D02*
Y14272D01*
X212553Y13510D01*
X211764Y12482D01*
X211320Y11408D01*
X211319Y11408D01*
X210807D01*
X210806Y11408D01*
X210362Y12482D01*
X209573Y13510D01*
X208580Y14272D01*
Y36437D01*
X208526Y36707D01*
X208987Y36954D01*
X213546Y32394D01*
D02*
G37*
G36*
X119949Y178623D02*
X117400Y159856D01*
X117147Y159806D01*
X116331Y159260D01*
X115785Y158443D01*
X115593Y157480D01*
X115785Y156517D01*
X116331Y155701D01*
X116776Y155256D01*
X114500Y138500D01*
X103000D01*
X80000Y115500D01*
X66500D01*
X63500Y118500D01*
Y134000D01*
X63500Y143000D01*
X99500Y179000D01*
X119620D01*
X119949Y178623D01*
D02*
G37*
G36*
X122029Y125487D02*
X122451Y125295D01*
X119500Y83000D01*
X96000D01*
X84000Y95000D01*
Y95500D01*
X67500D01*
X64000Y99000D01*
Y109500D01*
X67000Y112500D01*
X82000Y112500D01*
X95000Y125500D01*
X121964D01*
X122029Y125487D01*
D02*
G37*
G36*
X101000Y72500D02*
X104000D01*
Y30000D01*
X100000D01*
X63000Y67000D01*
Y90000D01*
X65500Y92500D01*
X81000D01*
X101000Y72500D01*
D02*
G37*
%LPC*%
G36*
X73150Y87163D02*
X72835D01*
X71872Y86971D01*
X71055Y86425D01*
X70509Y85609D01*
X70318Y84646D01*
X70509Y83683D01*
X71055Y82866D01*
X71872Y82320D01*
X72835Y82129D01*
X73150D01*
X74113Y82320D01*
X74929Y82866D01*
X75475Y83683D01*
X75666Y84646D01*
X75475Y85609D01*
X74929Y86425D01*
X74113Y86971D01*
X73150Y87163D01*
D02*
G37*
%LPD*%
D10*
X209453Y188000D02*
X210953Y186500D01*
X214500D01*
X154134Y166575D02*
X176669D01*
X175160Y161000D02*
X179047D01*
X176669Y166575D02*
X177244Y166000D01*
X229953Y187000D02*
X230453Y187500D01*
X154209Y151500D02*
X155209Y152500D01*
X154134Y147480D02*
X154614Y147000D01*
X167500D01*
X155209Y152500D02*
X168000D01*
X187020Y94331D02*
X188000Y93350D01*
X173819Y94331D02*
X187020D01*
X154134Y45276D02*
X154858Y46000D01*
X167000D01*
X154134Y40276D02*
X155358Y41500D01*
X165500D02*
X168000Y39000D01*
X155358Y41500D02*
X165500D01*
X72835Y84646D02*
X73150D01*
X199000Y98000D02*
Y105000D01*
X192598Y53098D02*
X196402D01*
X187260Y47760D02*
X192598Y53098D01*
X179260Y47760D02*
X187260D01*
X196402Y53098D02*
X216063Y33437D01*
X195000Y47500D02*
X206063Y36437D01*
X178150Y48870D02*
Y52000D01*
Y48870D02*
X179260Y47760D01*
X216063Y10000D02*
Y33437D01*
X206063Y10000D02*
Y36437D01*
X195500Y10563D02*
X196063Y10000D01*
X195500Y10563D02*
Y39500D01*
X230453Y187500D02*
X236500D01*
X229453Y187500D02*
X229953Y187000D01*
X179047Y160500D02*
Y161000D01*
Y155973D02*
Y160500D01*
X184000Y187000D02*
X185500Y188500D01*
X179953Y187000D02*
X184000D01*
X167500Y185448D02*
Y187000D01*
X189000Y183000D02*
X192047Y186047D01*
X169948Y183000D02*
X189000D01*
X167500Y185448D02*
X169948Y183000D01*
X192047Y186047D02*
Y187000D01*
X176063Y192563D02*
Y197047D01*
X174047Y189000D02*
Y190547D01*
X176063Y192563D01*
X172500Y41500D02*
Y48000D01*
X165224Y55276D02*
X172500Y48000D01*
X155047Y187000D02*
X155047Y187000D01*
X149500Y187000D02*
X155047D01*
X132047D02*
X132047Y187000D01*
X126500Y187000D02*
X132047D01*
X143500Y187000D02*
X151063Y194563D01*
X137953Y187000D02*
X143500D01*
X161063Y188110D02*
Y197047D01*
X159953Y187000D02*
X161063Y188110D01*
X212110Y191000D02*
X220500D01*
X223000Y188500D01*
X151063Y194563D02*
Y197047D01*
X206063D02*
X212110Y191000D01*
X203047Y189453D02*
Y190063D01*
Y188047D02*
Y189453D01*
Y187000D02*
Y188047D01*
X196063Y197047D02*
X203047Y190063D01*
X186063Y197047D02*
X192110Y191000D01*
X196000D01*
X197953Y189047D01*
Y187000D02*
Y189047D01*
X186063Y194937D02*
Y197047D01*
X179047Y155973D02*
X180021Y155000D01*
X182000D01*
X171500Y164660D02*
X175160Y161000D01*
X171500Y164660D02*
Y166500D01*
X173500Y142000D02*
X175000Y140500D01*
X173500Y142000D02*
Y146500D01*
X154134Y151575D02*
X154209Y151500D01*
X175000Y140500D02*
X176547D01*
X173819Y98425D02*
X188075D01*
X195000Y85000D02*
X197835D01*
X193000Y87000D02*
X195000Y85000D01*
X193000Y87000D02*
Y91000D01*
X173500Y146500D02*
Y152941D01*
Y146500D02*
X176744D01*
X164866Y161575D02*
X173500Y152941D01*
X186075Y108425D02*
X193000Y101500D01*
Y91000D02*
Y101500D01*
X196500Y105000D02*
X199000D01*
X192500Y109000D02*
X196500Y105000D01*
X192500Y109000D02*
Y111500D01*
X193000Y91000D02*
X193000Y91000D01*
X198031D01*
X174500Y35500D02*
X178150D01*
X172500Y37500D02*
X174500Y35500D01*
X172500Y37500D02*
Y41500D01*
X178347D01*
X154134Y55276D02*
X165224D01*
X173000Y52000D02*
X178150D01*
X170500Y54500D02*
X173000Y52000D01*
X170500Y54500D02*
Y58500D01*
X178347D01*
X168724Y60276D02*
X170500Y58500D01*
X154134Y60276D02*
X168724D01*
X173819Y108425D02*
X186075D01*
X192500Y111500D02*
X198031D01*
X190575Y113425D02*
X192500Y111500D01*
X173819Y113425D02*
X190575D01*
X154134Y161575D02*
X164866D01*
X137795Y104331D02*
X138701Y103425D01*
X118110Y51181D02*
X119016Y50276D01*
X118110Y157480D02*
X119016Y156575D01*
D12*
X154134Y172480D02*
D03*
Y167480D02*
D03*
Y162480D02*
D03*
Y157480D02*
D03*
Y152480D02*
D03*
Y147480D02*
D03*
X154331Y142480D02*
D03*
X173819Y119331D02*
D03*
Y114331D02*
D03*
Y109331D02*
D03*
Y104331D02*
D03*
Y99331D02*
D03*
Y94331D02*
D03*
X174016Y89331D02*
D03*
X154134Y66181D02*
D03*
Y61181D02*
D03*
Y56181D02*
D03*
Y51181D02*
D03*
Y46181D02*
D03*
Y41181D02*
D03*
X154331Y36181D02*
D03*
D13*
X118110Y157480D02*
D03*
X137795Y104331D02*
D03*
X118110Y51181D02*
D03*
D14*
X184055Y140500D02*
D03*
X178150D02*
D03*
X203953Y85500D02*
D03*
X198047D02*
D03*
X184055Y35500D02*
D03*
X178150D02*
D03*
X184953Y160500D02*
D03*
X179047D02*
D03*
X204953Y105000D02*
D03*
X199047D02*
D03*
X184055Y52000D02*
D03*
X178150D02*
D03*
X223547Y187008D02*
D03*
X229453D02*
D03*
X209453Y187008D02*
D03*
X203547D02*
D03*
X174047Y187008D02*
D03*
X179953D02*
D03*
X197953Y187008D02*
D03*
X192047D02*
D03*
X160953D02*
D03*
X155047D02*
D03*
X137953D02*
D03*
X132047D02*
D03*
D15*
X245433Y156500D02*
D03*
X210000D02*
D03*
D16*
X183858Y146500D02*
D03*
X178347D02*
D03*
X203543Y91000D02*
D03*
X198031D02*
D03*
X183858Y41500D02*
D03*
X178347D02*
D03*
X182756Y166000D02*
D03*
X177244D02*
D03*
X203543Y111500D02*
D03*
X198031D02*
D03*
X183858Y58500D02*
D03*
X178347D02*
D03*
D26*
X255500Y90685D02*
D03*
Y71000D02*
D03*
X72835Y124016D02*
D03*
Y104331D02*
D03*
Y84646D02*
D03*
D27*
X105984Y9500D02*
D03*
X196063Y10000D02*
D03*
X71063Y197047D02*
D03*
X176063D02*
D03*
D28*
X115984Y9500D02*
D03*
X125984D02*
D03*
X135984D02*
D03*
X145984D02*
D03*
X155984D02*
D03*
X165984D02*
D03*
X175984D02*
D03*
X206063Y10000D02*
D03*
X216063D02*
D03*
X226063D02*
D03*
X236063D02*
D03*
X246063D02*
D03*
X91063Y197047D02*
D03*
X161063D02*
D03*
X151063D02*
D03*
X141063D02*
D03*
X131063D02*
D03*
X121063D02*
D03*
X111063D02*
D03*
X101063D02*
D03*
X81063D02*
D03*
X186063D02*
D03*
X196063D02*
D03*
X206063D02*
D03*
X216063D02*
D03*
X226063D02*
D03*
X236063D02*
D03*
X246063D02*
D03*
D29*
X249000Y25000D02*
D03*
X234000Y38000D02*
D03*
X167500Y147000D02*
D03*
X168000Y152500D02*
D03*
X188000Y93350D02*
D03*
X167000Y46000D02*
D03*
X73000Y17500D02*
D03*
Y175000D02*
D03*
X234000Y52000D02*
D03*
X249000Y42000D02*
D03*
X211500Y89500D02*
D03*
Y101000D02*
D03*
X192000Y140500D02*
D03*
X193000Y153000D02*
D03*
X195000Y47500D02*
D03*
X195500Y39500D02*
D03*
X168000Y39000D02*
D03*
X236500Y187500D02*
D03*
X183500Y78000D02*
D03*
X168500D02*
D03*
X173000D02*
D03*
X246000Y171000D02*
D03*
X248500Y144500D02*
D03*
X237500Y142000D02*
D03*
X238000Y174500D02*
D03*
X163000Y25500D02*
D03*
X157500Y25591D02*
D03*
X152000D02*
D03*
X147000Y25500D02*
D03*
X142000Y25591D02*
D03*
X158000Y131783D02*
D03*
X153500D02*
D03*
X149000D02*
D03*
X144000D02*
D03*
X139500D02*
D03*
X178000Y78000D02*
D03*
X163500D02*
D03*
X167500Y187000D02*
D03*
X185500Y188500D02*
D03*
X214500Y186500D02*
D03*
X126500Y187000D02*
D03*
X149500D02*
D03*
X182000Y155000D02*
D03*
X188075Y98425D02*
D03*
X199000Y98000D02*
D03*
M02*
