M48
;Layer_Color=9474304
;FILE_FORMAT=2:5
INCH,LZ
;TYPE=PLATED
T1F00S00C0.01968
T2F00S00C0.03543
T3F00S00C0.05906
%
T01
X0073Y00175
X0142Y0025591
X0147Y00255
X0152Y0025591
X01575
X0163Y00255
X0168Y0039
X0167Y0046
X0195Y00475
X01955Y00395
X01835Y0078
X0178
X0173
X01685
X01635
X0188Y009335
X0188075Y0098425
X0199Y0098
X02115Y0101
Y00895
X0192Y01405
X0193Y0153
X0182Y0155
X0168Y01525
X01675Y0147
X0158Y0131783
X01535
X0149
X0144
X01395
X0073Y0175
X0238Y01745
X0246Y0171
X02485Y01445
X02375Y0142
X0234Y0052
Y0038
X0249Y0042
Y0025
X02365Y01875
X02145Y01865
X01855Y01885
X01675Y0187
X01495
X01265
T02
X0216063Y001
X0226063
X0236063
X0246063
X0206063
X0196063
X0175984Y00095
X0165984
X0155984
X0145984
X0135984
X0125984
X0115984
X0105984
X0216063Y0197047
X0226063
X0236063
X0246063
X0206063
X0196063
X0186063
X0176063
X0161063
X0151063
X0141063
X0131063
X0121063
X0111063
X0101063
X0091063
X0081063
X0071063
T03
X0072835Y0084646
Y0104331
Y0124016
X02555Y0090685
Y0071
M30
