G04*
G04 #@! TF.GenerationSoftware,Altium Limited,Altium Designer,18.0.7 (293)*
G04*
G04 Layer_Color=8421504*
%FSLAX25Y25*%
%MOIN*%
G70*
G01*
G75*
%ADD12R,0.05906X0.10236*%
%ADD13R,0.03543X0.02756*%
%ADD14R,0.02756X0.03543*%
%ADD15R,0.12992X0.04331*%
%ADD16R,0.01575X0.05906*%
%ADD17R,0.37008X0.42520*%
%ADD18R,0.18110X0.03150*%
%ADD19R,0.03150X0.03543*%
%ADD20R,0.17717X0.07874*%
D12*
X260705Y37400D02*
D03*
X248895D02*
D03*
D13*
X241800Y55705D02*
D03*
Y49800D02*
D03*
D14*
X92947Y186000D02*
D03*
X98853D02*
D03*
X109647Y186299D02*
D03*
X115553D02*
D03*
X75547Y186100D02*
D03*
X81453D02*
D03*
X184055Y140500D02*
D03*
X178150D02*
D03*
X203953Y85500D02*
D03*
X198047D02*
D03*
X184055Y35500D02*
D03*
X178150D02*
D03*
X184953Y160500D02*
D03*
X179047D02*
D03*
X204953Y105000D02*
D03*
X199047D02*
D03*
X184055Y52000D02*
D03*
X178150D02*
D03*
X223547Y187008D02*
D03*
X229453D02*
D03*
X209453Y187008D02*
D03*
X203547D02*
D03*
X174047Y187008D02*
D03*
X179953D02*
D03*
X197953Y187008D02*
D03*
X192047D02*
D03*
X160953D02*
D03*
X155047D02*
D03*
X137953D02*
D03*
X132047D02*
D03*
D15*
X88583Y46780D02*
D03*
Y69221D02*
D03*
Y163721D02*
D03*
Y141279D02*
D03*
D16*
X72736Y62817D02*
D03*
X70177D02*
D03*
X72736Y39983D02*
D03*
X70177D02*
D03*
X67618Y62817D02*
D03*
X65059D02*
D03*
X67618Y39983D02*
D03*
X65059D02*
D03*
X65061Y146283D02*
D03*
X67620D02*
D03*
X65061Y169117D02*
D03*
X67620D02*
D03*
X70179Y146283D02*
D03*
X72739D02*
D03*
X70179Y169117D02*
D03*
X72739D02*
D03*
D17*
X118110Y157480D02*
D03*
X137795Y104331D02*
D03*
X118110Y51181D02*
D03*
D18*
X154331Y142480D02*
D03*
X154134Y147480D02*
D03*
Y152480D02*
D03*
Y157480D02*
D03*
Y162480D02*
D03*
Y167480D02*
D03*
Y172480D02*
D03*
X173819Y119331D02*
D03*
Y114331D02*
D03*
Y109331D02*
D03*
Y104331D02*
D03*
Y99331D02*
D03*
Y94331D02*
D03*
X174016Y89331D02*
D03*
X154134Y66181D02*
D03*
Y61181D02*
D03*
Y56181D02*
D03*
Y51181D02*
D03*
Y46181D02*
D03*
Y41181D02*
D03*
X154331Y36181D02*
D03*
D19*
X70756Y30600D02*
D03*
X65244D02*
D03*
X67144Y178300D02*
D03*
X72656D02*
D03*
X183858Y146500D02*
D03*
X178347D02*
D03*
X203543Y91000D02*
D03*
X198031D02*
D03*
X183858Y41500D02*
D03*
X178347D02*
D03*
X182756Y166000D02*
D03*
X177244D02*
D03*
X203543Y111500D02*
D03*
X198031D02*
D03*
X183858Y58500D02*
D03*
X178347D02*
D03*
D20*
X245433Y156500D02*
D03*
X210000D02*
D03*
M02*
