G04*
G04 #@! TF.GenerationSoftware,Altium Limited,Altium Designer,18.0.7 (293)*
G04*
G04 Layer_Color=65535*
%FSLAX25Y25*%
%MOIN*%
G70*
G01*
G75*
%ADD10C,0.01000*%
%ADD11C,0.00787*%
G36*
X99600Y178763D02*
Y172800D01*
X92798D01*
Y178763D01*
X99600D01*
D02*
G37*
G36*
X119300Y83100D02*
X112680D01*
Y88896D01*
X119300D01*
Y83100D01*
D02*
G37*
G36*
X99587Y29713D02*
X92968D01*
Y36347D01*
X99587D01*
Y29713D01*
D02*
G37*
G36*
X219708Y89416D02*
X219722D01*
X219776D01*
X219816Y89403D01*
X219856D01*
X219870D01*
X219883D01*
X219951Y89429D01*
X219991Y89456D01*
X220032Y89497D01*
X220045Y89551D01*
X220059Y89632D01*
X220800Y89470D01*
Y89268D01*
X220813Y89173D01*
Y89119D01*
X220800Y89065D01*
Y89012D01*
X220760Y88850D01*
X220679Y88715D01*
X220652Y88688D01*
X220584Y88648D01*
X220477Y88594D01*
X220409Y88580D01*
X220342Y88567D01*
X220328D01*
X220274D01*
X220193Y88580D01*
X220099Y88594D01*
X220086D01*
X220072D01*
X220032Y88607D01*
X219964Y88621D01*
X219897Y88634D01*
X219802Y88648D01*
X219695Y88675D01*
X219560Y88701D01*
X219587Y88675D01*
X219668Y88607D01*
X219776Y88513D01*
X219910Y88364D01*
X220072Y88189D01*
X220247Y87987D01*
X220409Y87758D01*
X220557Y87502D01*
Y87488D01*
X220571Y87475D01*
X220584Y87434D01*
X220611Y87380D01*
X220679Y87246D01*
X220733Y87070D01*
X220800Y86868D01*
X220867Y86626D01*
X220908Y86383D01*
X220921Y86140D01*
Y86046D01*
X220908Y85938D01*
X220894Y85817D01*
X220867Y85655D01*
X220827Y85493D01*
X220773Y85318D01*
X220706Y85156D01*
X220692Y85143D01*
X220665Y85089D01*
X220611Y85008D01*
X220557Y84914D01*
X220463Y84792D01*
X220369Y84684D01*
X220261Y84563D01*
X220126Y84442D01*
X220112Y84428D01*
X220059Y84388D01*
X219978Y84334D01*
X219870Y84280D01*
X219749Y84199D01*
X219600Y84118D01*
X219439Y84051D01*
X219263Y83983D01*
X219236D01*
X219182Y83957D01*
X219075Y83943D01*
X218953Y83916D01*
X218792Y83889D01*
X218616Y83862D01*
X218427Y83849D01*
X218225Y83835D01*
X218212D01*
X218185D01*
X218144D01*
X218091D01*
X217942Y83849D01*
X217754Y83876D01*
X217524Y83903D01*
X217282Y83957D01*
X217012Y84037D01*
X216742Y84132D01*
X216729D01*
X216716Y84145D01*
X216675Y84159D01*
X216621Y84186D01*
X216486Y84253D01*
X216311Y84347D01*
X216109Y84455D01*
X215893Y84590D01*
X215678Y84738D01*
X215462Y84914D01*
X215435Y84941D01*
X215368Y85008D01*
X215273Y85102D01*
X215138Y85251D01*
X215004Y85412D01*
X214855Y85615D01*
X214707Y85830D01*
X214572Y86059D01*
Y86073D01*
X214559Y86086D01*
X214545Y86127D01*
X214518Y86181D01*
X214464Y86302D01*
X214397Y86477D01*
X214343Y86680D01*
X214289Y86909D01*
X214249Y87165D01*
X214235Y87421D01*
Y87556D01*
X214262Y87691D01*
X214289Y87866D01*
X214343Y88068D01*
X214410Y88284D01*
X214518Y88499D01*
X214667Y88701D01*
X214680Y88728D01*
X214748Y88782D01*
X214828Y88877D01*
X214950Y88985D01*
X215098Y89106D01*
X215273Y89214D01*
X215475Y89322D01*
X215691Y89416D01*
X211755Y90265D01*
Y91114D01*
X219708Y89416D01*
D02*
G37*
G36*
X219344Y81530D02*
X219358D01*
X219385Y81517D01*
X219465Y81503D01*
X219492D01*
X219560D01*
X219587D01*
X219641Y81517D01*
X219735Y81530D01*
X219829Y81584D01*
X219937Y81652D01*
X220032Y81759D01*
X220086Y81908D01*
X220112Y81989D01*
Y82191D01*
X220099Y82285D01*
X220072Y82406D01*
Y82420D01*
X220059Y82433D01*
X220045Y82528D01*
X220018Y82635D01*
X219978Y82770D01*
X220652Y82743D01*
Y82730D01*
X220665Y82703D01*
X220692Y82649D01*
X220706Y82582D01*
X220733Y82487D01*
X220760Y82393D01*
X220813Y82150D01*
Y82137D01*
X220827Y82096D01*
Y82029D01*
X220840Y81948D01*
X220854Y81759D01*
X220867Y81571D01*
Y81490D01*
X220854Y81409D01*
X220840Y81314D01*
X220813Y81193D01*
X220773Y81072D01*
X220719Y80950D01*
X220638Y80843D01*
X220625Y80829D01*
X220598Y80802D01*
X220544Y80762D01*
X220463Y80721D01*
X220382Y80667D01*
X220261Y80627D01*
X220126Y80600D01*
X219978Y80587D01*
X219964D01*
X219924D01*
X219870D01*
X219816Y80600D01*
X219802D01*
X219762Y80613D01*
X219695Y80627D01*
X219627Y80641D01*
X211755Y82298D01*
Y83148D01*
X219344Y81530D01*
D02*
G37*
G36*
X216136Y79872D02*
X216217Y79859D01*
X216298Y79845D01*
X216513Y79778D01*
X216742Y79683D01*
X216864Y79616D01*
X216985Y79522D01*
X217107Y79427D01*
X217214Y79319D01*
X217322Y79185D01*
X217417Y79036D01*
Y79023D01*
X217430Y78996D01*
X217457Y78942D01*
X217484Y78875D01*
X217524Y78794D01*
X217565Y78686D01*
X217605Y78551D01*
X217646Y78403D01*
X217700Y78228D01*
X217740Y78039D01*
X217780Y77823D01*
X217807Y77580D01*
X217848Y77324D01*
X217861Y77055D01*
X217888Y76758D01*
Y75976D01*
X217875Y75693D01*
Y75545D01*
X217861Y75437D01*
Y75302D01*
X217848Y75154D01*
Y74992D01*
X217834Y74817D01*
X217848D01*
X217888Y74804D01*
X217956D01*
X218023Y74790D01*
X218037D01*
X218077D01*
X218131D01*
X218185D01*
X218198D01*
X218252D01*
X218347D01*
X218441Y74804D01*
X218576Y74817D01*
X218711Y74831D01*
X218994Y74898D01*
X219007D01*
X219061Y74925D01*
X219128Y74952D01*
X219223Y74992D01*
X219317Y75033D01*
X219439Y75087D01*
X219668Y75235D01*
X219681Y75248D01*
X219708Y75275D01*
X219762Y75329D01*
X219829Y75397D01*
X219897Y75478D01*
X219978Y75572D01*
X220126Y75788D01*
Y75801D01*
X220153Y75842D01*
X220180Y75923D01*
X220207Y76017D01*
X220234Y76125D01*
X220261Y76259D01*
X220274Y76408D01*
X220288Y76569D01*
Y76691D01*
X220274Y76758D01*
Y76853D01*
X220247Y76960D01*
X220207Y77190D01*
Y77203D01*
X220193Y77244D01*
X220166Y77297D01*
X220140Y77378D01*
X220059Y77567D01*
X219964Y77769D01*
X219951Y77783D01*
X219937Y77823D01*
X219897Y77877D01*
X219856Y77944D01*
X219735Y78106D01*
X219587Y78281D01*
X219573Y78295D01*
X219546Y78322D01*
X219506Y78362D01*
X219439Y78430D01*
X219277Y78551D01*
X219088Y78686D01*
X219290Y79373D01*
X219304Y79360D01*
X219358Y79333D01*
X219425Y79293D01*
X219506Y79225D01*
X219614Y79144D01*
X219722Y79050D01*
X219964Y78834D01*
X219978Y78821D01*
X220018Y78780D01*
X220072Y78713D01*
X220140Y78619D01*
X220220Y78524D01*
X220301Y78403D01*
X220477Y78120D01*
X220490Y78106D01*
X220517Y78052D01*
X220544Y77971D01*
X220598Y77877D01*
X220652Y77742D01*
X220706Y77608D01*
X220800Y77297D01*
Y77284D01*
X220813Y77230D01*
X220840Y77136D01*
X220854Y77028D01*
X220881Y76907D01*
X220908Y76758D01*
X220921Y76421D01*
Y76327D01*
X220908Y76206D01*
X220894Y76071D01*
X220867Y75896D01*
X220840Y75720D01*
X220786Y75532D01*
X220719Y75356D01*
X220706Y75343D01*
X220679Y75275D01*
X220625Y75195D01*
X220571Y75087D01*
X220477Y74965D01*
X220382Y74831D01*
X220274Y74696D01*
X220140Y74575D01*
X220126Y74561D01*
X220072Y74521D01*
X219991Y74467D01*
X219883Y74399D01*
X219762Y74318D01*
X219614Y74251D01*
X219452Y74170D01*
X219277Y74103D01*
X219250D01*
X219196Y74076D01*
X219088Y74049D01*
X218953Y74022D01*
X218792Y73995D01*
X218616Y73968D01*
X218414Y73954D01*
X218198Y73941D01*
X218185D01*
X218158D01*
X218117D01*
X218064D01*
X217915Y73954D01*
X217727Y73981D01*
X217497Y74008D01*
X217255Y74062D01*
X216985Y74143D01*
X216716Y74238D01*
X216702D01*
X216689Y74251D01*
X216648Y74264D01*
X216594Y74291D01*
X216459Y74359D01*
X216284Y74453D01*
X216095Y74561D01*
X215880Y74709D01*
X215664Y74871D01*
X215462Y75046D01*
X215435Y75073D01*
X215368Y75141D01*
X215273Y75248D01*
X215138Y75397D01*
X215004Y75586D01*
X214855Y75788D01*
X214707Y76030D01*
X214572Y76286D01*
Y76300D01*
X214559Y76313D01*
X214545Y76354D01*
X214518Y76408D01*
X214464Y76556D01*
X214397Y76745D01*
X214343Y76974D01*
X214289Y77230D01*
X214249Y77527D01*
X214235Y77823D01*
Y77985D01*
X214249Y78093D01*
X214262Y78214D01*
X214276Y78349D01*
X214343Y78632D01*
Y78645D01*
X214357Y78699D01*
X214384Y78767D01*
X214424Y78861D01*
X214532Y79063D01*
X214680Y79279D01*
X214694Y79293D01*
X214721Y79333D01*
X214761Y79373D01*
X214828Y79441D01*
X214909Y79508D01*
X215004Y79589D01*
X215219Y79724D01*
X215233Y79737D01*
X215273Y79751D01*
X215341Y79778D01*
X215435Y79805D01*
X215543Y79832D01*
X215678Y79859D01*
X215812Y79886D01*
X215974D01*
X215988D01*
X216015D01*
X216069D01*
X216136Y79872D01*
D02*
G37*
G36*
X212995Y73604D02*
Y72755D01*
X211755Y73011D01*
Y73860D01*
X212995Y73604D01*
D02*
G37*
G36*
X220800Y71932D02*
Y71097D01*
X214343Y72458D01*
Y73307D01*
X220800Y71932D01*
D02*
G37*
G36*
X216203Y70274D02*
X216379Y70261D01*
X216567Y70234D01*
X216783Y70193D01*
X217026Y70153D01*
X220800Y69358D01*
Y68522D01*
X217201Y69290D01*
X217174D01*
X217107Y69304D01*
X217012Y69331D01*
X216877Y69344D01*
X216729Y69371D01*
X216581Y69385D01*
X216257Y69398D01*
X216244D01*
X216203D01*
X216136D01*
X216055Y69385D01*
X215961Y69371D01*
X215866Y69344D01*
X215624Y69263D01*
X215516Y69209D01*
X215394Y69142D01*
X215300Y69061D01*
X215192Y68953D01*
X215125Y68832D01*
X215057Y68697D01*
X215017Y68535D01*
X215004Y68347D01*
Y68293D01*
X215017Y68225D01*
Y68131D01*
X215044Y68023D01*
X215071Y67915D01*
X215098Y67781D01*
X215152Y67646D01*
Y67632D01*
X215179Y67592D01*
X215206Y67511D01*
X215246Y67430D01*
X215300Y67322D01*
X215368Y67201D01*
X215543Y66945D01*
X215556Y66931D01*
X215583Y66891D01*
X215637Y66824D01*
X215705Y66743D01*
X215785Y66648D01*
X215893Y66540D01*
X216122Y66311D01*
X216136Y66298D01*
X216176Y66271D01*
X216244Y66217D01*
X216338Y66149D01*
X216446Y66069D01*
X216567Y65988D01*
X216850Y65839D01*
X220800Y65004D01*
Y64168D01*
X211755Y66082D01*
Y66931D01*
X215797Y66072D01*
X215799Y66069D01*
X215812D01*
X215797Y66072D01*
X215785Y66096D01*
X215745Y66123D01*
X215691Y66163D01*
X215556Y66271D01*
X215394Y66419D01*
X215206Y66594D01*
X215004Y66810D01*
X214828Y67053D01*
X214653Y67322D01*
Y67336D01*
X214640Y67363D01*
X214613Y67390D01*
X214586Y67457D01*
X214518Y67592D01*
X214437Y67794D01*
X214370Y68010D01*
X214303Y68266D01*
X214249Y68535D01*
X214235Y68818D01*
Y68953D01*
X214262Y69088D01*
X214289Y69263D01*
X214343Y69439D01*
X214424Y69627D01*
X214532Y69803D01*
X214680Y69951D01*
X214694Y69964D01*
X214761Y70005D01*
X214855Y70059D01*
X214990Y70126D01*
X215165Y70180D01*
X215368Y70234D01*
X215610Y70274D01*
X215880Y70288D01*
X215907D01*
X215961D01*
X216069D01*
X216203Y70274D01*
D02*
G37*
G36*
X213656Y63521D02*
X213642Y63507D01*
X213588Y63480D01*
X213507Y63413D01*
X213413Y63332D01*
X213292Y63224D01*
X213184Y63090D01*
X213076Y62914D01*
X212968Y62726D01*
X212955Y62699D01*
X212928Y62631D01*
X212887Y62510D01*
X212833Y62362D01*
X212793Y62173D01*
X212752Y61957D01*
X212725Y61715D01*
X212712Y61445D01*
Y61337D01*
X212725Y61216D01*
Y61067D01*
X212752Y60892D01*
X212779Y60704D01*
X212806Y60515D01*
X212860Y60326D01*
Y60313D01*
X212887Y60245D01*
X212914Y60164D01*
X212968Y60057D01*
X213022Y59935D01*
X213089Y59814D01*
X213170Y59679D01*
X213265Y59558D01*
X213278Y59544D01*
X213305Y59504D01*
X213359Y59450D01*
X213440Y59396D01*
X213534Y59315D01*
X213629Y59248D01*
X213750Y59180D01*
X213885Y59113D01*
X213898D01*
X213939Y59086D01*
X214020Y59073D01*
X214114Y59045D01*
X214222Y59019D01*
X214357Y59005D01*
X214640Y58978D01*
X214653D01*
X214694D01*
X214748Y58992D01*
X214815D01*
X214977Y59032D01*
X215152Y59099D01*
X215165D01*
X215192Y59126D01*
X215233Y59153D01*
X215273Y59194D01*
X215408Y59302D01*
X215529Y59463D01*
Y59477D01*
X215556Y59504D01*
X215583Y59558D01*
X215624Y59639D01*
X215664Y59733D01*
X215705Y59827D01*
X215758Y59949D01*
X215799Y60084D01*
Y60097D01*
X215812Y60151D01*
X215839Y60232D01*
X215866Y60340D01*
X215907Y60461D01*
X215947Y60609D01*
X215988Y60784D01*
X216028Y60960D01*
Y60987D01*
X216055Y61054D01*
X216082Y61148D01*
X216109Y61283D01*
X216163Y61431D01*
X216203Y61607D01*
X216325Y61944D01*
Y61957D01*
X216352Y62025D01*
X216379Y62106D01*
X216432Y62200D01*
X216486Y62321D01*
X216540Y62456D01*
X216702Y62699D01*
X216716Y62712D01*
X216742Y62752D01*
X216796Y62806D01*
X216850Y62887D01*
X216931Y62968D01*
X217026Y63049D01*
X217133Y63130D01*
X217255Y63197D01*
X217268Y63211D01*
X217309Y63224D01*
X217376Y63251D01*
X217470Y63292D01*
X217592Y63319D01*
X217727Y63346D01*
X217875Y63359D01*
X218037Y63373D01*
X218050D01*
X218064D01*
X218104D01*
X218158D01*
X218293Y63359D01*
X218455Y63332D01*
X218657Y63305D01*
X218872Y63251D01*
X219075Y63184D01*
X219290Y63090D01*
X219317Y63076D01*
X219371Y63036D01*
X219479Y62982D01*
X219600Y62901D01*
X219735Y62793D01*
X219883Y62658D01*
X220032Y62510D01*
X220166Y62335D01*
X220180Y62308D01*
X220220Y62254D01*
X220288Y62146D01*
X220369Y62011D01*
X220449Y61836D01*
X220530Y61647D01*
X220625Y61431D01*
X220692Y61189D01*
Y61175D01*
X220706Y61162D01*
Y61121D01*
X220719Y61081D01*
X220746Y60946D01*
X220773Y60771D01*
X220813Y60569D01*
X220840Y60326D01*
X220854Y60070D01*
X220867Y59787D01*
Y59706D01*
X220854Y59598D01*
X220840Y59463D01*
X220827Y59302D01*
X220800Y59099D01*
X220760Y58897D01*
X220706Y58668D01*
X220638Y58425D01*
X220557Y58169D01*
X220449Y57913D01*
X220328Y57657D01*
X220193Y57401D01*
X220018Y57158D01*
X219829Y56916D01*
X219600Y56700D01*
X218899Y57266D01*
X218926Y57280D01*
X218980Y57334D01*
X219075Y57414D01*
X219196Y57522D01*
X219331Y57671D01*
X219479Y57846D01*
X219627Y58061D01*
X219762Y58304D01*
Y58318D01*
X219776Y58331D01*
X219789Y58372D01*
X219816Y58425D01*
X219843Y58493D01*
X219870Y58574D01*
X219937Y58776D01*
X220005Y59019D01*
X220059Y59302D01*
X220099Y59625D01*
X220112Y59976D01*
Y60084D01*
X220099Y60164D01*
Y60259D01*
X220086Y60367D01*
X220059Y60623D01*
X220005Y60906D01*
X219924Y61202D01*
X219802Y61499D01*
X219654Y61755D01*
Y61769D01*
X219627Y61782D01*
X219560Y61863D01*
X219452Y61971D01*
X219304Y62092D01*
X219115Y62213D01*
X218886Y62308D01*
X218616Y62389D01*
X218468Y62402D01*
X218306Y62415D01*
X218293D01*
X218252D01*
X218185Y62402D01*
X218117D01*
X217942Y62348D01*
X217848Y62321D01*
X217754Y62267D01*
X217740D01*
X217713Y62240D01*
X217673Y62213D01*
X217619Y62159D01*
X217551Y62106D01*
X217484Y62038D01*
X217417Y61944D01*
X217349Y61849D01*
X217336Y61836D01*
X217322Y61795D01*
X217282Y61742D01*
X217241Y61661D01*
X217187Y61566D01*
X217133Y61458D01*
X217093Y61324D01*
X217039Y61175D01*
Y61162D01*
X217012Y61108D01*
X216985Y61027D01*
X216958Y60919D01*
X216918Y60784D01*
X216864Y60623D01*
X216823Y60447D01*
X216770Y60259D01*
X216756Y60232D01*
X216742Y60164D01*
X216716Y60070D01*
X216675Y59949D01*
X216635Y59800D01*
X216581Y59639D01*
X216473Y59315D01*
X216459Y59302D01*
X216446Y59248D01*
X216406Y59167D01*
X216365Y59073D01*
X216257Y58843D01*
X216109Y58614D01*
X216095Y58601D01*
X216069Y58574D01*
X216028Y58520D01*
X215961Y58452D01*
X215812Y58318D01*
X215610Y58183D01*
X215597D01*
X215556Y58156D01*
X215489Y58142D01*
X215408Y58115D01*
X215314Y58088D01*
X215192Y58061D01*
X215057Y58048D01*
X214909Y58034D01*
X214896D01*
X214882D01*
X214842D01*
X214788D01*
X214667Y58048D01*
X214491Y58075D01*
X214303Y58102D01*
X214100Y58142D01*
X213885Y58210D01*
X213669Y58304D01*
X213642Y58318D01*
X213575Y58358D01*
X213480Y58425D01*
X213346Y58506D01*
X213197Y58614D01*
X213049Y58749D01*
X212887Y58897D01*
X212739Y59073D01*
X212725Y59099D01*
X212672Y59153D01*
X212604Y59261D01*
X212523Y59396D01*
X212415Y59558D01*
X212321Y59760D01*
X212227Y59976D01*
X212146Y60205D01*
Y60218D01*
X212132Y60232D01*
Y60272D01*
X212119Y60313D01*
X212078Y60447D01*
X212038Y60623D01*
X212011Y60838D01*
X211971Y61067D01*
X211957Y61324D01*
X211944Y61607D01*
Y61742D01*
X211957Y61903D01*
X211971Y62106D01*
X212011Y62321D01*
X212052Y62564D01*
X212119Y62820D01*
X212213Y63049D01*
Y63063D01*
X212227Y63076D01*
X212254Y63157D01*
X212321Y63265D01*
X212402Y63413D01*
X212510Y63575D01*
X212631Y63750D01*
X212779Y63925D01*
X212955Y64087D01*
X213656Y63521D01*
D02*
G37*
G36*
X225225Y89896D02*
X225312D01*
X225411Y89874D01*
X225531Y89852D01*
X225651Y89820D01*
X225771Y89776D01*
X225782D01*
X225826Y89754D01*
X225891Y89721D01*
X225968Y89688D01*
X226055Y89645D01*
X226154Y89579D01*
X226361Y89437D01*
X226372Y89426D01*
X226405Y89404D01*
X226449Y89361D01*
X226515Y89295D01*
X226591Y89218D01*
X226657Y89131D01*
X226733Y89033D01*
X226810Y88923D01*
X226820Y88912D01*
X226842Y88869D01*
X226864Y88814D01*
X226897Y88727D01*
X226941Y88639D01*
X226974Y88519D01*
X227006Y88399D01*
X227028Y88268D01*
Y88289D01*
X227050Y88355D01*
X227083Y88442D01*
X227127Y88552D01*
X227192Y88683D01*
X227269Y88803D01*
X227378Y88934D01*
X227509Y89044D01*
X227531Y89055D01*
X227575Y89087D01*
X227662Y89131D01*
X227771Y89186D01*
X227903Y89229D01*
X228066Y89273D01*
X228252Y89306D01*
X228449Y89317D01*
X228460D01*
X228471D01*
X228537D01*
X228646Y89306D01*
X228766Y89295D01*
X228919Y89262D01*
X229083Y89229D01*
X229258Y89175D01*
X229422Y89109D01*
X229444Y89098D01*
X229498Y89076D01*
X229575Y89022D01*
X229684Y88956D01*
X229804Y88880D01*
X229936Y88781D01*
X230067Y88661D01*
X230187Y88530D01*
X230198Y88519D01*
X230242Y88464D01*
X230296Y88388D01*
X230373Y88289D01*
X230449Y88158D01*
X230537Y88016D01*
X230613Y87852D01*
X230690Y87677D01*
X230701Y87656D01*
X230722Y87590D01*
X230744Y87492D01*
X230777Y87360D01*
X230821Y87207D01*
X230843Y87022D01*
X230865Y86825D01*
X230876Y86617D01*
Y86497D01*
X230865Y86431D01*
X230854Y86366D01*
X230832Y86191D01*
X230799Y85994D01*
X230744Y85797D01*
X230668Y85590D01*
X230570Y85404D01*
X230559Y85382D01*
X230515Y85327D01*
X230438Y85251D01*
X230351Y85153D01*
X230231Y85043D01*
X230078Y84934D01*
X229914Y84847D01*
X229717Y84770D01*
X229291Y85316D01*
X229313Y85327D01*
X229367Y85338D01*
X229444Y85371D01*
X229542Y85415D01*
X229651Y85480D01*
X229772Y85557D01*
X229881Y85655D01*
X229990Y85776D01*
X230001Y85797D01*
X230034Y85841D01*
X230078Y85918D01*
X230121Y86027D01*
X230165Y86169D01*
X230209Y86333D01*
X230242Y86519D01*
X230253Y86737D01*
Y86825D01*
X230242Y86879D01*
Y86956D01*
X230231Y87033D01*
X230198Y87229D01*
X230143Y87448D01*
X230056Y87666D01*
X229946Y87885D01*
X229794Y88093D01*
X229783Y88104D01*
X229772Y88115D01*
X229706Y88169D01*
X229608Y88257D01*
X229466Y88355D01*
X229280Y88442D01*
X229061Y88530D01*
X228810Y88585D01*
X228668Y88606D01*
X228526D01*
X228515D01*
X228504D01*
X228438D01*
X228340Y88585D01*
X228220Y88563D01*
X228078Y88519D01*
X227935Y88464D01*
X227804Y88377D01*
X227673Y88257D01*
X227662Y88246D01*
X227618Y88191D01*
X227564Y88115D01*
X227509Y87994D01*
X227444Y87852D01*
X227400Y87677D01*
X227356Y87470D01*
X227345Y87229D01*
Y86989D01*
X226766Y87109D01*
Y87437D01*
X226755Y87524D01*
Y87623D01*
X226733Y87743D01*
X226711Y87863D01*
X226689Y87994D01*
X226646Y88125D01*
X226635Y88136D01*
X226624Y88180D01*
X226602Y88246D01*
X226558Y88322D01*
X226460Y88508D01*
X226329Y88694D01*
X226318Y88705D01*
X226296Y88727D01*
X226252Y88770D01*
X226187Y88825D01*
X226121Y88880D01*
X226034Y88934D01*
X225837Y89044D01*
X225826Y89055D01*
X225782Y89065D01*
X225728Y89087D01*
X225651Y89109D01*
X225564Y89131D01*
X225454Y89153D01*
X225345Y89175D01*
X225225D01*
X225214D01*
X225203D01*
X225148D01*
X225061Y89164D01*
X224952Y89131D01*
X224831Y89098D01*
X224711Y89044D01*
X224591Y88967D01*
X224492Y88858D01*
X224482Y88847D01*
X224449Y88803D01*
X224416Y88738D01*
X224361Y88639D01*
X224318Y88519D01*
X224285Y88388D01*
X224252Y88224D01*
X224241Y88038D01*
Y87951D01*
X224252Y87841D01*
X224274Y87710D01*
X224307Y87557D01*
X224350Y87382D01*
X224416Y87207D01*
X224503Y87033D01*
X224514Y87011D01*
X224547Y86956D01*
X224602Y86869D01*
X224689Y86770D01*
X224787Y86650D01*
X224908Y86519D01*
X225039Y86388D01*
X225203Y86256D01*
X224777Y85918D01*
X224766Y85929D01*
X224733Y85950D01*
X224678Y85983D01*
X224624Y86038D01*
X224547Y86103D01*
X224471Y86169D01*
X224307Y86344D01*
X224296Y86355D01*
X224274Y86388D01*
X224230Y86442D01*
X224176Y86508D01*
X224121Y86595D01*
X224055Y86694D01*
X223935Y86901D01*
X223924Y86912D01*
X223913Y86956D01*
X223880Y87022D01*
X223848Y87098D01*
X223815Y87196D01*
X223771Y87306D01*
X223706Y87546D01*
Y87557D01*
X223694Y87601D01*
X223673Y87677D01*
X223662Y87765D01*
X223640Y87863D01*
X223629Y87983D01*
X223618Y88246D01*
Y88322D01*
X223629Y88377D01*
Y88442D01*
X223640Y88508D01*
X223673Y88683D01*
X223716Y88880D01*
X223793Y89076D01*
X223891Y89273D01*
X224022Y89459D01*
X224044Y89481D01*
X224099Y89525D01*
X224186Y89601D01*
X224307Y89688D01*
X224460Y89765D01*
X224645Y89842D01*
X224853Y89885D01*
X225094Y89907D01*
X225104D01*
X225148D01*
X225225Y89896D01*
D02*
G37*
G36*
X229400Y83819D02*
Y83229D01*
X228416Y83447D01*
Y84027D01*
X229400Y83819D01*
D02*
G37*
G36*
X225935Y82704D02*
X226023D01*
X226208Y82682D01*
X226438Y82650D01*
X226678Y82606D01*
X226941Y82540D01*
X227203Y82453D01*
X227214D01*
X227236Y82442D01*
X227269Y82431D01*
X227323Y82409D01*
X227378Y82376D01*
X227444Y82344D01*
X227607Y82267D01*
X227804Y82169D01*
X228001Y82048D01*
X228209Y81906D01*
X228405Y81753D01*
X228427Y81731D01*
X228493Y81677D01*
X228580Y81589D01*
X228690Y81469D01*
X228821Y81316D01*
X228952Y81141D01*
X229083Y80955D01*
X229203Y80748D01*
Y80737D01*
X229214Y80726D01*
X229225Y80693D01*
X229247Y80649D01*
X229302Y80540D01*
X229345Y80387D01*
X229400Y80212D01*
X229455Y80015D01*
X229487Y79797D01*
X229498Y79567D01*
Y79491D01*
X229487Y79414D01*
X229476Y79316D01*
X229455Y79196D01*
X229433Y79065D01*
X229389Y78922D01*
X229334Y78791D01*
X229324Y78780D01*
X229302Y78737D01*
X229258Y78671D01*
X229203Y78594D01*
X229138Y78496D01*
X229061Y78409D01*
X228963Y78310D01*
X228854Y78212D01*
X228843Y78201D01*
X228799Y78168D01*
X228733Y78124D01*
X228646Y78081D01*
X228537Y78015D01*
X228405Y77950D01*
X228263Y77895D01*
X228110Y77840D01*
X228088D01*
X228034Y77819D01*
X227946Y77808D01*
X227837Y77786D01*
X227695Y77764D01*
X227542Y77742D01*
X227367Y77731D01*
X227181Y77720D01*
X227170D01*
X227148D01*
X227105D01*
X227050D01*
X226974Y77731D01*
X226897D01*
X226700Y77753D01*
X226471Y77786D01*
X226230Y77829D01*
X225968Y77895D01*
X225706Y77982D01*
X225695D01*
X225673Y77993D01*
X225640Y78015D01*
X225585Y78026D01*
X225531Y78059D01*
X225465Y78092D01*
X225301Y78168D01*
X225115Y78267D01*
X224908Y78387D01*
X224711Y78518D01*
X224514Y78671D01*
X224503D01*
X224492Y78693D01*
X224427Y78748D01*
X224339Y78835D01*
X224219Y78966D01*
X224088Y79108D01*
X223957Y79283D01*
X223826Y79469D01*
X223706Y79677D01*
Y79688D01*
X223694Y79698D01*
X223673Y79731D01*
X223662Y79775D01*
X223607Y79884D01*
X223552Y80037D01*
X223498Y80212D01*
X223443Y80420D01*
X223410Y80638D01*
X223399Y80868D01*
Y80934D01*
X223410Y81021D01*
X223421Y81119D01*
X223443Y81240D01*
X223476Y81360D01*
X223520Y81491D01*
X223574Y81622D01*
X223585Y81633D01*
X223607Y81677D01*
X223651Y81742D01*
X223706Y81830D01*
X223771Y81917D01*
X223858Y82016D01*
X223957Y82114D01*
X224066Y82212D01*
X224077Y82223D01*
X224121Y82256D01*
X224186Y82300D01*
X224274Y82354D01*
X224383Y82409D01*
X224503Y82475D01*
X224645Y82529D01*
X224798Y82584D01*
X224820Y82595D01*
X224875Y82606D01*
X224962Y82628D01*
X225072Y82650D01*
X225214Y82671D01*
X225378Y82693D01*
X225553Y82715D01*
X225739D01*
X225749D01*
X225771D01*
X225815D01*
X225870D01*
X225935Y82704D01*
D02*
G37*
G36*
X224197Y77316D02*
X224230Y77305D01*
X224285Y77294D01*
X224350Y77272D01*
X224427Y77239D01*
X224514Y77217D01*
X224613Y77174D01*
X224733Y77130D01*
X224853Y77086D01*
X225137Y76977D01*
X225454Y76846D01*
X225815Y76682D01*
X226198Y76507D01*
X226602Y76299D01*
X227039Y76059D01*
X227487Y75797D01*
X227957Y75512D01*
X228427Y75195D01*
X228919Y74845D01*
X229400Y74463D01*
Y73731D01*
X224165Y72900D01*
Y73611D01*
X228777Y74255D01*
X228766Y74266D01*
X228722Y74299D01*
X228668Y74343D01*
X228580Y74397D01*
X228482Y74474D01*
X228351Y74561D01*
X228220Y74660D01*
X228066Y74769D01*
X227892Y74878D01*
X227717Y74999D01*
X227323Y75250D01*
X226908Y75501D01*
X226471Y75742D01*
X226460Y75753D01*
X226416Y75764D01*
X226350Y75797D01*
X226263Y75840D01*
X226165Y75895D01*
X226034Y75950D01*
X225891Y76015D01*
X225739Y76092D01*
X225574Y76157D01*
X225389Y76234D01*
X224995Y76387D01*
X224591Y76529D01*
X224165Y76660D01*
Y77327D01*
X224176D01*
X224197Y77316D01*
D02*
G37*
G36*
X205766Y51671D02*
X205836Y51660D01*
X205906Y51648D01*
X206092Y51590D01*
X206290Y51508D01*
X206395Y51450D01*
X206500Y51368D01*
X206605Y51287D01*
X206698Y51193D01*
X206792Y51077D01*
X206873Y50948D01*
Y50937D01*
X206885Y50913D01*
X206908Y50867D01*
X206932Y50809D01*
X206967Y50739D01*
X207002Y50645D01*
X207037Y50529D01*
X207072Y50400D01*
X207118Y50249D01*
X207153Y50086D01*
X207188Y49899D01*
X207211Y49689D01*
X207246Y49468D01*
X207258Y49234D01*
X207281Y48978D01*
Y48302D01*
X207270Y48057D01*
Y47929D01*
X207258Y47835D01*
Y47719D01*
X207246Y47590D01*
Y47450D01*
X207235Y47299D01*
X207246D01*
X207281Y47287D01*
X207340D01*
X207398Y47276D01*
X207410D01*
X207445D01*
X207491D01*
X207538D01*
X207550D01*
X207596D01*
X207678D01*
X207759Y47287D01*
X207876Y47299D01*
X207993Y47311D01*
X208238Y47369D01*
X208249D01*
X208296Y47392D01*
X208354Y47415D01*
X208436Y47450D01*
X208517Y47485D01*
X208622Y47532D01*
X208821Y47660D01*
X208832Y47672D01*
X208856Y47695D01*
X208902Y47742D01*
X208961Y47800D01*
X209019Y47870D01*
X209089Y47952D01*
X209217Y48138D01*
Y48150D01*
X209240Y48185D01*
X209264Y48255D01*
X209287Y48337D01*
X209310Y48430D01*
X209334Y48546D01*
X209345Y48675D01*
X209357Y48815D01*
Y48920D01*
X209345Y48978D01*
Y49060D01*
X209322Y49153D01*
X209287Y49351D01*
Y49363D01*
X209275Y49398D01*
X209252Y49444D01*
X209229Y49514D01*
X209159Y49678D01*
X209077Y49852D01*
X209065Y49864D01*
X209054Y49899D01*
X209019Y49946D01*
X208984Y50004D01*
X208879Y50144D01*
X208751Y50295D01*
X208739Y50307D01*
X208716Y50330D01*
X208681Y50365D01*
X208622Y50424D01*
X208482Y50529D01*
X208319Y50645D01*
X208494Y51240D01*
X208506Y51228D01*
X208552Y51205D01*
X208611Y51170D01*
X208681Y51112D01*
X208774Y51042D01*
X208867Y50960D01*
X209077Y50774D01*
X209089Y50762D01*
X209124Y50727D01*
X209170Y50669D01*
X209229Y50587D01*
X209299Y50505D01*
X209369Y50400D01*
X209520Y50156D01*
X209532Y50144D01*
X209555Y50097D01*
X209578Y50027D01*
X209625Y49946D01*
X209672Y49829D01*
X209718Y49712D01*
X209800Y49444D01*
Y49433D01*
X209812Y49386D01*
X209835Y49304D01*
X209847Y49211D01*
X209870Y49106D01*
X209893Y48978D01*
X209905Y48686D01*
Y48605D01*
X209893Y48500D01*
X209882Y48383D01*
X209858Y48232D01*
X209835Y48080D01*
X209788Y47917D01*
X209730Y47765D01*
X209718Y47754D01*
X209695Y47695D01*
X209648Y47625D01*
X209602Y47532D01*
X209520Y47427D01*
X209438Y47311D01*
X209345Y47194D01*
X209229Y47089D01*
X209217Y47077D01*
X209170Y47042D01*
X209100Y46996D01*
X209007Y46937D01*
X208902Y46867D01*
X208774Y46809D01*
X208634Y46739D01*
X208482Y46681D01*
X208459D01*
X208413Y46657D01*
X208319Y46634D01*
X208203Y46611D01*
X208063Y46588D01*
X207911Y46564D01*
X207736Y46553D01*
X207550Y46541D01*
X207538D01*
X207515D01*
X207480D01*
X207433D01*
X207305Y46553D01*
X207141Y46576D01*
X206943Y46599D01*
X206733Y46646D01*
X206500Y46716D01*
X206267Y46797D01*
X206255D01*
X206244Y46809D01*
X206209Y46821D01*
X206162Y46844D01*
X206046Y46902D01*
X205894Y46984D01*
X205731Y47077D01*
X205544Y47205D01*
X205358Y47346D01*
X205183Y47497D01*
X205159Y47520D01*
X205101Y47579D01*
X205019Y47672D01*
X204903Y47800D01*
X204786Y47963D01*
X204658Y48138D01*
X204530Y48348D01*
X204413Y48570D01*
Y48581D01*
X204401Y48593D01*
X204390Y48628D01*
X204366Y48675D01*
X204320Y48803D01*
X204261Y48966D01*
X204215Y49164D01*
X204168Y49386D01*
X204133Y49643D01*
X204122Y49899D01*
Y50039D01*
X204133Y50132D01*
X204145Y50237D01*
X204157Y50354D01*
X204215Y50599D01*
Y50610D01*
X204226Y50657D01*
X204250Y50715D01*
X204285Y50797D01*
X204378Y50972D01*
X204506Y51158D01*
X204518Y51170D01*
X204541Y51205D01*
X204576Y51240D01*
X204635Y51298D01*
X204705Y51357D01*
X204786Y51427D01*
X204973Y51543D01*
X204984Y51555D01*
X205019Y51566D01*
X205078Y51590D01*
X205159Y51613D01*
X205253Y51636D01*
X205369Y51660D01*
X205486Y51683D01*
X205626D01*
X205637D01*
X205661D01*
X205707D01*
X205766Y51671D01*
D02*
G37*
G36*
X208541Y44547D02*
X208552D01*
X208576Y44535D01*
X208646Y44524D01*
X208669D01*
X208727D01*
X208751D01*
X208797Y44535D01*
X208879Y44547D01*
X208961Y44594D01*
X209054Y44652D01*
X209135Y44745D01*
X209182Y44873D01*
X209205Y44943D01*
Y45118D01*
X209194Y45200D01*
X209170Y45305D01*
Y45317D01*
X209159Y45328D01*
X209147Y45410D01*
X209124Y45503D01*
X209089Y45620D01*
X209672Y45597D01*
Y45585D01*
X209683Y45562D01*
X209707Y45515D01*
X209718Y45456D01*
X209742Y45375D01*
X209765Y45293D01*
X209812Y45083D01*
Y45072D01*
X209823Y45037D01*
Y44978D01*
X209835Y44908D01*
X209847Y44745D01*
X209858Y44582D01*
Y44512D01*
X209847Y44442D01*
X209835Y44361D01*
X209812Y44256D01*
X209777Y44151D01*
X209730Y44046D01*
X209660Y43952D01*
X209648Y43941D01*
X209625Y43917D01*
X209578Y43882D01*
X209508Y43848D01*
X209438Y43801D01*
X209334Y43766D01*
X209217Y43742D01*
X209089Y43731D01*
X209077D01*
X209042D01*
X208996D01*
X208949Y43742D01*
X208937D01*
X208902Y43754D01*
X208844Y43766D01*
X208786Y43777D01*
X201976Y45212D01*
Y45946D01*
X208541Y44547D01*
D02*
G37*
G36*
X206710Y42961D02*
X206873Y42938D01*
X207060Y42915D01*
X207281Y42868D01*
X207515Y42810D01*
X207748Y42728D01*
X207759D01*
X207771Y42716D01*
X207806Y42705D01*
X207853Y42682D01*
X207969Y42623D01*
X208121Y42553D01*
X208284Y42460D01*
X208471Y42343D01*
X208669Y42203D01*
X208856Y42052D01*
X208879Y42028D01*
X208937Y41982D01*
X209019Y41889D01*
X209135Y41772D01*
X209252Y41620D01*
X209380Y41457D01*
X209508Y41271D01*
X209625Y41061D01*
Y41049D01*
X209637Y41037D01*
X209672Y40967D01*
X209718Y40851D01*
X209765Y40699D01*
X209812Y40524D01*
X209858Y40326D01*
X209893Y40116D01*
X209905Y39883D01*
Y39813D01*
X209893Y39766D01*
X209882Y39650D01*
X209858Y39487D01*
X209823Y39312D01*
X209753Y39125D01*
X209672Y38939D01*
X209555Y38764D01*
X209543Y38740D01*
X209485Y38694D01*
X209415Y38612D01*
X209310Y38530D01*
X209170Y38426D01*
X209019Y38321D01*
X208844Y38227D01*
X208646Y38146D01*
X212074Y37411D01*
Y36688D01*
X204215Y38356D01*
Y38997D01*
X205286Y38778D01*
X205276Y38799D01*
X205206Y38857D01*
X205113Y38939D01*
X204996Y39067D01*
X204856Y39218D01*
X204716Y39382D01*
X204576Y39580D01*
X204448Y39790D01*
Y39801D01*
X204436Y39813D01*
X204413Y39848D01*
X204401Y39895D01*
X204343Y40011D01*
X204285Y40163D01*
X204226Y40350D01*
X204168Y40548D01*
X204133Y40769D01*
X204122Y40991D01*
Y41072D01*
X204133Y41154D01*
X204145Y41271D01*
X204168Y41399D01*
X204203Y41539D01*
X204250Y41679D01*
X204320Y41819D01*
X204331Y41830D01*
X204355Y41877D01*
X204401Y41947D01*
X204448Y42040D01*
X204530Y42133D01*
X204611Y42238D01*
X204716Y42343D01*
X204833Y42448D01*
X204844Y42460D01*
X204891Y42495D01*
X204949Y42542D01*
X205043Y42588D01*
X205148Y42658D01*
X205276Y42716D01*
X205428Y42775D01*
X205579Y42833D01*
X205602Y42845D01*
X205649Y42856D01*
X205742Y42880D01*
X205847Y42903D01*
X205987Y42926D01*
X206139Y42950D01*
X206302Y42973D01*
X206465D01*
X206477D01*
X206489D01*
X206523D01*
X206582D01*
X206710Y42961D01*
D02*
G37*
G36*
X205672Y36478D02*
X205801D01*
X205952Y36455D01*
X206127Y36432D01*
X206325Y36408D01*
X206535Y36362D01*
X209800Y35662D01*
Y34928D01*
X206687Y35581D01*
X206675D01*
X206640Y35592D01*
X206593Y35604D01*
X206535Y35616D01*
X206384Y35639D01*
X206220Y35662D01*
X206209D01*
X206185Y35674D01*
X206139D01*
X206081Y35686D01*
X205952Y35697D01*
X205812D01*
X205801D01*
X205766D01*
X205719D01*
X205649Y35686D01*
X205579Y35674D01*
X205486Y35651D01*
X205299Y35592D01*
X205206Y35546D01*
X205113Y35487D01*
X205019Y35417D01*
X204949Y35336D01*
X204879Y35242D01*
X204833Y35126D01*
X204798Y34997D01*
X204786Y34846D01*
Y34729D01*
X204798Y34659D01*
X204809Y34566D01*
X204833Y34461D01*
X204903Y34240D01*
Y34228D01*
X204926Y34193D01*
X204949Y34135D01*
X204984Y34065D01*
X205031Y33971D01*
X205089Y33878D01*
X205241Y33680D01*
X205253Y33668D01*
X205276Y33633D01*
X205323Y33587D01*
X205381Y33517D01*
X205463Y33435D01*
X205544Y33353D01*
X205754Y33179D01*
X205766Y33167D01*
X205801Y33144D01*
X205859Y33097D01*
X205941Y33050D01*
X206034Y32980D01*
X206150Y32922D01*
X206395Y32782D01*
X209800Y32071D01*
Y31336D01*
X206687Y31989D01*
X206675D01*
X206640Y32001D01*
X206593Y32013D01*
X206523Y32024D01*
X206372Y32048D01*
X206197Y32071D01*
X206185D01*
X206162Y32083D01*
X206115D01*
X206057Y32094D01*
X205929Y32106D01*
X205789D01*
X205777D01*
X205742D01*
X205696D01*
X205637Y32094D01*
X205556Y32083D01*
X205474Y32059D01*
X205288Y32001D01*
X205194Y31954D01*
X205101Y31896D01*
X205019Y31838D01*
X204938Y31756D01*
X204879Y31651D01*
X204833Y31546D01*
X204798Y31418D01*
X204786Y31266D01*
Y31208D01*
X204798Y31161D01*
X204809Y31045D01*
X204844Y30893D01*
X204891Y30718D01*
X204973Y30520D01*
X205078Y30310D01*
X205229Y30100D01*
Y30089D01*
X205253Y30077D01*
X205311Y30007D01*
X205404Y29902D01*
X205532Y29774D01*
X205696Y29634D01*
X205894Y29482D01*
X206127Y29331D01*
X206384Y29191D01*
X209800Y28468D01*
Y27745D01*
X204215Y28923D01*
Y29599D01*
X205473Y29322D01*
X205474Y29319D01*
X205486D01*
X205473Y29322D01*
X205463Y29342D01*
X205428Y29366D01*
X205381Y29401D01*
X205264Y29494D01*
X205124Y29622D01*
X204961Y29774D01*
X204786Y29960D01*
X204635Y30159D01*
X204483Y30380D01*
Y30392D01*
X204471Y30404D01*
X204448Y30439D01*
X204425Y30485D01*
X204366Y30602D01*
X204296Y30765D01*
X204238Y30951D01*
X204180Y31161D01*
X204133Y31383D01*
X204122Y31616D01*
Y31721D01*
X204145Y31838D01*
X204168Y31978D01*
X204215Y32129D01*
X204285Y32292D01*
X204378Y32444D01*
X204506Y32572D01*
X204518Y32584D01*
X204576Y32619D01*
X204658Y32677D01*
X204774Y32735D01*
X204926Y32782D01*
X205113Y32840D01*
X205334Y32875D01*
X205579Y32887D01*
X205567Y32899D01*
X205544Y32910D01*
X205509Y32934D01*
X205463Y32969D01*
X205334Y33074D01*
X205171Y33202D01*
X204996Y33365D01*
X204821Y33552D01*
X204646Y33762D01*
X204495Y33983D01*
Y33995D01*
X204483Y34006D01*
X204460Y34041D01*
X204436Y34088D01*
X204378Y34216D01*
X204308Y34368D01*
X204238Y34566D01*
X204180Y34776D01*
X204133Y35009D01*
X204122Y35242D01*
Y35347D01*
X204145Y35476D01*
X204168Y35616D01*
X204215Y35779D01*
X204273Y35930D01*
X204366Y36082D01*
X204483Y36198D01*
X204495Y36210D01*
X204553Y36245D01*
X204635Y36292D01*
X204740Y36350D01*
X204891Y36397D01*
X205066Y36443D01*
X205264Y36478D01*
X205498Y36490D01*
X205521D01*
X205579D01*
X205672Y36478D01*
D02*
G37*
G36*
X203049Y27628D02*
Y26894D01*
X201976Y27115D01*
Y27850D01*
X203049Y27628D01*
D02*
G37*
G36*
X209800Y26183D02*
Y25460D01*
X204215Y26637D01*
Y27372D01*
X209800Y26183D01*
D02*
G37*
G36*
X203620Y24900D02*
X203608Y24888D01*
X203562Y24865D01*
X203492Y24807D01*
X203410Y24737D01*
X203305Y24643D01*
X203212Y24527D01*
X203119Y24375D01*
X203026Y24212D01*
X203014Y24189D01*
X202991Y24130D01*
X202956Y24025D01*
X202909Y23897D01*
X202874Y23734D01*
X202839Y23547D01*
X202816Y23337D01*
X202804Y23104D01*
Y23011D01*
X202816Y22906D01*
Y22778D01*
X202839Y22626D01*
X202862Y22463D01*
X202886Y22300D01*
X202932Y22137D01*
Y22125D01*
X202956Y22067D01*
X202979Y21997D01*
X203026Y21903D01*
X203072Y21798D01*
X203131Y21693D01*
X203200Y21577D01*
X203282Y21472D01*
X203294Y21460D01*
X203317Y21425D01*
X203364Y21379D01*
X203434Y21332D01*
X203515Y21262D01*
X203597Y21204D01*
X203702Y21145D01*
X203818Y21087D01*
X203830D01*
X203865Y21064D01*
X203935Y21052D01*
X204017Y21029D01*
X204110Y21005D01*
X204226Y20994D01*
X204471Y20970D01*
X204483D01*
X204518D01*
X204565Y20982D01*
X204623D01*
X204763Y21017D01*
X204914Y21076D01*
X204926D01*
X204949Y21099D01*
X204984Y21122D01*
X205019Y21157D01*
X205136Y21250D01*
X205241Y21390D01*
Y21402D01*
X205264Y21425D01*
X205288Y21472D01*
X205323Y21542D01*
X205358Y21623D01*
X205393Y21705D01*
X205439Y21810D01*
X205474Y21927D01*
Y21938D01*
X205486Y21985D01*
X205509Y22055D01*
X205532Y22148D01*
X205567Y22253D01*
X205602Y22381D01*
X205637Y22533D01*
X205672Y22685D01*
Y22708D01*
X205696Y22766D01*
X205719Y22848D01*
X205742Y22964D01*
X205789Y23093D01*
X205824Y23244D01*
X205929Y23536D01*
Y23547D01*
X205952Y23606D01*
X205976Y23676D01*
X206022Y23757D01*
X206069Y23862D01*
X206115Y23979D01*
X206255Y24189D01*
X206267Y24200D01*
X206290Y24235D01*
X206337Y24282D01*
X206384Y24352D01*
X206454Y24422D01*
X206535Y24492D01*
X206628Y24562D01*
X206733Y24620D01*
X206745Y24632D01*
X206780Y24643D01*
X206838Y24667D01*
X206920Y24702D01*
X207025Y24725D01*
X207141Y24748D01*
X207270Y24760D01*
X207410Y24772D01*
X207421D01*
X207433D01*
X207468D01*
X207515D01*
X207631Y24760D01*
X207771Y24737D01*
X207946Y24713D01*
X208133Y24667D01*
X208308Y24609D01*
X208494Y24527D01*
X208517Y24515D01*
X208564Y24480D01*
X208657Y24434D01*
X208762Y24364D01*
X208879Y24270D01*
X209007Y24154D01*
X209135Y24025D01*
X209252Y23874D01*
X209264Y23851D01*
X209299Y23804D01*
X209357Y23711D01*
X209427Y23594D01*
X209497Y23442D01*
X209567Y23279D01*
X209648Y23093D01*
X209707Y22883D01*
Y22871D01*
X209718Y22860D01*
Y22825D01*
X209730Y22790D01*
X209753Y22673D01*
X209777Y22521D01*
X209812Y22346D01*
X209835Y22137D01*
X209847Y21915D01*
X209858Y21670D01*
Y21600D01*
X209847Y21507D01*
X209835Y21390D01*
X209823Y21250D01*
X209800Y21076D01*
X209765Y20901D01*
X209718Y20702D01*
X209660Y20493D01*
X209590Y20271D01*
X209497Y20049D01*
X209392Y19828D01*
X209275Y19606D01*
X209124Y19396D01*
X208961Y19187D01*
X208762Y19000D01*
X208156Y19490D01*
X208179Y19501D01*
X208226Y19548D01*
X208308Y19618D01*
X208413Y19711D01*
X208529Y19839D01*
X208657Y19991D01*
X208786Y20178D01*
X208902Y20388D01*
Y20399D01*
X208914Y20411D01*
X208926Y20446D01*
X208949Y20493D01*
X208972Y20551D01*
X208996Y20621D01*
X209054Y20796D01*
X209112Y21005D01*
X209159Y21250D01*
X209194Y21530D01*
X209205Y21833D01*
Y21927D01*
X209194Y21997D01*
Y22078D01*
X209182Y22172D01*
X209159Y22393D01*
X209112Y22638D01*
X209042Y22894D01*
X208937Y23151D01*
X208809Y23372D01*
Y23384D01*
X208786Y23396D01*
X208727Y23466D01*
X208634Y23559D01*
X208506Y23664D01*
X208343Y23769D01*
X208144Y23851D01*
X207911Y23921D01*
X207783Y23932D01*
X207643Y23944D01*
X207631D01*
X207596D01*
X207538Y23932D01*
X207480D01*
X207328Y23886D01*
X207246Y23862D01*
X207165Y23816D01*
X207153D01*
X207130Y23792D01*
X207095Y23769D01*
X207048Y23722D01*
X206990Y23676D01*
X206932Y23617D01*
X206873Y23536D01*
X206815Y23454D01*
X206803Y23442D01*
X206792Y23407D01*
X206757Y23361D01*
X206722Y23291D01*
X206675Y23209D01*
X206628Y23116D01*
X206593Y22999D01*
X206547Y22871D01*
Y22860D01*
X206523Y22813D01*
X206500Y22743D01*
X206477Y22650D01*
X206442Y22533D01*
X206395Y22393D01*
X206360Y22242D01*
X206314Y22078D01*
X206302Y22055D01*
X206290Y21997D01*
X206267Y21915D01*
X206232Y21810D01*
X206197Y21682D01*
X206150Y21542D01*
X206057Y21262D01*
X206046Y21250D01*
X206034Y21204D01*
X205999Y21134D01*
X205964Y21052D01*
X205871Y20854D01*
X205742Y20656D01*
X205731Y20644D01*
X205707Y20621D01*
X205672Y20574D01*
X205614Y20516D01*
X205486Y20399D01*
X205311Y20283D01*
X205299D01*
X205264Y20259D01*
X205206Y20248D01*
X205136Y20224D01*
X205054Y20201D01*
X204949Y20178D01*
X204833Y20166D01*
X204705Y20154D01*
X204693D01*
X204681D01*
X204646D01*
X204600D01*
X204495Y20166D01*
X204343Y20189D01*
X204180Y20213D01*
X204005Y20248D01*
X203818Y20306D01*
X203632Y20388D01*
X203608Y20399D01*
X203550Y20434D01*
X203469Y20493D01*
X203352Y20562D01*
X203224Y20656D01*
X203096Y20772D01*
X202956Y20901D01*
X202827Y21052D01*
X202816Y21076D01*
X202769Y21122D01*
X202711Y21215D01*
X202641Y21332D01*
X202548Y21472D01*
X202466Y21647D01*
X202384Y21833D01*
X202314Y22032D01*
Y22043D01*
X202303Y22055D01*
Y22090D01*
X202291Y22125D01*
X202256Y22242D01*
X202221Y22393D01*
X202198Y22580D01*
X202163Y22778D01*
X202151Y22999D01*
X202139Y23244D01*
Y23361D01*
X202151Y23501D01*
X202163Y23676D01*
X202198Y23862D01*
X202233Y24072D01*
X202291Y24294D01*
X202373Y24492D01*
Y24503D01*
X202384Y24515D01*
X202408Y24585D01*
X202466Y24678D01*
X202536Y24807D01*
X202629Y24947D01*
X202734Y25098D01*
X202862Y25250D01*
X203014Y25390D01*
X203620Y24900D01*
D02*
G37*
G36*
X215032Y56526D02*
X215045Y56243D01*
X215085Y55987D01*
X215139Y55744D01*
X215193Y55529D01*
X215247Y55353D01*
X215301Y55219D01*
X215315Y55178D01*
X215328Y55138D01*
X215342Y55124D01*
Y55111D01*
X215463Y54882D01*
X215598Y54693D01*
X215733Y54518D01*
X215867Y54369D01*
X215989Y54262D01*
X216083Y54181D01*
X216150Y54127D01*
X216177Y54113D01*
X220100Y53412D01*
Y51768D01*
X213616Y52914D01*
Y54423D01*
X214991Y54181D01*
X214748Y54356D01*
X214533Y54545D01*
X214357Y54720D01*
X214196Y54895D01*
X214074Y55030D01*
X213980Y55151D01*
X213926Y55219D01*
X213913Y55246D01*
X213778Y55475D01*
X213684Y55690D01*
X213603Y55893D01*
X213562Y56081D01*
X213535Y56230D01*
X213508Y56351D01*
Y56594D01*
X213522Y56634D01*
Y56782D01*
X215032Y56526D01*
D02*
G37*
G36*
X216514Y51363D02*
X216609Y51350D01*
X216690D01*
X216757Y51336D01*
X216797D01*
X216824Y51323D01*
X216838D01*
X216959Y51296D01*
X217054Y51283D01*
X217121Y51269D01*
X217134Y51256D01*
X217148D01*
X217242Y51229D01*
X217323Y51215D01*
X217377Y51202D01*
X217390Y51188D01*
Y46174D01*
X217660D01*
X217903Y46201D01*
X218105Y46268D01*
X218280Y46335D01*
X218415Y46403D01*
X218509Y46457D01*
X218563Y46511D01*
X218590Y46524D01*
X218725Y46686D01*
X218833Y46875D01*
X218914Y47050D01*
X218968Y47225D01*
X218995Y47373D01*
X219008Y47495D01*
X219022Y47576D01*
Y47602D01*
X219008Y47791D01*
X218981Y47966D01*
X218941Y48142D01*
X218900Y48290D01*
X218846Y48411D01*
X218819Y48506D01*
X218792Y48560D01*
X218779Y48586D01*
X218685Y48748D01*
X218577Y48897D01*
X218469Y49018D01*
X218361Y49126D01*
X218267Y49193D01*
X218199Y49261D01*
X218145Y49288D01*
X218132Y49301D01*
X218536Y50662D01*
X218806Y50460D01*
X219049Y50231D01*
X219251Y50002D01*
X219426Y49786D01*
X219561Y49597D01*
X219669Y49436D01*
X219696Y49368D01*
X219723Y49328D01*
X219749Y49301D01*
Y49288D01*
X219898Y48950D01*
X220006Y48614D01*
X220087Y48290D01*
X220140Y47993D01*
X220167Y47845D01*
X220181Y47724D01*
X220194Y47616D01*
Y47522D01*
X220208Y47441D01*
Y47333D01*
X220194Y46955D01*
X220140Y46618D01*
X220073Y46322D01*
X219979Y46066D01*
X219898Y45864D01*
X219871Y45783D01*
X219830Y45715D01*
X219803Y45661D01*
X219777Y45621D01*
X219763Y45607D01*
Y45594D01*
X219574Y45351D01*
X219386Y45149D01*
X219183Y44987D01*
X218995Y44853D01*
X218819Y44745D01*
X218685Y44677D01*
X218631Y44650D01*
X218590Y44637D01*
X218577Y44623D01*
X218563D01*
X218280Y44543D01*
X217984Y44489D01*
X217701Y44462D01*
X217444D01*
X217229D01*
X217134Y44475D01*
X217054D01*
X217000Y44489D01*
X216946Y44502D01*
X216919D01*
X216905D01*
X216555Y44583D01*
X216245Y44677D01*
X215948Y44799D01*
X215692Y44920D01*
X215490Y45028D01*
X215395Y45082D01*
X215328Y45122D01*
X215274Y45163D01*
X215234Y45190D01*
X215207Y45217D01*
X215193D01*
X214924Y45432D01*
X214681Y45675D01*
X214465Y45904D01*
X214290Y46120D01*
X214155Y46322D01*
X214048Y46484D01*
X214007Y46538D01*
X213994Y46578D01*
X213967Y46605D01*
Y46618D01*
X213818Y46942D01*
X213697Y47279D01*
X213616Y47602D01*
X213562Y47899D01*
X213549Y48034D01*
X213535Y48155D01*
X213522Y48263D01*
X213508Y48357D01*
Y48533D01*
X213535Y48910D01*
X213589Y49261D01*
X213657Y49557D01*
X213751Y49800D01*
X213832Y50002D01*
X213872Y50083D01*
X213913Y50150D01*
X213940Y50204D01*
X213967Y50245D01*
X213980Y50258D01*
Y50271D01*
X214169Y50501D01*
X214357Y50703D01*
X214560Y50865D01*
X214762Y50999D01*
X214924Y51094D01*
X215072Y51161D01*
X215126Y51188D01*
X215153Y51202D01*
X215180Y51215D01*
X215193D01*
X215476Y51296D01*
X215773Y51350D01*
X216042Y51363D01*
X216299Y51377D01*
X216514Y51363D01*
D02*
G37*
G36*
X220100Y40822D02*
Y39461D01*
X217256Y38840D01*
X220100Y37236D01*
Y35875D01*
X213616Y34298D01*
Y35875D01*
X218536Y36940D01*
X216433Y38099D01*
X213616Y37466D01*
Y38800D01*
X215611Y39137D01*
X213616Y40175D01*
Y41523D01*
X216433Y39892D01*
X218536Y40296D01*
X213616Y43087D01*
Y44677D01*
X220100Y40822D01*
D02*
G37*
G36*
X216541Y33354D02*
X216636D01*
X216717Y33341D01*
X216770D01*
X216824Y33327D01*
X216851D01*
X216865D01*
X217202Y33246D01*
X217512Y33152D01*
X217795Y33031D01*
X218038Y32923D01*
X218240Y32801D01*
X218334Y32761D01*
X218402Y32707D01*
X218455Y32680D01*
X218496Y32653D01*
X218523Y32626D01*
X218536D01*
X218806Y32410D01*
X219049Y32181D01*
X219251Y31952D01*
X219426Y31736D01*
X219561Y31534D01*
X219669Y31386D01*
X219696Y31319D01*
X219723Y31278D01*
X219749Y31251D01*
Y31238D01*
X219898Y30914D01*
X220006Y30591D01*
X220087Y30267D01*
X220140Y29971D01*
X220167Y29836D01*
X220181Y29715D01*
X220194Y29607D01*
Y29512D01*
X220208Y29445D01*
Y29337D01*
X220181Y28960D01*
X220127Y28609D01*
X220060Y28313D01*
X219979Y28056D01*
X219884Y27854D01*
X219857Y27773D01*
X219817Y27706D01*
X219790Y27652D01*
X219763Y27612D01*
X219749Y27598D01*
Y27585D01*
X219561Y27356D01*
X219372Y27153D01*
X219170Y26992D01*
X218968Y26857D01*
X218792Y26749D01*
X218658Y26682D01*
X218604Y26655D01*
X218563Y26641D01*
X218550Y26628D01*
X218536D01*
X218240Y26547D01*
X217957Y26493D01*
X217674Y26479D01*
X217418D01*
X217188D01*
X217094Y26493D01*
X217013D01*
X216959Y26506D01*
X216905Y26520D01*
X216878D01*
X216865D01*
X216528Y26601D01*
X216218Y26695D01*
X215948Y26816D01*
X215692Y26938D01*
X215490Y27046D01*
X215409Y27086D01*
X215342Y27140D01*
X215288Y27167D01*
X215247Y27194D01*
X215220Y27221D01*
X215207D01*
X214937Y27436D01*
X214694Y27666D01*
X214479Y27908D01*
X214304Y28124D01*
X214169Y28313D01*
X214061Y28474D01*
X214020Y28528D01*
X214007Y28569D01*
X213980Y28596D01*
Y28609D01*
X213818Y28933D01*
X213710Y29270D01*
X213630Y29593D01*
X213562Y29890D01*
X213549Y30025D01*
X213535Y30146D01*
X213522Y30254D01*
Y30348D01*
X213508Y30415D01*
Y30523D01*
X213522Y30901D01*
X213576Y31238D01*
X213657Y31534D01*
X213737Y31777D01*
X213832Y31979D01*
X213872Y32060D01*
X213899Y32127D01*
X213940Y32181D01*
X213953Y32222D01*
X213980Y32235D01*
Y32249D01*
X214169Y32491D01*
X214371Y32694D01*
X214573Y32855D01*
X214762Y32990D01*
X214937Y33084D01*
X215085Y33152D01*
X215126Y33179D01*
X215166Y33192D01*
X215193Y33206D01*
X215207D01*
X215490Y33287D01*
X215786Y33341D01*
X216056Y33368D01*
X216312D01*
X216541Y33354D01*
D02*
G37*
G36*
X214101Y26398D02*
X214155D01*
X214196Y26385D01*
X214209D01*
X214223D01*
X214506Y26318D01*
X214775Y26237D01*
X215018Y26142D01*
X215220Y26035D01*
X215395Y25940D01*
X215530Y25873D01*
X215584Y25832D01*
X215625Y25819D01*
X215638Y25792D01*
X215652D01*
X215881Y25617D01*
X216096Y25414D01*
X216285Y25226D01*
X216433Y25050D01*
X216568Y24889D01*
X216649Y24767D01*
X216717Y24673D01*
X216730Y24659D01*
Y24646D01*
X216865Y24390D01*
X216973Y24120D01*
X217040Y23864D01*
X217094Y23635D01*
X217121Y23433D01*
X217134Y23352D01*
Y23271D01*
X217148Y23217D01*
Y21047D01*
X220100Y20521D01*
Y18823D01*
X211311Y20373D01*
Y24107D01*
X211338Y24403D01*
X211378Y24659D01*
X211459Y24889D01*
X211527Y25091D01*
X211608Y25253D01*
X211675Y25374D01*
X211729Y25441D01*
X211742Y25468D01*
X211904Y25670D01*
X212093Y25832D01*
X212268Y25967D01*
X212443Y26075D01*
X212605Y26156D01*
X212726Y26223D01*
X212807Y26250D01*
X212821Y26264D01*
X212834D01*
X213077Y26344D01*
X213333Y26385D01*
X213562Y26412D01*
X213778D01*
X213953D01*
X214101Y26398D01*
D02*
G37*
G36*
X204888Y72085D02*
X204666Y72015D01*
X204480Y71922D01*
X204328Y71817D01*
X204212Y71712D01*
X204118Y71619D01*
X204048Y71537D01*
X204013Y71490D01*
X204002Y71467D01*
X203920Y71304D01*
X203850Y71129D01*
X203804Y70977D01*
X203780Y70826D01*
X203757Y70709D01*
X203745Y70604D01*
Y70523D01*
X203769Y70266D01*
X203815Y70033D01*
X203885Y69811D01*
X203955Y69636D01*
X204025Y69485D01*
X204083Y69368D01*
X204130Y69298D01*
X204142Y69287D01*
Y69275D01*
X204293Y69088D01*
X204445Y68914D01*
X204608Y68762D01*
X204760Y68634D01*
X204888Y68540D01*
X205005Y68459D01*
X205075Y68412D01*
X205086Y68401D01*
X205098D01*
X205308Y68284D01*
X205529Y68191D01*
X205728Y68121D01*
X205902Y68062D01*
X206066Y68016D01*
X206182Y67981D01*
X206229Y67969D01*
X206264D01*
X206276Y67957D01*
X206287D01*
X206544Y67922D01*
X206777Y67911D01*
X206987Y67922D01*
X207185Y67934D01*
X207337Y67957D01*
X207453Y67981D01*
X207500Y67992D01*
X207535D01*
X207546Y68004D01*
X207558D01*
X207768Y68086D01*
X207955Y68167D01*
X208118Y68272D01*
X208246Y68366D01*
X208363Y68459D01*
X208433Y68529D01*
X208491Y68575D01*
X208503Y68599D01*
X208619Y68762D01*
X208713Y68937D01*
X208782Y69112D01*
X208829Y69287D01*
X208852Y69427D01*
X208864Y69543D01*
X208876Y69590D01*
Y69648D01*
X208864Y69846D01*
X208829Y70033D01*
X208794Y70208D01*
X208736Y70371D01*
X208689Y70499D01*
X208654Y70604D01*
X208619Y70674D01*
X208608Y70697D01*
X208491Y70896D01*
X208351Y71071D01*
X208199Y71234D01*
X208048Y71374D01*
X207920Y71479D01*
X207815Y71560D01*
X207768Y71595D01*
X207733Y71619D01*
X207721Y71630D01*
X207710D01*
X208409Y72726D01*
X208619Y72586D01*
X208806Y72435D01*
X208969Y72283D01*
X209109Y72143D01*
X209226Y72015D01*
X209307Y71910D01*
X209354Y71840D01*
X209377Y71829D01*
Y71817D01*
X209517Y71607D01*
X209634Y71397D01*
X209727Y71199D01*
X209808Y71012D01*
X209878Y70861D01*
X209925Y70732D01*
X209937Y70686D01*
X209948Y70651D01*
X209960Y70639D01*
Y70627D01*
X210030Y70394D01*
X210077Y70161D01*
X210112Y69951D01*
X210135Y69765D01*
X210147Y69601D01*
X210158Y69485D01*
Y69380D01*
X210147Y69182D01*
X210135Y68995D01*
X210065Y68657D01*
X209972Y68354D01*
X209925Y68214D01*
X209867Y68097D01*
X209820Y67981D01*
X209762Y67887D01*
X209715Y67806D01*
X209669Y67736D01*
X209634Y67677D01*
X209610Y67643D01*
X209599Y67619D01*
X209587Y67608D01*
X209365Y67363D01*
X209121Y67153D01*
X208876Y66978D01*
X208643Y66850D01*
X208444Y66733D01*
X208351Y66698D01*
X208281Y66663D01*
X208211Y66640D01*
X208164Y66616D01*
X208141Y66605D01*
X208130D01*
X207791Y66511D01*
X207453Y66465D01*
X207138Y66442D01*
X206847Y66430D01*
X206719D01*
X206602Y66442D01*
X206497Y66453D01*
X206404D01*
X206334Y66465D01*
X206287D01*
X206252Y66477D01*
X206241D01*
X205891Y66558D01*
X205564Y66663D01*
X205249Y66791D01*
X204981Y66920D01*
X204865Y66978D01*
X204760Y67036D01*
X204666Y67083D01*
X204585Y67129D01*
X204515Y67164D01*
X204468Y67199D01*
X204445Y67211D01*
X204433Y67223D01*
X204130Y67456D01*
X203850Y67701D01*
X203605Y67957D01*
X203407Y68191D01*
X203244Y68401D01*
X203174Y68482D01*
X203116Y68564D01*
X203081Y68634D01*
X203046Y68680D01*
X203034Y68704D01*
X203022Y68715D01*
X202929Y68890D01*
X202836Y69065D01*
X202696Y69427D01*
X202591Y69776D01*
X202521Y70103D01*
X202498Y70243D01*
X202486Y70383D01*
X202474Y70499D01*
X202463Y70592D01*
X202451Y70674D01*
Y70791D01*
X202474Y71152D01*
X202521Y71490D01*
X202603Y71770D01*
X202638Y71899D01*
X202684Y72015D01*
X202719Y72120D01*
X202766Y72213D01*
X202801Y72283D01*
X202836Y72353D01*
X202859Y72400D01*
X202883Y72435D01*
X202906Y72458D01*
Y72470D01*
X203081Y72703D01*
X203279Y72890D01*
X203477Y73041D01*
X203675Y73169D01*
X203839Y73263D01*
X203978Y73321D01*
X204037Y73344D01*
X204072Y73356D01*
X204095Y73368D01*
X204107D01*
X204888Y72085D01*
D02*
G37*
G36*
X205961Y65800D02*
X206066D01*
X206159Y65789D01*
X206229Y65777D01*
X206276D01*
X206311Y65765D01*
X206322D01*
X206695Y65672D01*
X207057Y65555D01*
X207372Y65416D01*
X207523Y65346D01*
X207651Y65287D01*
X207780Y65217D01*
X207896Y65159D01*
X207990Y65101D01*
X208071Y65054D01*
X208130Y65007D01*
X208188Y64972D01*
X208211Y64961D01*
X208223Y64949D01*
X208526Y64716D01*
X208806Y64459D01*
X209039Y64203D01*
X209237Y63970D01*
X209400Y63748D01*
X209459Y63666D01*
X209517Y63585D01*
X209552Y63527D01*
X209587Y63468D01*
X209599Y63445D01*
X209610Y63433D01*
X209704Y63258D01*
X209785Y63083D01*
X209913Y62745D01*
X210007Y62407D01*
X210077Y62104D01*
X210100Y61976D01*
X210112Y61848D01*
X210123Y61743D01*
X210135Y61638D01*
X210147Y61568D01*
Y61463D01*
X210135Y61264D01*
X210123Y61078D01*
X210053Y60728D01*
X210018Y60565D01*
X209972Y60413D01*
X209913Y60285D01*
X209867Y60157D01*
X209820Y60052D01*
X209773Y59947D01*
X209727Y59865D01*
X209680Y59795D01*
X209645Y59737D01*
X209622Y59702D01*
X209599Y59679D01*
Y59667D01*
X209377Y59422D01*
X209144Y59212D01*
X208911Y59038D01*
X208678Y58898D01*
X208479Y58793D01*
X208398Y58758D01*
X208316Y58723D01*
X208258Y58699D01*
X208211Y58676D01*
X208188Y58664D01*
X208176D01*
X207838Y58571D01*
X207511Y58524D01*
X207197Y58501D01*
X206905Y58490D01*
X206777D01*
X206660Y58501D01*
X206555Y58513D01*
X206462D01*
X206392Y58524D01*
X206346D01*
X206311Y58536D01*
X206299D01*
X205926Y58629D01*
X205564Y58746D01*
X205249Y58886D01*
X205098Y58956D01*
X204958Y59014D01*
X204841Y59084D01*
X204725Y59142D01*
X204631Y59201D01*
X204550Y59247D01*
X204480Y59294D01*
X204433Y59329D01*
X204410Y59341D01*
X204398Y59352D01*
X204083Y59597D01*
X203804Y59854D01*
X203570Y60110D01*
X203361Y60343D01*
X203197Y60565D01*
X203139Y60647D01*
X203081Y60728D01*
X203046Y60786D01*
X203011Y60845D01*
X202999Y60868D01*
X202987Y60880D01*
X202894Y61055D01*
X202813Y61230D01*
X202673Y61579D01*
X202579Y61906D01*
X202509Y62209D01*
X202486Y62349D01*
X202474Y62466D01*
X202463Y62582D01*
X202451Y62675D01*
X202439Y62745D01*
Y62850D01*
X202451Y63048D01*
X202463Y63235D01*
X202533Y63585D01*
X202579Y63748D01*
X202626Y63888D01*
X202673Y64028D01*
X202731Y64145D01*
X202778Y64261D01*
X202836Y64354D01*
X202883Y64436D01*
X202917Y64506D01*
X202964Y64564D01*
X202987Y64599D01*
X202999Y64623D01*
X203011Y64634D01*
X203232Y64879D01*
X203477Y65089D01*
X203710Y65264D01*
X203943Y65404D01*
X204142Y65509D01*
X204235Y65544D01*
X204305Y65579D01*
X204375Y65602D01*
X204422Y65625D01*
X204445Y65637D01*
X204457D01*
X204795Y65730D01*
X205121Y65777D01*
X205436Y65800D01*
X205716Y65812D01*
X205844D01*
X205961Y65800D01*
D02*
G37*
G36*
X203780Y58420D02*
Y54782D01*
X205763Y54432D01*
Y57463D01*
X206952Y57242D01*
Y54222D01*
X210100Y53662D01*
Y52193D01*
X202498Y53534D01*
Y58641D01*
X203780Y58420D01*
D02*
G37*
G36*
X35201Y64062D02*
X34958Y63985D01*
X34754Y63883D01*
X34589Y63769D01*
X34461Y63654D01*
X34359Y63552D01*
X34283Y63463D01*
X34244Y63411D01*
X34232Y63386D01*
X34143Y63208D01*
X34066Y63016D01*
X34015Y62850D01*
X33990Y62685D01*
X33964Y62557D01*
X33951Y62442D01*
Y62353D01*
X33977Y62073D01*
X34028Y61818D01*
X34104Y61576D01*
X34181Y61384D01*
X34257Y61219D01*
X34321Y61091D01*
X34372Y61014D01*
X34385Y61002D01*
Y60989D01*
X34550Y60785D01*
X34716Y60594D01*
X34895Y60428D01*
X35061Y60288D01*
X35201Y60186D01*
X35328Y60097D01*
X35405Y60045D01*
X35418Y60033D01*
X35430D01*
X35660Y59905D01*
X35902Y59803D01*
X36119Y59727D01*
X36310Y59663D01*
X36489Y59612D01*
X36616Y59574D01*
X36667Y59561D01*
X36705D01*
X36718Y59548D01*
X36731D01*
X37011Y59510D01*
X37266Y59497D01*
X37496Y59510D01*
X37712Y59523D01*
X37878Y59548D01*
X38006Y59574D01*
X38057Y59587D01*
X38095D01*
X38108Y59599D01*
X38120D01*
X38350Y59689D01*
X38554Y59778D01*
X38732Y59892D01*
X38873Y59995D01*
X39000Y60097D01*
X39077Y60173D01*
X39140Y60224D01*
X39153Y60250D01*
X39281Y60428D01*
X39383Y60619D01*
X39459Y60811D01*
X39510Y61002D01*
X39536Y61155D01*
X39549Y61282D01*
X39561Y61333D01*
Y61397D01*
X39549Y61614D01*
X39510Y61818D01*
X39472Y62009D01*
X39408Y62187D01*
X39357Y62328D01*
X39319Y62442D01*
X39281Y62519D01*
X39268Y62545D01*
X39140Y62761D01*
X38987Y62953D01*
X38822Y63131D01*
X38656Y63284D01*
X38516Y63399D01*
X38401Y63488D01*
X38350Y63526D01*
X38312Y63552D01*
X38299Y63564D01*
X38286D01*
X39051Y64763D01*
X39281Y64610D01*
X39485Y64444D01*
X39663Y64279D01*
X39816Y64126D01*
X39944Y63985D01*
X40033Y63871D01*
X40084Y63794D01*
X40110Y63781D01*
Y63769D01*
X40262Y63539D01*
X40390Y63310D01*
X40492Y63093D01*
X40581Y62889D01*
X40658Y62723D01*
X40709Y62583D01*
X40721Y62532D01*
X40734Y62493D01*
X40747Y62481D01*
Y62468D01*
X40824Y62213D01*
X40874Y61958D01*
X40913Y61729D01*
X40938Y61524D01*
X40951Y61346D01*
X40964Y61219D01*
Y61104D01*
X40951Y60887D01*
X40938Y60683D01*
X40862Y60313D01*
X40760Y59982D01*
X40709Y59829D01*
X40645Y59701D01*
X40594Y59574D01*
X40530Y59472D01*
X40479Y59382D01*
X40428Y59306D01*
X40390Y59242D01*
X40365Y59204D01*
X40352Y59179D01*
X40339Y59166D01*
X40097Y58898D01*
X39829Y58669D01*
X39561Y58477D01*
X39306Y58337D01*
X39090Y58210D01*
X38987Y58171D01*
X38911Y58133D01*
X38835Y58108D01*
X38783Y58082D01*
X38758Y58069D01*
X38745D01*
X38375Y57967D01*
X38006Y57916D01*
X37661Y57891D01*
X37343Y57878D01*
X37203D01*
X37075Y57891D01*
X36960Y57903D01*
X36858D01*
X36782Y57916D01*
X36731D01*
X36693Y57929D01*
X36680D01*
X36297Y58018D01*
X35940Y58133D01*
X35596Y58273D01*
X35303Y58413D01*
X35175Y58477D01*
X35061Y58541D01*
X34958Y58592D01*
X34869Y58643D01*
X34793Y58681D01*
X34742Y58719D01*
X34716Y58732D01*
X34703Y58745D01*
X34372Y59000D01*
X34066Y59268D01*
X33798Y59548D01*
X33582Y59803D01*
X33403Y60033D01*
X33327Y60122D01*
X33263Y60211D01*
X33224Y60288D01*
X33186Y60339D01*
X33173Y60364D01*
X33161Y60377D01*
X33059Y60568D01*
X32957Y60760D01*
X32804Y61155D01*
X32689Y61537D01*
X32612Y61894D01*
X32587Y62047D01*
X32574Y62200D01*
X32561Y62328D01*
X32549Y62430D01*
X32536Y62519D01*
Y62647D01*
X32561Y63042D01*
X32612Y63411D01*
X32702Y63718D01*
X32740Y63858D01*
X32791Y63985D01*
X32829Y64100D01*
X32880Y64202D01*
X32919Y64279D01*
X32957Y64355D01*
X32982Y64406D01*
X33008Y64444D01*
X33033Y64470D01*
Y64482D01*
X33224Y64737D01*
X33441Y64942D01*
X33658Y65107D01*
X33875Y65247D01*
X34053Y65350D01*
X34206Y65413D01*
X34270Y65439D01*
X34308Y65452D01*
X34334Y65464D01*
X34347D01*
X35201Y64062D01*
D02*
G37*
G36*
X36374Y57190D02*
X36489D01*
X36590Y57177D01*
X36667Y57164D01*
X36718D01*
X36756Y57151D01*
X36769D01*
X37177Y57049D01*
X37572Y56922D01*
X37916Y56769D01*
X38082Y56692D01*
X38223Y56629D01*
X38363Y56552D01*
X38490Y56488D01*
X38592Y56424D01*
X38682Y56374D01*
X38745Y56322D01*
X38809Y56284D01*
X38835Y56271D01*
X38847Y56259D01*
X39179Y56004D01*
X39485Y55723D01*
X39740Y55443D01*
X39957Y55188D01*
X40135Y54945D01*
X40199Y54856D01*
X40262Y54767D01*
X40301Y54703D01*
X40339Y54640D01*
X40352Y54614D01*
X40365Y54601D01*
X40466Y54410D01*
X40556Y54219D01*
X40696Y53849D01*
X40798Y53479D01*
X40874Y53148D01*
X40900Y53008D01*
X40913Y52867D01*
X40925Y52753D01*
X40938Y52638D01*
X40951Y52561D01*
Y52447D01*
X40938Y52230D01*
X40925Y52026D01*
X40849Y51643D01*
X40811Y51465D01*
X40760Y51299D01*
X40696Y51159D01*
X40645Y51019D01*
X40594Y50904D01*
X40543Y50789D01*
X40492Y50700D01*
X40441Y50623D01*
X40403Y50560D01*
X40377Y50521D01*
X40352Y50496D01*
Y50483D01*
X40110Y50215D01*
X39854Y49986D01*
X39599Y49795D01*
X39344Y49641D01*
X39128Y49527D01*
X39039Y49488D01*
X38949Y49450D01*
X38886Y49425D01*
X38835Y49399D01*
X38809Y49387D01*
X38796D01*
X38427Y49284D01*
X38069Y49233D01*
X37725Y49208D01*
X37407Y49195D01*
X37266D01*
X37139Y49208D01*
X37024Y49221D01*
X36922D01*
X36845Y49233D01*
X36794D01*
X36756Y49246D01*
X36744D01*
X36336Y49348D01*
X35940Y49476D01*
X35596Y49629D01*
X35430Y49705D01*
X35277Y49769D01*
X35150Y49845D01*
X35022Y49909D01*
X34920Y49973D01*
X34831Y50024D01*
X34754Y50075D01*
X34703Y50113D01*
X34678Y50126D01*
X34665Y50139D01*
X34321Y50406D01*
X34015Y50687D01*
X33760Y50968D01*
X33531Y51222D01*
X33352Y51465D01*
X33288Y51554D01*
X33224Y51643D01*
X33186Y51707D01*
X33148Y51771D01*
X33135Y51796D01*
X33123Y51809D01*
X33020Y52000D01*
X32931Y52192D01*
X32778Y52574D01*
X32676Y52931D01*
X32600Y53263D01*
X32574Y53416D01*
X32561Y53543D01*
X32549Y53671D01*
X32536Y53772D01*
X32523Y53849D01*
Y53964D01*
X32536Y54181D01*
X32549Y54384D01*
X32625Y54767D01*
X32676Y54945D01*
X32727Y55098D01*
X32778Y55251D01*
X32842Y55379D01*
X32893Y55506D01*
X32957Y55608D01*
X33008Y55698D01*
X33046Y55774D01*
X33097Y55838D01*
X33123Y55876D01*
X33135Y55902D01*
X33148Y55914D01*
X33390Y56182D01*
X33658Y56412D01*
X33913Y56603D01*
X34168Y56756D01*
X34385Y56871D01*
X34487Y56909D01*
X34563Y56947D01*
X34640Y56973D01*
X34691Y56998D01*
X34716Y57011D01*
X34729D01*
X35099Y57113D01*
X35456Y57164D01*
X35800Y57190D01*
X36106Y57202D01*
X36246D01*
X36374Y57190D01*
D02*
G37*
G36*
X33990Y49119D02*
Y45141D01*
X36157Y44758D01*
Y48073D01*
X37457Y47831D01*
Y44529D01*
X40900Y43917D01*
Y42310D01*
X32587Y43777D01*
Y49361D01*
X33990Y49119D01*
D02*
G37*
G36*
X46330Y42584D02*
Y41258D01*
X50308Y40404D01*
X50334D01*
X50385Y40391D01*
X50449Y40378D01*
X50512Y40365D01*
X50525D01*
X50551D01*
X50627Y40352D01*
X50640D01*
X50678D01*
X50716Y40365D01*
X50780Y40378D01*
X50907Y40429D01*
X50971Y40467D01*
X51022Y40518D01*
Y40531D01*
X51035Y40544D01*
X51060Y40582D01*
X51073Y40633D01*
X51124Y40760D01*
X51137Y40914D01*
Y41028D01*
X51124Y41105D01*
X51099Y41296D01*
X51035Y41500D01*
Y41513D01*
X51010Y41538D01*
X50997Y41589D01*
X50971Y41640D01*
X50920Y41768D01*
X50895Y41819D01*
X50869Y41857D01*
X51507Y41921D01*
Y41908D01*
X51532Y41895D01*
X51545Y41857D01*
X51583Y41793D01*
X51622Y41717D01*
X51660Y41627D01*
X51698Y41513D01*
X51749Y41372D01*
Y41360D01*
X51762Y41309D01*
X51787Y41232D01*
X51800Y41118D01*
X51825Y40990D01*
X51851Y40850D01*
X51864Y40697D01*
Y40442D01*
X51851Y40365D01*
X51838Y40263D01*
X51813Y40136D01*
X51775Y40021D01*
X51723Y39893D01*
X51660Y39779D01*
X51647Y39766D01*
X51622Y39740D01*
X51570Y39689D01*
X51494Y39639D01*
X51405Y39588D01*
X51290Y39536D01*
X51150Y39511D01*
X50997Y39498D01*
X50971D01*
X50907D01*
X50818Y39511D01*
X50704Y39524D01*
X46330Y40455D01*
Y39651D01*
X45693Y39792D01*
Y40582D01*
X43627Y41028D01*
Y41831D01*
X45693Y41385D01*
Y42724D01*
X46330Y42584D01*
D02*
G37*
G36*
X47286Y37955D02*
X47261D01*
X47210Y37930D01*
X47121Y37892D01*
X47019Y37841D01*
X46904Y37764D01*
X46777Y37675D01*
X46662Y37560D01*
X46560Y37433D01*
X46547Y37420D01*
X46521Y37369D01*
X46470Y37293D01*
X46420Y37178D01*
X46381Y37050D01*
X46330Y36897D01*
X46305Y36731D01*
X46292Y36540D01*
Y36451D01*
X46305Y36349D01*
X46317Y36222D01*
X46356Y36068D01*
X46394Y35903D01*
X46458Y35724D01*
X46534Y35546D01*
X46547Y35520D01*
X46573Y35469D01*
X46624Y35380D01*
X46700Y35265D01*
X46789Y35125D01*
X46891Y34985D01*
X47019Y34844D01*
X47159Y34692D01*
X47172Y34679D01*
X47223Y34628D01*
X47312Y34564D01*
X47427Y34475D01*
X47567Y34385D01*
X47720Y34284D01*
X47899Y34181D01*
X48103Y34092D01*
X48128Y34080D01*
X48192Y34054D01*
X48307Y34029D01*
X48447Y33990D01*
X48612Y33939D01*
X48804Y33914D01*
X49020Y33888D01*
X49237Y33876D01*
X49250D01*
X49314D01*
X49390Y33888D01*
X49492D01*
X49607Y33901D01*
X49747Y33926D01*
X50015Y33990D01*
X50028D01*
X50079Y34016D01*
X50143Y34041D01*
X50232Y34080D01*
X50321Y34118D01*
X50436Y34169D01*
X50652Y34309D01*
X50665Y34322D01*
X50691Y34347D01*
X50742Y34398D01*
X50805Y34449D01*
X50869Y34526D01*
X50946Y34615D01*
X51073Y34819D01*
Y34832D01*
X51099Y34870D01*
X51112Y34934D01*
X51137Y35023D01*
X51162Y35125D01*
X51188Y35240D01*
X51201Y35355D01*
X51214Y35495D01*
Y35597D01*
X51201Y35673D01*
Y35750D01*
X51175Y35852D01*
X51137Y36056D01*
Y36068D01*
X51124Y36107D01*
X51099Y36158D01*
X51086Y36234D01*
X51010Y36413D01*
X50920Y36604D01*
X50907Y36617D01*
X50895Y36655D01*
X50857Y36706D01*
X50818Y36770D01*
X50716Y36923D01*
X50576Y37076D01*
X50563Y37089D01*
X50538Y37114D01*
X50499Y37152D01*
X50449Y37190D01*
X50334Y37293D01*
X50181Y37382D01*
X50410Y38121D01*
X50423Y38109D01*
X50461Y38083D01*
X50525Y38045D01*
X50614Y37994D01*
X50704Y37917D01*
X50805Y37841D01*
X51022Y37637D01*
X51035Y37624D01*
X51060Y37586D01*
X51112Y37522D01*
X51175Y37446D01*
X51252Y37343D01*
X51328Y37229D01*
X51494Y36974D01*
X51507Y36961D01*
X51532Y36910D01*
X51558Y36834D01*
X51609Y36744D01*
X51660Y36630D01*
X51711Y36502D01*
X51800Y36209D01*
Y36196D01*
X51813Y36145D01*
X51838Y36056D01*
X51851Y35954D01*
X51876Y35826D01*
X51902Y35686D01*
X51915Y35380D01*
Y35291D01*
X51902Y35189D01*
X51889Y35048D01*
X51864Y34896D01*
X51825Y34730D01*
X51775Y34564D01*
X51711Y34398D01*
X51698Y34385D01*
X51673Y34322D01*
X51622Y34245D01*
X51570Y34143D01*
X51481Y34029D01*
X51392Y33901D01*
X51290Y33773D01*
X51162Y33659D01*
X51150Y33646D01*
X51099Y33608D01*
X51022Y33557D01*
X50920Y33493D01*
X50805Y33417D01*
X50665Y33353D01*
X50512Y33276D01*
X50346Y33213D01*
X50321D01*
X50270Y33187D01*
X50168Y33162D01*
X50041Y33136D01*
X49887Y33110D01*
X49722Y33085D01*
X49531Y33072D01*
X49339Y33059D01*
X49327D01*
X49301D01*
X49263D01*
X49212D01*
X49071Y33072D01*
X48880Y33098D01*
X48663Y33136D01*
X48434Y33187D01*
X48179Y33251D01*
X47924Y33353D01*
X47911D01*
X47899Y33365D01*
X47860Y33378D01*
X47809Y33404D01*
X47682Y33468D01*
X47516Y33557D01*
X47337Y33672D01*
X47133Y33812D01*
X46929Y33965D01*
X46725Y34143D01*
X46700Y34169D01*
X46636Y34233D01*
X46547Y34334D01*
X46420Y34475D01*
X46292Y34640D01*
X46152Y34844D01*
X46024Y35061D01*
X45897Y35304D01*
Y35316D01*
X45884Y35329D01*
X45871Y35367D01*
X45846Y35418D01*
X45795Y35559D01*
X45744Y35724D01*
X45693Y35941D01*
X45642Y36183D01*
X45603Y36438D01*
X45591Y36719D01*
Y36859D01*
X45603Y36923D01*
X45616Y37012D01*
X45642Y37203D01*
X45693Y37420D01*
X45757Y37650D01*
X45858Y37866D01*
X45986Y38083D01*
X45999Y38109D01*
X46062Y38172D01*
X46152Y38262D01*
X46266Y38376D01*
X46420Y38491D01*
X46598Y38606D01*
X46802Y38695D01*
X47044Y38772D01*
X47286Y37955D01*
D02*
G37*
G36*
X47388Y32409D02*
X47465Y32397D01*
X47541Y32384D01*
X47745Y32320D01*
X47962Y32231D01*
X48077Y32167D01*
X48192Y32078D01*
X48307Y31988D01*
X48408Y31887D01*
X48511Y31759D01*
X48600Y31619D01*
Y31606D01*
X48612Y31580D01*
X48638Y31530D01*
X48663Y31466D01*
X48702Y31389D01*
X48740Y31287D01*
X48778Y31160D01*
X48816Y31019D01*
X48867Y30854D01*
X48906Y30675D01*
X48944Y30471D01*
X48970Y30242D01*
X49008Y30000D01*
X49020Y29744D01*
X49046Y29464D01*
Y28725D01*
X49033Y28457D01*
Y28317D01*
X49020Y28214D01*
Y28087D01*
X49008Y27947D01*
Y27794D01*
X48995Y27628D01*
X49008D01*
X49046Y27615D01*
X49110D01*
X49174Y27602D01*
X49186D01*
X49224D01*
X49275D01*
X49327D01*
X49339D01*
X49390D01*
X49479D01*
X49569Y27615D01*
X49696Y27628D01*
X49824Y27641D01*
X50091Y27705D01*
X50104D01*
X50155Y27730D01*
X50219Y27755D01*
X50308Y27794D01*
X50397Y27832D01*
X50512Y27883D01*
X50729Y28023D01*
X50742Y28036D01*
X50767Y28062D01*
X50818Y28113D01*
X50882Y28176D01*
X50946Y28253D01*
X51022Y28342D01*
X51162Y28546D01*
Y28559D01*
X51188Y28597D01*
X51214Y28673D01*
X51239Y28763D01*
X51265Y28865D01*
X51290Y28992D01*
X51303Y29133D01*
X51315Y29285D01*
Y29400D01*
X51303Y29464D01*
Y29553D01*
X51277Y29655D01*
X51239Y29872D01*
Y29885D01*
X51226Y29923D01*
X51201Y29974D01*
X51175Y30051D01*
X51099Y30229D01*
X51010Y30420D01*
X50997Y30433D01*
X50984Y30471D01*
X50946Y30522D01*
X50907Y30586D01*
X50793Y30739D01*
X50652Y30905D01*
X50640Y30918D01*
X50614Y30943D01*
X50576Y30981D01*
X50512Y31045D01*
X50359Y31160D01*
X50181Y31287D01*
X50372Y31938D01*
X50385Y31925D01*
X50436Y31899D01*
X50499Y31861D01*
X50576Y31797D01*
X50678Y31721D01*
X50780Y31631D01*
X51010Y31427D01*
X51022Y31415D01*
X51060Y31376D01*
X51112Y31313D01*
X51175Y31223D01*
X51252Y31134D01*
X51328Y31019D01*
X51494Y30752D01*
X51507Y30739D01*
X51532Y30688D01*
X51558Y30612D01*
X51609Y30522D01*
X51660Y30395D01*
X51711Y30267D01*
X51800Y29974D01*
Y29961D01*
X51813Y29910D01*
X51838Y29821D01*
X51851Y29719D01*
X51876Y29604D01*
X51902Y29464D01*
X51915Y29145D01*
Y29056D01*
X51902Y28941D01*
X51889Y28814D01*
X51864Y28648D01*
X51838Y28482D01*
X51787Y28304D01*
X51723Y28138D01*
X51711Y28125D01*
X51685Y28062D01*
X51634Y27985D01*
X51583Y27883D01*
X51494Y27768D01*
X51405Y27641D01*
X51303Y27513D01*
X51175Y27398D01*
X51162Y27386D01*
X51112Y27347D01*
X51035Y27297D01*
X50933Y27233D01*
X50818Y27156D01*
X50678Y27092D01*
X50525Y27016D01*
X50359Y26952D01*
X50334D01*
X50283Y26927D01*
X50181Y26901D01*
X50053Y26876D01*
X49900Y26850D01*
X49735Y26825D01*
X49543Y26812D01*
X49339Y26799D01*
X49327D01*
X49301D01*
X49263D01*
X49212D01*
X49071Y26812D01*
X48893Y26838D01*
X48676Y26863D01*
X48447Y26914D01*
X48192Y26991D01*
X47937Y27080D01*
X47924D01*
X47911Y27092D01*
X47873Y27105D01*
X47822Y27131D01*
X47695Y27194D01*
X47529Y27284D01*
X47350Y27386D01*
X47146Y27526D01*
X46942Y27679D01*
X46751Y27845D01*
X46725Y27870D01*
X46662Y27934D01*
X46573Y28036D01*
X46445Y28176D01*
X46317Y28355D01*
X46177Y28546D01*
X46037Y28776D01*
X45910Y29018D01*
Y29030D01*
X45897Y29043D01*
X45884Y29081D01*
X45858Y29133D01*
X45807Y29273D01*
X45744Y29451D01*
X45693Y29668D01*
X45642Y29910D01*
X45603Y30191D01*
X45591Y30471D01*
Y30624D01*
X45603Y30726D01*
X45616Y30841D01*
X45629Y30968D01*
X45693Y31236D01*
Y31249D01*
X45706Y31300D01*
X45731Y31364D01*
X45769Y31453D01*
X45871Y31644D01*
X46011Y31848D01*
X46024Y31861D01*
X46050Y31899D01*
X46088Y31938D01*
X46152Y32001D01*
X46228Y32065D01*
X46317Y32142D01*
X46521Y32269D01*
X46534Y32282D01*
X46573Y32294D01*
X46636Y32320D01*
X46725Y32346D01*
X46828Y32371D01*
X46955Y32397D01*
X47082Y32422D01*
X47236D01*
X47248D01*
X47274D01*
X47325D01*
X47388Y32409D01*
D02*
G37*
G36*
X44418Y26455D02*
Y25664D01*
X43245Y25919D01*
Y26710D01*
X44418Y26455D01*
D02*
G37*
G36*
X52068Y24836D02*
X52081D01*
X52131Y24823D01*
X52208Y24798D01*
X52310Y24759D01*
X52425Y24721D01*
X52552Y24670D01*
X52807Y24530D01*
X52820Y24517D01*
X52858Y24491D01*
X52935Y24441D01*
X53011Y24389D01*
X53101Y24313D01*
X53202Y24224D01*
X53394Y24033D01*
X53407Y24020D01*
X53432Y23981D01*
X53483Y23931D01*
X53534Y23854D01*
X53598Y23752D01*
X53662Y23650D01*
X53776Y23408D01*
Y23395D01*
X53802Y23344D01*
X53815Y23280D01*
X53840Y23191D01*
X53865Y23089D01*
X53891Y22974D01*
X53904Y22847D01*
X53917Y22732D01*
Y22668D01*
X53904Y22592D01*
Y22502D01*
X53891Y22400D01*
X53865Y22286D01*
X53802Y22043D01*
Y22031D01*
X53776Y21993D01*
X53751Y21941D01*
X53725Y21865D01*
X53610Y21699D01*
X53547Y21623D01*
X53457Y21546D01*
X52922Y22043D01*
X52935D01*
X52947Y22069D01*
X53011Y22133D01*
X53088Y22248D01*
X53139Y22388D01*
Y22400D01*
X53152Y22426D01*
X53164Y22464D01*
Y22515D01*
X53190Y22643D01*
X53202Y22796D01*
Y22872D01*
X53190Y22923D01*
X53164Y23038D01*
X53113Y23191D01*
Y23204D01*
X53101Y23229D01*
X53075Y23268D01*
X53049Y23306D01*
X52986Y23433D01*
X52884Y23561D01*
X52871Y23573D01*
X52858Y23586D01*
X52782Y23663D01*
X52680Y23765D01*
X52539Y23867D01*
X52527D01*
X52501Y23892D01*
X52463Y23905D01*
X52412Y23931D01*
X52272Y23981D01*
X52106Y24033D01*
X45693Y25397D01*
Y26200D01*
X52068Y24836D01*
D02*
G37*
G36*
X48421Y23420D02*
X48600Y23395D01*
X48816Y23357D01*
X49059Y23306D01*
X49314Y23229D01*
X49569Y23127D01*
X49582D01*
X49594Y23114D01*
X49632Y23102D01*
X49683Y23076D01*
X49811Y23012D01*
X49977Y22923D01*
X50155Y22808D01*
X50359Y22668D01*
X50563Y22515D01*
X50767Y22337D01*
X50793Y22311D01*
X50857Y22248D01*
X50946Y22145D01*
X51073Y22005D01*
X51201Y21839D01*
X51341Y21635D01*
X51481Y21419D01*
X51609Y21177D01*
Y21164D01*
X51622Y21151D01*
X51634Y21113D01*
X51660Y21062D01*
X51711Y20934D01*
X51762Y20756D01*
X51813Y20552D01*
X51864Y20310D01*
X51902Y20054D01*
X51915Y19787D01*
Y19697D01*
X51902Y19595D01*
X51889Y19468D01*
X51864Y19315D01*
X51825Y19149D01*
X51775Y18983D01*
X51711Y18818D01*
X51698Y18805D01*
X51673Y18741D01*
X51622Y18665D01*
X51570Y18563D01*
X51481Y18448D01*
X51392Y18333D01*
X51290Y18206D01*
X51162Y18091D01*
X51150Y18078D01*
X51099Y18040D01*
X51035Y17989D01*
X50933Y17925D01*
X50818Y17849D01*
X50678Y17785D01*
X50525Y17708D01*
X50359Y17645D01*
X50334D01*
X50283Y17619D01*
X50181Y17594D01*
X50066Y17568D01*
X49913Y17543D01*
X49747Y17517D01*
X49556Y17504D01*
X49365Y17492D01*
X49352D01*
X49327D01*
X49288D01*
X49237D01*
X49097Y17504D01*
X48906Y17530D01*
X48689Y17568D01*
X48460Y17619D01*
X48204Y17683D01*
X47949Y17785D01*
X47937D01*
X47924Y17798D01*
X47886Y17823D01*
X47835Y17836D01*
X47707Y17912D01*
X47541Y18002D01*
X47350Y18116D01*
X47159Y18257D01*
X46942Y18410D01*
X46751Y18588D01*
X46725Y18614D01*
X46662Y18677D01*
X46573Y18779D01*
X46445Y18920D01*
X46317Y19098D01*
X46177Y19289D01*
X46037Y19506D01*
X45910Y19748D01*
Y19761D01*
X45897Y19774D01*
X45884Y19812D01*
X45858Y19863D01*
X45807Y19991D01*
X45744Y20169D01*
X45693Y20373D01*
X45642Y20616D01*
X45603Y20870D01*
X45591Y21138D01*
Y21227D01*
X45603Y21329D01*
X45616Y21457D01*
X45642Y21610D01*
X45680Y21763D01*
X45731Y21929D01*
X45795Y22095D01*
X45807Y22107D01*
X45833Y22171D01*
X45871Y22248D01*
X45935Y22337D01*
X46011Y22452D01*
X46113Y22579D01*
X46216Y22694D01*
X46343Y22808D01*
X46356Y22821D01*
X46407Y22860D01*
X46470Y22910D01*
X46573Y22987D01*
X46687Y23051D01*
X46828Y23127D01*
X46993Y23204D01*
X47159Y23268D01*
X47185Y23280D01*
X47236Y23293D01*
X47337Y23318D01*
X47465Y23357D01*
X47605Y23382D01*
X47771Y23408D01*
X47962Y23420D01*
X48153Y23433D01*
X48166D01*
X48192D01*
X48230D01*
X48281D01*
X48421Y23420D01*
D02*
G37*
G36*
X46394Y17352D02*
Y17275D01*
X46407Y17224D01*
Y17160D01*
X46420Y17071D01*
X46458Y16893D01*
X46509Y16663D01*
X46598Y16421D01*
X46700Y16179D01*
X46840Y15924D01*
Y15911D01*
X46853Y15898D01*
X46917Y15822D01*
X47006Y15694D01*
X47146Y15554D01*
X47312Y15388D01*
X47503Y15210D01*
X47733Y15031D01*
X48000Y14878D01*
X51800Y14075D01*
Y13284D01*
X45693Y14572D01*
Y15324D01*
X47145Y15009D01*
X47133Y15031D01*
X47095Y15056D01*
X47044Y15082D01*
X46929Y15184D01*
X46777Y15312D01*
X46611Y15464D01*
X46432Y15630D01*
X46254Y15834D01*
X46101Y16038D01*
Y16051D01*
X46088Y16064D01*
X46037Y16140D01*
X45973Y16255D01*
X45897Y16408D01*
X45820Y16587D01*
X45757Y16791D01*
X45706Y17007D01*
X45680Y17224D01*
Y17275D01*
X45693Y17377D01*
Y17415D01*
X45706Y17504D01*
X46394Y17352D01*
D02*
G37*
G36*
X48421Y12660D02*
X48600Y12634D01*
X48804Y12608D01*
X49046Y12558D01*
X49301Y12494D01*
X49556Y12404D01*
X49569D01*
X49582Y12392D01*
X49620Y12379D01*
X49671Y12353D01*
X49798Y12290D01*
X49964Y12213D01*
X50143Y12111D01*
X50346Y11984D01*
X50563Y11831D01*
X50767Y11665D01*
X50793Y11639D01*
X50857Y11588D01*
X50946Y11486D01*
X51073Y11359D01*
X51201Y11193D01*
X51341Y11015D01*
X51481Y10811D01*
X51609Y10581D01*
Y10569D01*
X51622Y10556D01*
X51660Y10479D01*
X51711Y10352D01*
X51762Y10186D01*
X51813Y9995D01*
X51864Y9778D01*
X51902Y9549D01*
X51915Y9294D01*
Y9217D01*
X51902Y9166D01*
X51889Y9038D01*
X51864Y8860D01*
X51825Y8669D01*
X51749Y8465D01*
X51660Y8261D01*
X51532Y8070D01*
X51520Y8044D01*
X51456Y7993D01*
X51379Y7904D01*
X51265Y7814D01*
X51112Y7700D01*
X50946Y7585D01*
X50754Y7483D01*
X50538Y7394D01*
X54286Y6590D01*
Y5800D01*
X45693Y7623D01*
Y8325D01*
X46864Y8085D01*
X46866Y8082D01*
X46878D01*
X46864Y8085D01*
X46853Y8108D01*
X46777Y8172D01*
X46674Y8261D01*
X46547Y8401D01*
X46394Y8567D01*
X46241Y8745D01*
X46088Y8962D01*
X45948Y9191D01*
Y9204D01*
X45935Y9217D01*
X45910Y9255D01*
X45897Y9306D01*
X45833Y9434D01*
X45769Y9600D01*
X45706Y9804D01*
X45642Y10020D01*
X45603Y10262D01*
X45591Y10505D01*
Y10594D01*
X45603Y10683D01*
X45616Y10811D01*
X45642Y10951D01*
X45680Y11104D01*
X45731Y11257D01*
X45807Y11410D01*
X45820Y11423D01*
X45846Y11474D01*
X45897Y11550D01*
X45948Y11652D01*
X46037Y11754D01*
X46126Y11869D01*
X46241Y11984D01*
X46369Y12099D01*
X46381Y12111D01*
X46432Y12150D01*
X46496Y12201D01*
X46598Y12252D01*
X46713Y12328D01*
X46853Y12392D01*
X47019Y12455D01*
X47185Y12519D01*
X47210Y12532D01*
X47261Y12545D01*
X47363Y12570D01*
X47478Y12596D01*
X47631Y12621D01*
X47796Y12647D01*
X47975Y12672D01*
X48153D01*
X48166D01*
X48179D01*
X48217D01*
X48281D01*
X48421Y12660D01*
D02*
G37*
G36*
X36489Y40826D02*
X36565Y40813D01*
X36641Y40800D01*
X36845Y40736D01*
X37062Y40647D01*
X37177Y40583D01*
X37292Y40494D01*
X37407Y40405D01*
X37508Y40303D01*
X37611Y40175D01*
X37700Y40035D01*
Y40022D01*
X37712Y39997D01*
X37738Y39946D01*
X37764Y39882D01*
X37802Y39805D01*
X37840Y39704D01*
X37878Y39576D01*
X37916Y39436D01*
X37968Y39270D01*
X38006Y39092D01*
X38044Y38888D01*
X38069Y38658D01*
X38108Y38416D01*
X38120Y38161D01*
X38146Y37880D01*
Y37141D01*
X38133Y36873D01*
Y36733D01*
X38120Y36631D01*
Y36503D01*
X38108Y36363D01*
Y36210D01*
X38095Y36044D01*
X38108D01*
X38146Y36031D01*
X38210D01*
X38274Y36019D01*
X38286D01*
X38324D01*
X38375D01*
X38427D01*
X38439D01*
X38490D01*
X38579D01*
X38669Y36031D01*
X38796Y36044D01*
X38924Y36057D01*
X39191Y36121D01*
X39204D01*
X39255Y36146D01*
X39319Y36172D01*
X39408Y36210D01*
X39498Y36248D01*
X39612Y36299D01*
X39829Y36439D01*
X39842Y36452D01*
X39867Y36478D01*
X39918Y36529D01*
X39982Y36593D01*
X40046Y36669D01*
X40122Y36758D01*
X40262Y36962D01*
Y36975D01*
X40288Y37013D01*
X40314Y37090D01*
X40339Y37179D01*
X40365Y37281D01*
X40390Y37409D01*
X40403Y37549D01*
X40415Y37702D01*
Y37817D01*
X40403Y37880D01*
Y37969D01*
X40377Y38072D01*
X40339Y38288D01*
Y38301D01*
X40326Y38339D01*
X40301Y38390D01*
X40275Y38467D01*
X40199Y38645D01*
X40110Y38837D01*
X40097Y38849D01*
X40084Y38888D01*
X40046Y38939D01*
X40007Y39002D01*
X39893Y39155D01*
X39753Y39321D01*
X39740Y39334D01*
X39714Y39359D01*
X39676Y39397D01*
X39612Y39461D01*
X39459Y39576D01*
X39281Y39704D01*
X39472Y40354D01*
X39485Y40341D01*
X39536Y40315D01*
X39599Y40277D01*
X39676Y40214D01*
X39778Y40137D01*
X39880Y40048D01*
X40110Y39844D01*
X40122Y39831D01*
X40161Y39793D01*
X40211Y39729D01*
X40275Y39640D01*
X40352Y39551D01*
X40428Y39436D01*
X40594Y39168D01*
X40607Y39155D01*
X40632Y39104D01*
X40658Y39028D01*
X40709Y38939D01*
X40760Y38811D01*
X40811Y38684D01*
X40900Y38390D01*
Y38377D01*
X40913Y38326D01*
X40938Y38237D01*
X40951Y38135D01*
X40977Y38021D01*
X41002Y37880D01*
X41015Y37562D01*
Y37472D01*
X41002Y37358D01*
X40989Y37230D01*
X40964Y37064D01*
X40938Y36898D01*
X40887Y36720D01*
X40824Y36554D01*
X40811Y36542D01*
X40785Y36478D01*
X40734Y36401D01*
X40683Y36299D01*
X40594Y36184D01*
X40505Y36057D01*
X40403Y35930D01*
X40275Y35815D01*
X40262Y35802D01*
X40211Y35764D01*
X40135Y35713D01*
X40033Y35649D01*
X39918Y35572D01*
X39778Y35509D01*
X39625Y35432D01*
X39459Y35368D01*
X39434D01*
X39383Y35343D01*
X39281Y35318D01*
X39153Y35292D01*
X39000Y35267D01*
X38835Y35241D01*
X38643Y35228D01*
X38439Y35215D01*
X38427D01*
X38401D01*
X38363D01*
X38312D01*
X38171Y35228D01*
X37993Y35254D01*
X37776Y35279D01*
X37547Y35330D01*
X37292Y35407D01*
X37037Y35496D01*
X37024D01*
X37011Y35509D01*
X36973Y35522D01*
X36922Y35547D01*
X36794Y35611D01*
X36629Y35700D01*
X36450Y35802D01*
X36246Y35942D01*
X36042Y36095D01*
X35851Y36261D01*
X35825Y36287D01*
X35762Y36350D01*
X35673Y36452D01*
X35545Y36593D01*
X35418Y36771D01*
X35277Y36962D01*
X35137Y37192D01*
X35010Y37434D01*
Y37447D01*
X34997Y37459D01*
X34984Y37498D01*
X34958Y37549D01*
X34907Y37689D01*
X34844Y37868D01*
X34793Y38084D01*
X34742Y38326D01*
X34703Y38607D01*
X34691Y38888D01*
Y39040D01*
X34703Y39143D01*
X34716Y39257D01*
X34729Y39385D01*
X34793Y39652D01*
Y39665D01*
X34806Y39716D01*
X34831Y39780D01*
X34869Y39869D01*
X34971Y40060D01*
X35111Y40264D01*
X35124Y40277D01*
X35150Y40315D01*
X35188Y40354D01*
X35252Y40418D01*
X35328Y40481D01*
X35418Y40558D01*
X35622Y40685D01*
X35634Y40698D01*
X35673Y40711D01*
X35736Y40736D01*
X35825Y40762D01*
X35928Y40787D01*
X36055Y40813D01*
X36182Y40838D01*
X36336D01*
X36348D01*
X36374D01*
X36425D01*
X36489Y40826D01*
D02*
G37*
G36*
X39523Y33035D02*
X39536D01*
X39561Y33022D01*
X39638Y33010D01*
X39663D01*
X39727D01*
X39753D01*
X39803Y33022D01*
X39893Y33035D01*
X39982Y33086D01*
X40084Y33150D01*
X40173Y33252D01*
X40224Y33392D01*
X40250Y33469D01*
Y33660D01*
X40237Y33749D01*
X40211Y33864D01*
Y33877D01*
X40199Y33889D01*
X40186Y33979D01*
X40161Y34081D01*
X40122Y34208D01*
X40760Y34183D01*
Y34170D01*
X40773Y34144D01*
X40798Y34093D01*
X40811Y34030D01*
X40836Y33941D01*
X40862Y33851D01*
X40913Y33622D01*
Y33609D01*
X40925Y33571D01*
Y33507D01*
X40938Y33430D01*
X40951Y33252D01*
X40964Y33073D01*
Y32997D01*
X40951Y32921D01*
X40938Y32831D01*
X40913Y32717D01*
X40874Y32602D01*
X40824Y32487D01*
X40747Y32385D01*
X40734Y32372D01*
X40709Y32347D01*
X40658Y32309D01*
X40581Y32270D01*
X40505Y32219D01*
X40390Y32181D01*
X40262Y32155D01*
X40122Y32143D01*
X40110D01*
X40071D01*
X40020D01*
X39969Y32155D01*
X39957D01*
X39918Y32168D01*
X39854Y32181D01*
X39791Y32194D01*
X32345Y33762D01*
Y34565D01*
X39523Y33035D01*
D02*
G37*
G36*
X37521Y31301D02*
X37700Y31276D01*
X37904Y31250D01*
X38146Y31199D01*
X38401Y31135D01*
X38656Y31046D01*
X38669D01*
X38682Y31034D01*
X38720Y31021D01*
X38771Y30995D01*
X38898Y30931D01*
X39064Y30855D01*
X39243Y30753D01*
X39446Y30626D01*
X39663Y30472D01*
X39867Y30307D01*
X39893Y30281D01*
X39957Y30230D01*
X40046Y30128D01*
X40173Y30001D01*
X40301Y29835D01*
X40441Y29656D01*
X40581Y29452D01*
X40709Y29223D01*
Y29210D01*
X40721Y29197D01*
X40760Y29121D01*
X40811Y28993D01*
X40862Y28828D01*
X40913Y28637D01*
X40964Y28420D01*
X41002Y28190D01*
X41015Y27935D01*
Y27859D01*
X41002Y27808D01*
X40989Y27680D01*
X40964Y27502D01*
X40925Y27310D01*
X40849Y27106D01*
X40760Y26902D01*
X40632Y26711D01*
X40620Y26686D01*
X40556Y26635D01*
X40479Y26546D01*
X40365Y26456D01*
X40211Y26342D01*
X40046Y26227D01*
X39854Y26125D01*
X39638Y26035D01*
X43386Y25232D01*
Y24442D01*
X34793Y26265D01*
Y26966D01*
X35964Y26727D01*
X35966Y26724D01*
X35978D01*
X35964Y26727D01*
X35953Y26750D01*
X35877Y26813D01*
X35774Y26902D01*
X35647Y27043D01*
X35494Y27209D01*
X35341Y27387D01*
X35188Y27604D01*
X35048Y27833D01*
Y27846D01*
X35035Y27859D01*
X35010Y27897D01*
X34997Y27948D01*
X34933Y28076D01*
X34869Y28241D01*
X34806Y28445D01*
X34742Y28662D01*
X34703Y28904D01*
X34691Y29147D01*
Y29236D01*
X34703Y29325D01*
X34716Y29452D01*
X34742Y29593D01*
X34780Y29746D01*
X34831Y29899D01*
X34907Y30052D01*
X34920Y30064D01*
X34946Y30116D01*
X34997Y30192D01*
X35048Y30294D01*
X35137Y30396D01*
X35226Y30511D01*
X35341Y30626D01*
X35469Y30740D01*
X35481Y30753D01*
X35532Y30791D01*
X35596Y30842D01*
X35698Y30893D01*
X35813Y30970D01*
X35953Y31034D01*
X36119Y31097D01*
X36285Y31161D01*
X36310Y31174D01*
X36361Y31187D01*
X36463Y31212D01*
X36578Y31238D01*
X36731Y31263D01*
X36896Y31288D01*
X37075Y31314D01*
X37253D01*
X37266D01*
X37279D01*
X37317D01*
X37381D01*
X37521Y31301D01*
D02*
G37*
G36*
X36386Y24212D02*
X36527D01*
X36693Y24187D01*
X36884Y24161D01*
X37100Y24136D01*
X37330Y24085D01*
X40900Y23320D01*
Y22516D01*
X37496Y23231D01*
X37483D01*
X37445Y23243D01*
X37394Y23256D01*
X37330Y23269D01*
X37164Y23294D01*
X36986Y23320D01*
X36973D01*
X36948Y23333D01*
X36896D01*
X36833Y23345D01*
X36693Y23358D01*
X36540D01*
X36527D01*
X36489D01*
X36437D01*
X36361Y23345D01*
X36285Y23333D01*
X36182Y23307D01*
X35978Y23243D01*
X35877Y23192D01*
X35774Y23129D01*
X35673Y23052D01*
X35596Y22963D01*
X35519Y22861D01*
X35469Y22733D01*
X35430Y22593D01*
X35418Y22427D01*
Y22300D01*
X35430Y22223D01*
X35443Y22121D01*
X35469Y22006D01*
X35545Y21764D01*
Y21752D01*
X35570Y21713D01*
X35596Y21650D01*
X35634Y21573D01*
X35685Y21471D01*
X35749Y21369D01*
X35915Y21152D01*
X35928Y21139D01*
X35953Y21101D01*
X36004Y21050D01*
X36068Y20974D01*
X36157Y20885D01*
X36246Y20795D01*
X36476Y20604D01*
X36489Y20591D01*
X36527Y20566D01*
X36590Y20515D01*
X36680Y20464D01*
X36782Y20387D01*
X36909Y20324D01*
X37177Y20170D01*
X40900Y19393D01*
Y18589D01*
X37496Y19304D01*
X37483D01*
X37445Y19316D01*
X37394Y19329D01*
X37317Y19342D01*
X37152Y19367D01*
X36960Y19393D01*
X36948D01*
X36922Y19406D01*
X36871D01*
X36807Y19418D01*
X36667Y19431D01*
X36514D01*
X36501D01*
X36463D01*
X36412D01*
X36348Y19418D01*
X36259Y19406D01*
X36170Y19380D01*
X35966Y19316D01*
X35864Y19265D01*
X35762Y19202D01*
X35673Y19138D01*
X35583Y19049D01*
X35519Y18934D01*
X35469Y18819D01*
X35430Y18679D01*
X35418Y18513D01*
Y18449D01*
X35430Y18398D01*
X35443Y18271D01*
X35481Y18105D01*
X35532Y17914D01*
X35622Y17697D01*
X35736Y17468D01*
X35902Y17238D01*
Y17225D01*
X35928Y17212D01*
X35991Y17136D01*
X36093Y17021D01*
X36233Y16881D01*
X36412Y16728D01*
X36629Y16562D01*
X36884Y16397D01*
X37164Y16243D01*
X40900Y15453D01*
Y14662D01*
X34793Y15950D01*
Y16690D01*
X36168Y16387D01*
X36157Y16409D01*
X36119Y16435D01*
X36068Y16473D01*
X35940Y16575D01*
X35787Y16715D01*
X35609Y16881D01*
X35418Y17085D01*
X35252Y17302D01*
X35086Y17544D01*
Y17557D01*
X35073Y17570D01*
X35048Y17608D01*
X35022Y17659D01*
X34958Y17786D01*
X34882Y17965D01*
X34818Y18169D01*
X34754Y18398D01*
X34703Y18641D01*
X34691Y18895D01*
Y19010D01*
X34716Y19138D01*
X34742Y19291D01*
X34793Y19456D01*
X34869Y19635D01*
X34971Y19801D01*
X35111Y19941D01*
X35124Y19954D01*
X35188Y19992D01*
X35277Y20056D01*
X35405Y20120D01*
X35570Y20170D01*
X35774Y20234D01*
X36017Y20272D01*
X36285Y20285D01*
X36272Y20298D01*
X36246Y20311D01*
X36208Y20336D01*
X36157Y20374D01*
X36017Y20489D01*
X35838Y20629D01*
X35647Y20808D01*
X35456Y21012D01*
X35265Y21241D01*
X35099Y21484D01*
Y21497D01*
X35086Y21509D01*
X35061Y21547D01*
X35035Y21599D01*
X34971Y21739D01*
X34895Y21904D01*
X34818Y22121D01*
X34754Y22351D01*
X34703Y22606D01*
X34691Y22861D01*
Y22975D01*
X34716Y23116D01*
X34742Y23269D01*
X34793Y23447D01*
X34857Y23613D01*
X34958Y23779D01*
X35086Y23906D01*
X35099Y23919D01*
X35162Y23957D01*
X35252Y24008D01*
X35366Y24072D01*
X35532Y24123D01*
X35724Y24174D01*
X35940Y24212D01*
X36195Y24225D01*
X36221D01*
X36285D01*
X36386Y24212D01*
D02*
G37*
G36*
X33518Y14535D02*
Y13732D01*
X32345Y13974D01*
Y14777D01*
X33518Y14535D01*
D02*
G37*
G36*
X40900Y12954D02*
Y12163D01*
X34793Y13451D01*
Y14254D01*
X40900Y12954D01*
D02*
G37*
G36*
X34143Y11552D02*
X34130Y11539D01*
X34079Y11513D01*
X34002Y11450D01*
X33913Y11373D01*
X33798Y11271D01*
X33696Y11144D01*
X33594Y10978D01*
X33492Y10799D01*
X33479Y10774D01*
X33454Y10710D01*
X33416Y10595D01*
X33365Y10455D01*
X33327Y10277D01*
X33288Y10073D01*
X33263Y9843D01*
X33250Y9588D01*
Y9486D01*
X33263Y9371D01*
Y9231D01*
X33288Y9065D01*
X33314Y8887D01*
X33339Y8708D01*
X33390Y8530D01*
Y8517D01*
X33416Y8453D01*
X33441Y8377D01*
X33492Y8275D01*
X33543Y8160D01*
X33607Y8045D01*
X33683Y7918D01*
X33773Y7803D01*
X33786Y7790D01*
X33811Y7752D01*
X33862Y7701D01*
X33939Y7650D01*
X34028Y7574D01*
X34117Y7510D01*
X34232Y7446D01*
X34359Y7382D01*
X34372D01*
X34410Y7357D01*
X34487Y7344D01*
X34576Y7318D01*
X34678Y7293D01*
X34806Y7280D01*
X35073Y7255D01*
X35086D01*
X35124D01*
X35175Y7267D01*
X35239D01*
X35392Y7306D01*
X35558Y7369D01*
X35570D01*
X35596Y7395D01*
X35634Y7421D01*
X35673Y7459D01*
X35800Y7561D01*
X35915Y7714D01*
Y7727D01*
X35940Y7752D01*
X35966Y7803D01*
X36004Y7880D01*
X36042Y7969D01*
X36081Y8058D01*
X36132Y8173D01*
X36170Y8300D01*
Y8313D01*
X36182Y8364D01*
X36208Y8440D01*
X36233Y8542D01*
X36272Y8657D01*
X36310Y8798D01*
X36348Y8963D01*
X36386Y9129D01*
Y9155D01*
X36412Y9218D01*
X36437Y9307D01*
X36463Y9435D01*
X36514Y9575D01*
X36552Y9741D01*
X36667Y10060D01*
Y10073D01*
X36693Y10136D01*
X36718Y10213D01*
X36769Y10302D01*
X36820Y10417D01*
X36871Y10544D01*
X37024Y10774D01*
X37037Y10786D01*
X37062Y10825D01*
X37113Y10876D01*
X37164Y10952D01*
X37241Y11029D01*
X37330Y11105D01*
X37432Y11182D01*
X37547Y11246D01*
X37560Y11258D01*
X37598Y11271D01*
X37661Y11297D01*
X37751Y11335D01*
X37865Y11360D01*
X37993Y11386D01*
X38133Y11399D01*
X38286Y11411D01*
X38299D01*
X38312D01*
X38350D01*
X38401D01*
X38528Y11399D01*
X38682Y11373D01*
X38873Y11348D01*
X39077Y11297D01*
X39268Y11233D01*
X39472Y11144D01*
X39498Y11131D01*
X39549Y11092D01*
X39650Y11041D01*
X39765Y10965D01*
X39893Y10863D01*
X40033Y10735D01*
X40173Y10595D01*
X40301Y10430D01*
X40314Y10404D01*
X40352Y10353D01*
X40415Y10251D01*
X40492Y10124D01*
X40569Y9958D01*
X40645Y9779D01*
X40734Y9575D01*
X40798Y9346D01*
Y9333D01*
X40811Y9320D01*
Y9282D01*
X40824Y9244D01*
X40849Y9116D01*
X40874Y8951D01*
X40913Y8759D01*
X40938Y8530D01*
X40951Y8287D01*
X40964Y8020D01*
Y7943D01*
X40951Y7841D01*
X40938Y7714D01*
X40925Y7561D01*
X40900Y7369D01*
X40862Y7178D01*
X40811Y6961D01*
X40747Y6732D01*
X40670Y6490D01*
X40569Y6247D01*
X40454Y6005D01*
X40326Y5763D01*
X40161Y5534D01*
X39982Y5304D01*
X39765Y5100D01*
X39102Y5635D01*
X39128Y5648D01*
X39179Y5699D01*
X39268Y5776D01*
X39383Y5878D01*
X39510Y6018D01*
X39650Y6184D01*
X39791Y6388D01*
X39918Y6617D01*
Y6630D01*
X39931Y6643D01*
X39944Y6681D01*
X39969Y6732D01*
X39995Y6796D01*
X40020Y6872D01*
X40084Y7063D01*
X40148Y7293D01*
X40199Y7561D01*
X40237Y7867D01*
X40250Y8198D01*
Y8300D01*
X40237Y8377D01*
Y8466D01*
X40224Y8568D01*
X40199Y8810D01*
X40148Y9078D01*
X40071Y9358D01*
X39957Y9639D01*
X39816Y9881D01*
Y9894D01*
X39791Y9907D01*
X39727Y9983D01*
X39625Y10085D01*
X39485Y10200D01*
X39306Y10315D01*
X39090Y10404D01*
X38835Y10481D01*
X38694Y10493D01*
X38541Y10506D01*
X38528D01*
X38490D01*
X38427Y10493D01*
X38363D01*
X38197Y10442D01*
X38108Y10417D01*
X38019Y10366D01*
X38006D01*
X37980Y10340D01*
X37942Y10315D01*
X37891Y10264D01*
X37827Y10213D01*
X37764Y10149D01*
X37700Y10060D01*
X37636Y9971D01*
X37623Y9958D01*
X37611Y9920D01*
X37572Y9868D01*
X37534Y9792D01*
X37483Y9703D01*
X37432Y9601D01*
X37394Y9473D01*
X37343Y9333D01*
Y9320D01*
X37317Y9269D01*
X37292Y9193D01*
X37266Y9091D01*
X37228Y8963D01*
X37177Y8810D01*
X37139Y8644D01*
X37088Y8466D01*
X37075Y8440D01*
X37062Y8377D01*
X37037Y8287D01*
X36999Y8173D01*
X36960Y8032D01*
X36909Y7880D01*
X36807Y7574D01*
X36794Y7561D01*
X36782Y7510D01*
X36744Y7433D01*
X36705Y7344D01*
X36603Y7127D01*
X36463Y6910D01*
X36450Y6898D01*
X36425Y6872D01*
X36386Y6821D01*
X36323Y6758D01*
X36182Y6630D01*
X35991Y6503D01*
X35978D01*
X35940Y6477D01*
X35877Y6464D01*
X35800Y6439D01*
X35711Y6413D01*
X35596Y6388D01*
X35469Y6375D01*
X35328Y6362D01*
X35315D01*
X35303D01*
X35265D01*
X35214D01*
X35099Y6375D01*
X34933Y6401D01*
X34754Y6426D01*
X34563Y6464D01*
X34359Y6528D01*
X34155Y6617D01*
X34130Y6630D01*
X34066Y6668D01*
X33977Y6732D01*
X33849Y6808D01*
X33709Y6910D01*
X33569Y7038D01*
X33416Y7178D01*
X33275Y7344D01*
X33263Y7369D01*
X33212Y7421D01*
X33148Y7523D01*
X33072Y7650D01*
X32969Y7803D01*
X32880Y7994D01*
X32791Y8198D01*
X32715Y8415D01*
Y8428D01*
X32702Y8440D01*
Y8479D01*
X32689Y8517D01*
X32651Y8644D01*
X32612Y8810D01*
X32587Y9014D01*
X32549Y9231D01*
X32536Y9473D01*
X32523Y9741D01*
Y9868D01*
X32536Y10022D01*
X32549Y10213D01*
X32587Y10417D01*
X32625Y10646D01*
X32689Y10888D01*
X32778Y11105D01*
Y11118D01*
X32791Y11131D01*
X32816Y11207D01*
X32880Y11309D01*
X32957Y11450D01*
X33059Y11603D01*
X33173Y11768D01*
X33314Y11934D01*
X33479Y12087D01*
X34143Y11552D01*
D02*
G37*
%LPC*%
G36*
X98813Y177976D02*
D01*
Y175876D01*
X98805Y176030D01*
X98798Y176168D01*
X98776Y176307D01*
X98747Y176430D01*
X98718Y176547D01*
X98689Y176656D01*
X98652Y176759D01*
X98608Y176853D01*
X98572Y176934D01*
X98536Y177006D01*
X98506Y177072D01*
X98477Y177123D01*
X98448Y177167D01*
X98426Y177196D01*
X98419Y177210D01*
X98412Y177218D01*
X98331Y177313D01*
X98244Y177400D01*
X98047Y177560D01*
X97843Y177692D01*
X97646Y177794D01*
X97551Y177838D01*
X97464Y177874D01*
X97384Y177903D01*
X97318Y177932D01*
X97260Y177954D01*
X97216Y177969D01*
X97187Y177976D01*
X97180D01*
X96873Y176985D01*
X97070Y176926D01*
X97238Y176861D01*
X97377Y176795D01*
X97493Y176722D01*
X97581Y176664D01*
X97639Y176613D01*
X97675Y176576D01*
X97690Y176562D01*
X97777Y176445D01*
X97836Y176328D01*
X97879Y176212D01*
X97916Y176110D01*
X97931Y176015D01*
X97938Y175935D01*
X97945Y175906D01*
Y175869D01*
X97938Y175767D01*
X97931Y175672D01*
X97879Y175497D01*
X97821Y175344D01*
X97741Y175220D01*
X97668Y175118D01*
X97610Y175045D01*
X97581Y175016D01*
X97559Y174994D01*
X97551Y174987D01*
X97544Y174980D01*
X97464Y174922D01*
X97369Y174870D01*
X97267Y174819D01*
X97158Y174783D01*
X96932Y174725D01*
X96706Y174681D01*
X96596Y174666D01*
X96502Y174659D01*
X96407Y174644D01*
X96327D01*
X96268Y174637D01*
X96217D01*
X96181D01*
X96174D01*
X96006Y174644D01*
X95853Y174652D01*
X95714Y174666D01*
X95583Y174688D01*
X95467Y174717D01*
X95357Y174747D01*
X95262Y174776D01*
X95175Y174812D01*
X95102Y174841D01*
X95036Y174870D01*
X94985Y174900D01*
X94942Y174929D01*
X94905Y174951D01*
X94883Y174965D01*
X94869Y174980D01*
X94861D01*
X94788Y175045D01*
X94723Y175118D01*
X94672Y175191D01*
X94628Y175271D01*
X94555Y175425D01*
X94504Y175570D01*
X94475Y175694D01*
X94468Y175752D01*
X94460Y175796D01*
X94453Y175840D01*
Y175891D01*
X94460Y176037D01*
X94490Y176168D01*
X94526Y176285D01*
X94570Y176387D01*
X94614Y176467D01*
X94650Y176525D01*
X94679Y176562D01*
X94687Y176576D01*
X94774Y176671D01*
X94876Y176759D01*
X94978Y176824D01*
X95080Y176875D01*
X95168Y176912D01*
X95233Y176934D01*
X95262Y176948D01*
X95284D01*
X95292Y176955D01*
X95299D01*
X95058Y177961D01*
X94847Y177889D01*
X94665Y177808D01*
X94504Y177721D01*
X94373Y177641D01*
X94271Y177560D01*
X94227Y177531D01*
X94191Y177502D01*
X94169Y177480D01*
X94147Y177458D01*
X94132Y177451D01*
Y177444D01*
X94038Y177334D01*
X93950Y177210D01*
X93877Y177094D01*
X93819Y176970D01*
X93761Y176839D01*
X93717Y176715D01*
X93680Y176591D01*
X93651Y176474D01*
X93629Y176365D01*
X93615Y176263D01*
X93600Y176175D01*
X93593Y176095D01*
X93586Y176030D01*
Y175942D01*
X93593Y175752D01*
X93615Y175563D01*
X93651Y175395D01*
X93695Y175228D01*
X93746Y175082D01*
X93804Y174936D01*
X93870Y174812D01*
X93936Y174696D01*
X94001Y174586D01*
X94067Y174499D01*
X94125Y174418D01*
X94176Y174353D01*
X94220Y174302D01*
X94256Y174265D01*
X94278Y174243D01*
X94286Y174236D01*
X94424Y174120D01*
X94570Y174025D01*
X94723Y173937D01*
X94883Y173864D01*
X95051Y173799D01*
X95211Y173748D01*
X95372Y173704D01*
X95525Y173668D01*
X95678Y173638D01*
X95809Y173624D01*
X95933Y173609D01*
X96035Y173595D01*
X96123D01*
X96188Y173587D01*
X93586D01*
X96246D01*
X96465Y173595D01*
X96669Y173617D01*
X96866Y173646D01*
X97041Y173689D01*
X97209Y173733D01*
X97369Y173792D01*
X97508Y173850D01*
X97632Y173908D01*
X97748Y173967D01*
X97850Y174025D01*
X97931Y174083D01*
X98003Y174127D01*
X98054Y174171D01*
X98098Y174200D01*
X98120Y174222D01*
X98127Y174229D01*
X98251Y174353D01*
X98353Y174484D01*
X98448Y174623D01*
X98521Y174761D01*
X98587Y174900D01*
X98645Y175038D01*
X98689Y175169D01*
X98725Y175293D01*
X98754Y175417D01*
X98776Y175526D01*
X98791Y175629D01*
X98798Y175709D01*
X98805Y175782D01*
X98813Y175833D01*
Y173587D01*
D01*
D01*
Y177976D01*
D02*
G37*
G36*
X118513Y88108D02*
X113468D01*
Y83887D01*
X118513D01*
Y86074D01*
X118505Y86198D01*
Y86417D01*
X118498Y86505D01*
Y86643D01*
X118491Y86694D01*
Y86767D01*
X118483Y86796D01*
Y86825D01*
X118462Y86971D01*
X118425Y87102D01*
X118389Y87219D01*
X118345Y87321D01*
X118308Y87401D01*
X118272Y87459D01*
X118250Y87496D01*
X118243Y87511D01*
X118163Y87613D01*
X118075Y87693D01*
X117995Y87773D01*
X117908Y87831D01*
X117835Y87882D01*
X117776Y87919D01*
X117740Y87941D01*
X117725Y87948D01*
X117601Y87999D01*
X117485Y88043D01*
X117368Y88072D01*
X117266Y88086D01*
X117178Y88101D01*
X117113Y88108D01*
X118513D01*
D01*
D02*
G37*
%LPD*%
G36*
X116894Y88101D02*
X116748Y88072D01*
X116624Y88028D01*
X116508Y87984D01*
X116420Y87941D01*
X116355Y87897D01*
X116311Y87868D01*
X116296Y87861D01*
X116180Y87758D01*
X116085Y87649D01*
X116005Y87525D01*
X115946Y87416D01*
X115895Y87314D01*
X115859Y87226D01*
X115852Y87197D01*
X115845Y87175D01*
X115837Y87161D01*
Y87153D01*
X115772Y87270D01*
X115706Y87372D01*
X115626Y87459D01*
X115560Y87532D01*
X115495Y87583D01*
X115444Y87627D01*
X115407Y87656D01*
X115392Y87664D01*
X115276Y87729D01*
X115166Y87780D01*
X115057Y87809D01*
X114955Y87839D01*
X114868Y87853D01*
X114802Y87861D01*
X114758D01*
X114751D01*
X114744D01*
X114627Y87853D01*
X114510Y87839D01*
X114416Y87809D01*
X114328Y87780D01*
X114255Y87751D01*
X114197Y87722D01*
X114168Y87707D01*
X114153Y87700D01*
X114058Y87642D01*
X113978Y87576D01*
X113905Y87511D01*
X113840Y87452D01*
X113796Y87394D01*
X113760Y87350D01*
X113738Y87321D01*
X113730Y87314D01*
X113672Y87226D01*
X113628Y87131D01*
X113592Y87044D01*
X113563Y86964D01*
X113541Y86891D01*
X113526Y86840D01*
X113519Y86803D01*
Y86789D01*
X113504Y86665D01*
X113490Y86526D01*
X113482Y86381D01*
X113475Y86235D01*
X113468Y86104D01*
Y88108D01*
X117055D01*
X116894Y88101D01*
D02*
G37*
G36*
X117098Y87051D02*
X117186Y87037D01*
X117259Y87015D01*
X117317Y86986D01*
X117368Y86957D01*
X117404Y86935D01*
X117426Y86920D01*
X117434Y86913D01*
X117485Y86854D01*
X117528Y86796D01*
X117565Y86730D01*
X117594Y86672D01*
X117609Y86621D01*
X117623Y86577D01*
X117631Y86548D01*
Y86541D01*
X117638Y86512D01*
Y86468D01*
X117645Y86373D01*
X117652Y86257D01*
Y86140D01*
X117660Y86031D01*
Y84908D01*
X116311D01*
Y85965D01*
X116318Y86067D01*
X116326Y86155D01*
Y86242D01*
X116333Y86315D01*
X116340Y86381D01*
X116348Y86432D01*
X116355Y86483D01*
X116362Y86519D01*
X116369Y86577D01*
X116384Y86614D01*
Y86621D01*
X116413Y86694D01*
X116449Y86760D01*
X116486Y86818D01*
X116530Y86862D01*
X116559Y86898D01*
X116588Y86920D01*
X116610Y86935D01*
X116617Y86942D01*
X116683Y86978D01*
X116748Y87007D01*
X116807Y87029D01*
X116872Y87044D01*
X116923Y87051D01*
X116967Y87059D01*
X116996D01*
X117004D01*
X117098Y87051D01*
D02*
G37*
G36*
X114970Y86862D02*
X115050Y86847D01*
X115115Y86818D01*
X115174Y86796D01*
X115225Y86767D01*
X115254Y86738D01*
X115276Y86723D01*
X115283Y86716D01*
X115334Y86658D01*
X115371Y86592D01*
X115400Y86526D01*
X115422Y86461D01*
X115444Y86395D01*
X115451Y86351D01*
X115458Y86322D01*
Y86278D01*
X115465Y86235D01*
Y86009D01*
X115473Y85885D01*
Y84908D01*
X114306D01*
Y85921D01*
X114314Y86001D01*
Y86191D01*
X114321Y86235D01*
Y86315D01*
X114328Y86344D01*
Y86351D01*
X114343Y86439D01*
X114365Y86519D01*
X114394Y86585D01*
X114423Y86643D01*
X114452Y86680D01*
X114481Y86716D01*
X114496Y86730D01*
X114503Y86738D01*
X114561Y86782D01*
X114627Y86811D01*
X114685Y86840D01*
X114744Y86854D01*
X114802Y86862D01*
X114846Y86869D01*
X114875D01*
X114882D01*
X114970Y86862D01*
D02*
G37*
%LPC*%
G36*
X98800Y35559D02*
X93755Y33533D01*
Y33693D01*
Y32454D01*
X98800Y30500D01*
Y35559D01*
D02*
G37*
%LPD*%
G36*
X96803Y32301D02*
X94929Y32986D01*
X96803Y33693D01*
Y32301D01*
D02*
G37*
G36*
X98800Y31579D02*
X97655Y31995D01*
Y34021D01*
X98800Y34459D01*
Y31579D01*
D02*
G37*
%LPC*%
G36*
X216594Y89227D02*
X216581D01*
X216540Y89214D01*
X216473Y89200D01*
X216392Y89187D01*
X216190Y89119D01*
X215974Y89025D01*
X215961Y89012D01*
X215920Y88998D01*
X215866Y88958D01*
X215799Y88917D01*
X215624Y88782D01*
X215448Y88621D01*
X215435Y88607D01*
X215408Y88580D01*
X215368Y88526D01*
X215314Y88472D01*
X215260Y88392D01*
X215206Y88297D01*
X215098Y88095D01*
Y88081D01*
X215085Y88041D01*
X215057Y87987D01*
X215031Y87906D01*
X215017Y87812D01*
X214990Y87717D01*
X214977Y87488D01*
Y87394D01*
X214990Y87286D01*
X215017Y87151D01*
X215044Y86990D01*
X215098Y86801D01*
X215165Y86612D01*
X215260Y86423D01*
X215273Y86396D01*
X215314Y86343D01*
X215368Y86248D01*
X215448Y86127D01*
X215556Y85979D01*
X215678Y85830D01*
X215812Y85682D01*
X215974Y85534D01*
X215988Y85520D01*
X216055Y85466D01*
X216149Y85399D01*
X216271Y85318D01*
X216419Y85224D01*
X216594Y85116D01*
X216783Y85022D01*
X216985Y84927D01*
X217012Y84914D01*
X217079Y84900D01*
X217187Y84860D01*
X217336Y84819D01*
X217497Y84779D01*
X217686Y84752D01*
X217888Y84725D01*
X218091Y84711D01*
X218104D01*
X218158D01*
X218252Y84725D01*
X218347D01*
X218481Y84738D01*
X218616Y84765D01*
X218899Y84833D01*
X218913D01*
X218967Y84860D01*
X219034Y84887D01*
X219128Y84927D01*
X219223Y84968D01*
X219344Y85035D01*
X219573Y85183D01*
X219587Y85197D01*
X219614Y85224D01*
X219668Y85278D01*
X219735Y85345D01*
X219802Y85426D01*
X219883Y85520D01*
X220018Y85749D01*
Y85763D01*
X220045Y85803D01*
X220072Y85871D01*
X220099Y85965D01*
X220126Y86073D01*
X220153Y86194D01*
X220166Y86329D01*
X220180Y86477D01*
Y86531D01*
X220166Y86585D01*
Y86666D01*
X220153Y86760D01*
X220126Y86882D01*
X220059Y87124D01*
Y87138D01*
X220032Y87192D01*
X220005Y87259D01*
X219964Y87353D01*
X219924Y87461D01*
X219870Y87569D01*
X219722Y87825D01*
X219708Y87839D01*
X219681Y87879D01*
X219641Y87947D01*
X219573Y88028D01*
X219425Y88216D01*
X219223Y88418D01*
X219209Y88432D01*
X219169Y88459D01*
X219115Y88513D01*
X219034Y88567D01*
X218940Y88634D01*
X218832Y88701D01*
X218711Y88755D01*
X218589Y88809D01*
X216594Y89227D01*
D02*
G37*
G36*
X215961Y79117D02*
X215934D01*
X215866D01*
X215772Y79090D01*
X215651Y79063D01*
X215516Y79009D01*
X215381Y78942D01*
X215260Y78834D01*
X215152Y78699D01*
X215138Y78686D01*
X215111Y78632D01*
X215071Y78538D01*
X215017Y78430D01*
X214977Y78295D01*
X214936Y78120D01*
X214909Y77944D01*
X214896Y77742D01*
Y77648D01*
X214909Y77540D01*
X214923Y77405D01*
X214950Y77244D01*
X214977Y77082D01*
X215031Y76893D01*
X215098Y76718D01*
X215111Y76704D01*
X215138Y76637D01*
X215179Y76556D01*
X215233Y76448D01*
X215300Y76313D01*
X215394Y76179D01*
X215489Y76030D01*
X215610Y75896D01*
X215624Y75882D01*
X215664Y75842D01*
X215732Y75774D01*
X215826Y75693D01*
X215934Y75599D01*
X216055Y75491D01*
X216203Y75383D01*
X216352Y75289D01*
X216365Y75275D01*
X216419Y75248D01*
X216513Y75208D01*
X216621Y75154D01*
X216742Y75100D01*
X216891Y75033D01*
X217228Y74925D01*
Y75087D01*
X217241Y75195D01*
Y75316D01*
X217255Y75464D01*
X217268Y75747D01*
Y75976D01*
X217282Y76098D01*
Y76731D01*
X217268Y76907D01*
X217255Y77095D01*
X217241Y77311D01*
X217214Y77513D01*
X217187Y77715D01*
Y77742D01*
X217174Y77796D01*
X217147Y77891D01*
X217107Y78012D01*
X217079Y78147D01*
X217026Y78281D01*
X216972Y78416D01*
X216918Y78538D01*
X216904Y78551D01*
X216891Y78592D01*
X216850Y78645D01*
X216796Y78713D01*
X216662Y78861D01*
X216581Y78929D01*
X216500Y78982D01*
X216486D01*
X216459Y79009D01*
X216406Y79023D01*
X216338Y79050D01*
X216163Y79090D01*
X215961Y79117D01*
D02*
G37*
G36*
X225804Y82016D02*
X225793D01*
X225771D01*
X225728D01*
X225673D01*
X225607Y82005D01*
X225531Y81994D01*
X225345Y81972D01*
X225148Y81928D01*
X224941Y81874D01*
X224733Y81786D01*
X224536Y81677D01*
X224525D01*
X224514Y81666D01*
X224460Y81611D01*
X224383Y81535D01*
X224285Y81436D01*
X224197Y81294D01*
X224121Y81141D01*
X224066Y80955D01*
X224044Y80846D01*
Y80660D01*
X224055Y80562D01*
X224077Y80453D01*
X224099Y80310D01*
X224143Y80158D01*
X224208Y80005D01*
X224285Y79840D01*
X224296Y79819D01*
X224328Y79764D01*
X224383Y79688D01*
X224460Y79589D01*
X224547Y79469D01*
X224667Y79349D01*
X224787Y79217D01*
X224941Y79097D01*
X224962Y79086D01*
X225017Y79043D01*
X225104Y78988D01*
X225214Y78912D01*
X225367Y78835D01*
X225531Y78748D01*
X225717Y78671D01*
X225924Y78594D01*
X225935D01*
X225946Y78584D01*
X225979Y78573D01*
X226023Y78562D01*
X226132Y78540D01*
X226285Y78507D01*
X226460Y78463D01*
X226657Y78442D01*
X226886Y78420D01*
X227116Y78409D01*
X227127D01*
X227148D01*
X227192D01*
X227247Y78420D01*
X227312D01*
X227389Y78431D01*
X227564Y78452D01*
X227761Y78496D01*
X227979Y78551D01*
X228187Y78638D01*
X228383Y78748D01*
X228405Y78759D01*
X228460Y78813D01*
X228537Y78890D01*
X228624Y78999D01*
X228711Y79130D01*
X228788Y79294D01*
X228843Y79480D01*
X228854Y79589D01*
X228864Y79698D01*
Y79775D01*
X228854Y79862D01*
X228832Y79983D01*
X228810Y80114D01*
X228766Y80267D01*
X228711Y80420D01*
X228635Y80584D01*
X228624Y80606D01*
X228591Y80660D01*
X228537Y80737D01*
X228460Y80835D01*
X228373Y80955D01*
X228252Y81076D01*
X228121Y81207D01*
X227979Y81327D01*
X227957Y81338D01*
X227903Y81382D01*
X227815Y81436D01*
X227706Y81513D01*
X227564Y81589D01*
X227389Y81677D01*
X227203Y81753D01*
X227006Y81830D01*
X226995D01*
X226985Y81841D01*
X226952Y81852D01*
X226908Y81863D01*
X226799Y81884D01*
X226646Y81928D01*
X226471Y81961D01*
X226263Y81983D01*
X226045Y82005D01*
X225804Y82016D01*
D02*
G37*
G36*
X205614Y51018D02*
X205591D01*
X205532D01*
X205451Y50995D01*
X205346Y50972D01*
X205229Y50925D01*
X205113Y50867D01*
X205008Y50774D01*
X204914Y50657D01*
X204903Y50645D01*
X204879Y50599D01*
X204844Y50517D01*
X204798Y50424D01*
X204763Y50307D01*
X204728Y50156D01*
X204705Y50004D01*
X204693Y49829D01*
Y49747D01*
X204705Y49654D01*
X204716Y49538D01*
X204740Y49398D01*
X204763Y49258D01*
X204809Y49095D01*
X204868Y48943D01*
X204879Y48931D01*
X204903Y48873D01*
X204938Y48803D01*
X204984Y48710D01*
X205043Y48593D01*
X205124Y48476D01*
X205206Y48348D01*
X205311Y48232D01*
X205323Y48220D01*
X205358Y48185D01*
X205416Y48127D01*
X205498Y48057D01*
X205591Y47975D01*
X205696Y47882D01*
X205824Y47789D01*
X205952Y47707D01*
X205964Y47695D01*
X206011Y47672D01*
X206092Y47637D01*
X206185Y47590D01*
X206290Y47544D01*
X206419Y47485D01*
X206710Y47392D01*
Y47532D01*
X206722Y47625D01*
Y47730D01*
X206733Y47859D01*
X206745Y48103D01*
Y48302D01*
X206757Y48406D01*
Y48954D01*
X206745Y49106D01*
X206733Y49269D01*
X206722Y49456D01*
X206698Y49631D01*
X206675Y49806D01*
Y49829D01*
X206663Y49876D01*
X206640Y49957D01*
X206605Y50062D01*
X206582Y50179D01*
X206535Y50295D01*
X206489Y50412D01*
X206442Y50517D01*
X206430Y50529D01*
X206419Y50564D01*
X206384Y50610D01*
X206337Y50669D01*
X206220Y50797D01*
X206150Y50855D01*
X206081Y50902D01*
X206069D01*
X206046Y50925D01*
X205999Y50937D01*
X205941Y50960D01*
X205789Y50995D01*
X205614Y51018D01*
D02*
G37*
G36*
X205286Y38778D02*
X205288Y38775D01*
X205299D01*
X205286Y38778D01*
D02*
G37*
G36*
X206582Y42215D02*
X206570D01*
X206523D01*
X206442D01*
X206349Y42203D01*
X206244Y42192D01*
X206127Y42168D01*
X205882Y42110D01*
X205871D01*
X205824Y42087D01*
X205766Y42064D01*
X205684Y42028D01*
X205498Y41935D01*
X205299Y41795D01*
X205288Y41784D01*
X205253Y41760D01*
X205218Y41714D01*
X205159Y41667D01*
X205101Y41597D01*
X205031Y41515D01*
X204914Y41317D01*
X204903Y41306D01*
X204891Y41271D01*
X204868Y41212D01*
X204833Y41131D01*
X204809Y41037D01*
X204786Y40933D01*
X204774Y40816D01*
X204763Y40688D01*
Y40583D01*
X204774Y40513D01*
X204786Y40431D01*
X204809Y40338D01*
X204879Y40116D01*
Y40105D01*
X204903Y40070D01*
X204926Y40000D01*
X204961Y39930D01*
X204996Y39836D01*
X205054Y39743D01*
X205183Y39522D01*
X205194Y39510D01*
X205218Y39475D01*
X205253Y39417D01*
X205311Y39347D01*
X205369Y39265D01*
X205451Y39184D01*
X205626Y38997D01*
X205637Y38985D01*
X205672Y38962D01*
X205719Y38927D01*
X205777Y38869D01*
X205859Y38822D01*
X205952Y38764D01*
X206150Y38670D01*
X207864Y38297D01*
X207876D01*
X207911Y38309D01*
X207969Y38321D01*
X208051Y38344D01*
X208133Y38367D01*
X208226Y38402D01*
X208424Y38484D01*
X208436Y38495D01*
X208471Y38507D01*
X208517Y38542D01*
X208576Y38577D01*
X208716Y38682D01*
X208867Y38822D01*
X208879Y38834D01*
X208902Y38857D01*
X208937Y38904D01*
X208972Y38950D01*
X209065Y39090D01*
X209159Y39265D01*
Y39277D01*
X209170Y39312D01*
X209194Y39358D01*
X209205Y39428D01*
X209229Y39510D01*
X209252Y39603D01*
X209264Y39813D01*
Y39895D01*
X209252Y39988D01*
X209229Y40105D01*
X209205Y40244D01*
X209170Y40408D01*
X209112Y40571D01*
X209030Y40734D01*
X209019Y40758D01*
X208984Y40804D01*
X208937Y40898D01*
X208856Y41002D01*
X208774Y41119D01*
X208669Y41247D01*
X208541Y41375D01*
X208413Y41504D01*
X208389Y41515D01*
X208343Y41562D01*
X208261Y41620D01*
X208156Y41690D01*
X208028Y41772D01*
X207888Y41854D01*
X207724Y41947D01*
X207550Y42017D01*
X207526Y42028D01*
X207468Y42052D01*
X207375Y42075D01*
X207246Y42122D01*
X207106Y42157D01*
X206943Y42180D01*
X206768Y42203D01*
X206582Y42215D01*
D02*
G37*
G36*
X216326Y49705D02*
X216056D01*
X215827Y49678D01*
X215625Y49624D01*
X215463Y49557D01*
X215328Y49490D01*
X215234Y49436D01*
X215166Y49382D01*
X215153Y49368D01*
X215005Y49220D01*
X214897Y49045D01*
X214816Y48856D01*
X214762Y48694D01*
X214721Y48533D01*
X214708Y48411D01*
X214694Y48317D01*
Y48290D01*
X214721Y48034D01*
X214775Y47805D01*
X214843Y47602D01*
X214924Y47414D01*
X215005Y47265D01*
X215085Y47158D01*
X215139Y47090D01*
X215153Y47063D01*
X215328Y46888D01*
X215517Y46726D01*
X215719Y46605D01*
X215894Y46497D01*
X216070Y46430D01*
X216204Y46376D01*
X216258Y46362D01*
X216299Y46349D01*
X216312Y46335D01*
X216326D01*
Y49705D01*
D02*
G37*
G36*
X216555Y31656D02*
X216285Y31642D01*
X216042Y31615D01*
X215840Y31561D01*
X215692Y31494D01*
X215571Y31440D01*
X215503Y31400D01*
X215476Y31386D01*
X215301Y31224D01*
X215166Y31049D01*
X215058Y30860D01*
X214991Y30685D01*
X214951Y30523D01*
X214924Y30389D01*
X214910Y30335D01*
Y30267D01*
X214937Y29998D01*
X215005Y29755D01*
X215099Y29539D01*
X215207Y29337D01*
X215301Y29175D01*
X215395Y29068D01*
X215449Y28987D01*
X215476Y28973D01*
Y28960D01*
X215692Y28771D01*
X215921Y28609D01*
X216150Y28474D01*
X216366Y28380D01*
X216568Y28313D01*
X216717Y28272D01*
X216784Y28245D01*
X216824D01*
X216851Y28232D01*
X216865D01*
X217175Y28205D01*
X217458Y28218D01*
X217687Y28245D01*
X217889Y28299D01*
X218051Y28367D01*
X218172Y28420D01*
X218240Y28461D01*
X218267Y28474D01*
X218442Y28636D01*
X218577Y28811D01*
X218671Y28987D01*
X218739Y29175D01*
X218779Y29324D01*
X218806Y29458D01*
X218819Y29512D01*
Y29580D01*
X218792Y29849D01*
X218725Y30092D01*
X218631Y30321D01*
X218536Y30510D01*
X218428Y30672D01*
X218348Y30793D01*
X218294Y30860D01*
X218267Y30887D01*
X218051Y31076D01*
X217822Y31238D01*
X217579Y31373D01*
X217364Y31467D01*
X217161Y31548D01*
X217013Y31588D01*
X216946Y31615D01*
X216905D01*
X216878Y31629D01*
X216865D01*
X216555Y31656D01*
D02*
G37*
G36*
X213980Y24673D02*
X213778Y24659D01*
X213603Y24633D01*
X213454Y24606D01*
X213333Y24552D01*
X213252Y24511D01*
X213198Y24484D01*
X213185Y24471D01*
X213063Y24363D01*
X212969Y24242D01*
X212888Y24120D01*
X212848Y23999D01*
X212821Y23891D01*
X212807Y23810D01*
X212794Y23756D01*
Y21815D01*
X215665Y21317D01*
Y23298D01*
X215638Y23473D01*
X215598Y23635D01*
X215530Y23783D01*
X215463Y23905D01*
X215395Y24013D01*
X215328Y24080D01*
X215288Y24134D01*
X215274Y24147D01*
X215112Y24282D01*
X214951Y24390D01*
X214775Y24471D01*
X214600Y24538D01*
X214452Y24592D01*
X214331Y24619D01*
X214250Y24646D01*
X214236D01*
X214223D01*
X213980Y24673D01*
D02*
G37*
G36*
X205821Y64319D02*
X205611Y64308D01*
X205424Y64296D01*
X205273Y64273D01*
X205156Y64249D01*
X205110Y64238D01*
X205075D01*
X205063Y64226D01*
X205051D01*
X204841Y64156D01*
X204655Y64075D01*
X204503Y63981D01*
X204363Y63888D01*
X204258Y63806D01*
X204177Y63736D01*
X204130Y63690D01*
X204118Y63666D01*
X204002Y63503D01*
X203908Y63328D01*
X203839Y63153D01*
X203792Y62979D01*
X203769Y62839D01*
X203757Y62710D01*
X203745Y62664D01*
Y62605D01*
X203769Y62361D01*
X203815Y62127D01*
X203874Y61918D01*
X203943Y61731D01*
X204013Y61591D01*
X204072Y61474D01*
X204118Y61405D01*
X204130Y61393D01*
Y61381D01*
X204282Y61195D01*
X204433Y61020D01*
X204596Y60868D01*
X204748Y60740D01*
X204876Y60635D01*
X204993Y60553D01*
X205063Y60507D01*
X205075Y60495D01*
X205086D01*
X205308Y60378D01*
X205518Y60273D01*
X205716Y60192D01*
X205902Y60133D01*
X206066Y60087D01*
X206194Y60052D01*
X206241Y60040D01*
X206276D01*
X206287Y60029D01*
X206299D01*
X206544Y59994D01*
X206777Y59982D01*
X206998Y59994D01*
X207185Y60005D01*
X207337Y60017D01*
X207453Y60040D01*
X207500Y60052D01*
X207535D01*
X207546Y60064D01*
X207558D01*
X207756Y60133D01*
X207943Y60215D01*
X208106Y60308D01*
X208234Y60402D01*
X208351Y60483D01*
X208421Y60553D01*
X208479Y60612D01*
X208491Y60623D01*
X208608Y60786D01*
X208701Y60973D01*
X208771Y61148D01*
X208817Y61323D01*
X208841Y61474D01*
X208852Y61603D01*
X208864Y61649D01*
Y61708D01*
X208841Y61953D01*
X208794Y62186D01*
X208736Y62396D01*
X208666Y62582D01*
X208596Y62722D01*
X208538Y62839D01*
X208491Y62909D01*
X208479Y62932D01*
X208328Y63118D01*
X208176Y63293D01*
X208013Y63445D01*
X207861Y63573D01*
X207721Y63666D01*
X207616Y63748D01*
X207546Y63795D01*
X207535Y63806D01*
X207523D01*
X207302Y63923D01*
X207080Y64028D01*
X206882Y64110D01*
X206695Y64168D01*
X206532Y64214D01*
X206404Y64249D01*
X206357Y64261D01*
X206322Y64273D01*
X206311D01*
X206299D01*
X206054Y64308D01*
X205821Y64319D01*
D02*
G37*
G36*
X36221Y55570D02*
X35991Y55558D01*
X35787Y55545D01*
X35622Y55519D01*
X35494Y55494D01*
X35443Y55481D01*
X35405D01*
X35392Y55468D01*
X35379D01*
X35150Y55392D01*
X34946Y55303D01*
X34780Y55200D01*
X34627Y55098D01*
X34512Y55009D01*
X34423Y54933D01*
X34372Y54882D01*
X34359Y54856D01*
X34232Y54678D01*
X34130Y54487D01*
X34053Y54295D01*
X34002Y54104D01*
X33977Y53951D01*
X33964Y53811D01*
X33951Y53760D01*
Y53696D01*
X33977Y53428D01*
X34028Y53173D01*
X34091Y52944D01*
X34168Y52740D01*
X34244Y52587D01*
X34308Y52459D01*
X34359Y52383D01*
X34372Y52370D01*
Y52357D01*
X34538Y52153D01*
X34703Y51962D01*
X34882Y51796D01*
X35048Y51656D01*
X35188Y51541D01*
X35315Y51452D01*
X35392Y51401D01*
X35405Y51388D01*
X35418D01*
X35660Y51261D01*
X35889Y51146D01*
X36106Y51057D01*
X36310Y50993D01*
X36489Y50942D01*
X36629Y50904D01*
X36680Y50891D01*
X36718D01*
X36731Y50878D01*
X36744D01*
X37011Y50840D01*
X37266Y50827D01*
X37508Y50840D01*
X37712Y50853D01*
X37878Y50866D01*
X38006Y50891D01*
X38057Y50904D01*
X38095D01*
X38108Y50916D01*
X38120D01*
X38337Y50993D01*
X38541Y51082D01*
X38720Y51184D01*
X38860Y51286D01*
X38987Y51376D01*
X39064Y51452D01*
X39128Y51516D01*
X39140Y51529D01*
X39268Y51707D01*
X39370Y51911D01*
X39446Y52102D01*
X39498Y52293D01*
X39523Y52459D01*
X39536Y52600D01*
X39549Y52650D01*
Y52714D01*
X39523Y52982D01*
X39472Y53237D01*
X39408Y53466D01*
X39332Y53671D01*
X39255Y53824D01*
X39191Y53951D01*
X39140Y54027D01*
X39128Y54053D01*
X38962Y54257D01*
X38796Y54448D01*
X38618Y54614D01*
X38452Y54754D01*
X38299Y54856D01*
X38184Y54945D01*
X38108Y54997D01*
X38095Y55009D01*
X38082D01*
X37840Y55137D01*
X37598Y55251D01*
X37381Y55341D01*
X37177Y55405D01*
X36999Y55455D01*
X36858Y55494D01*
X36807Y55506D01*
X36769Y55519D01*
X36756D01*
X36744D01*
X36476Y55558D01*
X36221Y55570D01*
D02*
G37*
G36*
X47223Y31695D02*
X47197D01*
X47133D01*
X47044Y31670D01*
X46929Y31644D01*
X46802Y31593D01*
X46674Y31530D01*
X46560Y31427D01*
X46458Y31300D01*
X46445Y31287D01*
X46420Y31236D01*
X46381Y31147D01*
X46330Y31045D01*
X46292Y30918D01*
X46254Y30752D01*
X46228Y30586D01*
X46216Y30395D01*
Y30305D01*
X46228Y30204D01*
X46241Y30076D01*
X46266Y29923D01*
X46292Y29770D01*
X46343Y29592D01*
X46407Y29426D01*
X46420Y29413D01*
X46445Y29349D01*
X46483Y29273D01*
X46534Y29171D01*
X46598Y29043D01*
X46687Y28916D01*
X46777Y28776D01*
X46891Y28648D01*
X46904Y28635D01*
X46942Y28597D01*
X47006Y28533D01*
X47095Y28457D01*
X47197Y28367D01*
X47312Y28266D01*
X47452Y28163D01*
X47592Y28074D01*
X47605Y28062D01*
X47656Y28036D01*
X47745Y27998D01*
X47848Y27947D01*
X47962Y27896D01*
X48103Y27832D01*
X48421Y27730D01*
Y27883D01*
X48434Y27985D01*
Y28100D01*
X48447Y28240D01*
X48460Y28508D01*
Y28725D01*
X48472Y28839D01*
Y29438D01*
X48460Y29604D01*
X48447Y29783D01*
X48434Y29987D01*
X48408Y30178D01*
X48383Y30369D01*
Y30395D01*
X48370Y30446D01*
X48345Y30535D01*
X48307Y30650D01*
X48281Y30777D01*
X48230Y30905D01*
X48179Y31032D01*
X48128Y31147D01*
X48115Y31160D01*
X48103Y31198D01*
X48064Y31249D01*
X48013Y31313D01*
X47886Y31453D01*
X47809Y31517D01*
X47733Y31568D01*
X47720D01*
X47695Y31593D01*
X47644Y31606D01*
X47580Y31631D01*
X47414Y31670D01*
X47223Y31695D01*
D02*
G37*
G36*
X48268Y22617D02*
X48243D01*
X48192D01*
X48115D01*
X48013Y22604D01*
X47899Y22592D01*
X47758Y22566D01*
X47491Y22490D01*
X47478D01*
X47427Y22464D01*
X47363Y22439D01*
X47274Y22400D01*
X47070Y22298D01*
X46866Y22158D01*
X46853Y22145D01*
X46815Y22120D01*
X46777Y22069D01*
X46713Y22018D01*
X46649Y21941D01*
X46573Y21852D01*
X46445Y21635D01*
X46432Y21623D01*
X46420Y21585D01*
X46394Y21521D01*
X46369Y21444D01*
X46343Y21342D01*
X46317Y21240D01*
X46292Y21113D01*
Y20896D01*
X46305Y20807D01*
X46317Y20679D01*
X46356Y20526D01*
X46394Y20373D01*
X46458Y20195D01*
X46534Y20016D01*
X46547Y19991D01*
X46573Y19940D01*
X46636Y19850D01*
X46700Y19736D01*
X46802Y19595D01*
X46904Y19455D01*
X47044Y19315D01*
X47185Y19162D01*
X47197Y19149D01*
X47261Y19098D01*
X47337Y19035D01*
X47452Y18945D01*
X47592Y18843D01*
X47758Y18741D01*
X47937Y18639D01*
X48141Y18537D01*
X48166Y18525D01*
X48230Y18499D01*
X48345Y18461D01*
X48485Y18422D01*
X48651Y18384D01*
X48842Y18346D01*
X49059Y18320D01*
X49275Y18308D01*
X49288D01*
X49339D01*
X49428Y18320D01*
X49518D01*
X49645Y18333D01*
X49773Y18359D01*
X50041Y18422D01*
X50053D01*
X50104Y18448D01*
X50168Y18474D01*
X50257Y18512D01*
X50449Y18614D01*
X50665Y18754D01*
X50678Y18767D01*
X50704Y18792D01*
X50754Y18843D01*
X50805Y18894D01*
X50882Y18971D01*
X50946Y19060D01*
X51073Y19264D01*
Y19277D01*
X51099Y19315D01*
X51112Y19379D01*
X51137Y19468D01*
X51162Y19570D01*
X51188Y19685D01*
X51201Y19800D01*
X51214Y19940D01*
Y20029D01*
X51201Y20118D01*
X51188Y20246D01*
X51162Y20399D01*
X51112Y20564D01*
X51060Y20730D01*
X50984Y20909D01*
X50971Y20934D01*
X50933Y20985D01*
X50882Y21087D01*
X50805Y21202D01*
X50716Y21329D01*
X50602Y21470D01*
X50474Y21623D01*
X50334Y21763D01*
X50321Y21776D01*
X50257Y21827D01*
X50181Y21891D01*
X50066Y21980D01*
X49926Y22082D01*
X49773Y22184D01*
X49594Y22286D01*
X49403Y22375D01*
X49378Y22388D01*
X49314Y22413D01*
X49199Y22452D01*
X49059Y22502D01*
X48893Y22541D01*
X48702Y22579D01*
X48485Y22604D01*
X48268Y22617D01*
D02*
G37*
G36*
X47145Y15009D02*
X47146Y15006D01*
X47159D01*
X47145Y15009D01*
D02*
G37*
G36*
X48281Y11844D02*
X48268D01*
X48217D01*
X48128D01*
X48026Y11831D01*
X47911Y11818D01*
X47784Y11793D01*
X47516Y11729D01*
X47503D01*
X47452Y11703D01*
X47388Y11678D01*
X47299Y11639D01*
X47095Y11537D01*
X46878Y11384D01*
X46866Y11372D01*
X46828Y11346D01*
X46789Y11295D01*
X46725Y11244D01*
X46662Y11168D01*
X46585Y11079D01*
X46458Y10862D01*
X46445Y10849D01*
X46432Y10811D01*
X46407Y10747D01*
X46369Y10658D01*
X46343Y10556D01*
X46317Y10441D01*
X46305Y10313D01*
X46292Y10173D01*
Y10058D01*
X46305Y9982D01*
X46317Y9893D01*
X46343Y9791D01*
X46420Y9549D01*
Y9536D01*
X46445Y9498D01*
X46470Y9421D01*
X46509Y9345D01*
X46547Y9243D01*
X46611Y9140D01*
X46751Y8898D01*
X46764Y8885D01*
X46789Y8847D01*
X46828Y8783D01*
X46891Y8707D01*
X46955Y8618D01*
X47044Y8529D01*
X47236Y8325D01*
X47248Y8312D01*
X47286Y8286D01*
X47337Y8248D01*
X47401Y8184D01*
X47491Y8133D01*
X47592Y8070D01*
X47809Y7967D01*
X49683Y7559D01*
X49696D01*
X49735Y7572D01*
X49798Y7585D01*
X49887Y7610D01*
X49977Y7636D01*
X50079Y7674D01*
X50296Y7763D01*
X50308Y7776D01*
X50346Y7789D01*
X50397Y7827D01*
X50461Y7865D01*
X50614Y7980D01*
X50780Y8133D01*
X50793Y8146D01*
X50818Y8172D01*
X50857Y8223D01*
X50895Y8274D01*
X50997Y8427D01*
X51099Y8618D01*
Y8630D01*
X51112Y8669D01*
X51137Y8720D01*
X51150Y8796D01*
X51175Y8885D01*
X51201Y8987D01*
X51214Y9217D01*
Y9306D01*
X51201Y9408D01*
X51175Y9536D01*
X51150Y9689D01*
X51112Y9867D01*
X51048Y10046D01*
X50959Y10224D01*
X50946Y10250D01*
X50907Y10301D01*
X50857Y10403D01*
X50767Y10518D01*
X50678Y10645D01*
X50563Y10785D01*
X50423Y10926D01*
X50283Y11066D01*
X50257Y11079D01*
X50206Y11129D01*
X50117Y11193D01*
X50002Y11270D01*
X49862Y11359D01*
X49709Y11448D01*
X49531Y11550D01*
X49339Y11627D01*
X49314Y11639D01*
X49250Y11665D01*
X49148Y11690D01*
X49008Y11742D01*
X48855Y11780D01*
X48676Y11805D01*
X48485Y11831D01*
X48281Y11844D01*
D02*
G37*
G36*
X36323Y40112D02*
X36297D01*
X36233D01*
X36144Y40086D01*
X36029Y40060D01*
X35902Y40009D01*
X35774Y39946D01*
X35660Y39844D01*
X35558Y39716D01*
X35545Y39704D01*
X35519Y39652D01*
X35481Y39563D01*
X35430Y39461D01*
X35392Y39334D01*
X35354Y39168D01*
X35328Y39002D01*
X35315Y38811D01*
Y38722D01*
X35328Y38620D01*
X35341Y38492D01*
X35366Y38339D01*
X35392Y38186D01*
X35443Y38008D01*
X35507Y37842D01*
X35519Y37829D01*
X35545Y37765D01*
X35583Y37689D01*
X35634Y37587D01*
X35698Y37459D01*
X35787Y37332D01*
X35877Y37192D01*
X35991Y37064D01*
X36004Y37051D01*
X36042Y37013D01*
X36106Y36950D01*
X36195Y36873D01*
X36297Y36784D01*
X36412Y36682D01*
X36552Y36580D01*
X36693Y36490D01*
X36705Y36478D01*
X36756Y36452D01*
X36845Y36414D01*
X36948Y36363D01*
X37062Y36312D01*
X37203Y36248D01*
X37521Y36146D01*
Y36299D01*
X37534Y36401D01*
Y36516D01*
X37547Y36656D01*
X37560Y36924D01*
Y37141D01*
X37572Y37255D01*
Y37855D01*
X37560Y38021D01*
X37547Y38199D01*
X37534Y38403D01*
X37508Y38594D01*
X37483Y38785D01*
Y38811D01*
X37470Y38862D01*
X37445Y38951D01*
X37407Y39066D01*
X37381Y39193D01*
X37330Y39321D01*
X37279Y39448D01*
X37228Y39563D01*
X37215Y39576D01*
X37203Y39614D01*
X37164Y39665D01*
X37113Y39729D01*
X36986Y39869D01*
X36909Y39933D01*
X36833Y39984D01*
X36820D01*
X36794Y40009D01*
X36744Y40022D01*
X36680Y40048D01*
X36514Y40086D01*
X36323Y40112D01*
D02*
G37*
G36*
X37381Y30485D02*
X37368D01*
X37317D01*
X37228D01*
X37126Y30472D01*
X37011Y30460D01*
X36884Y30434D01*
X36616Y30371D01*
X36603D01*
X36552Y30345D01*
X36489Y30319D01*
X36399Y30281D01*
X36195Y30179D01*
X35978Y30026D01*
X35966Y30013D01*
X35928Y29988D01*
X35889Y29937D01*
X35825Y29886D01*
X35762Y29809D01*
X35685Y29720D01*
X35558Y29504D01*
X35545Y29491D01*
X35532Y29452D01*
X35507Y29389D01*
X35469Y29300D01*
X35443Y29197D01*
X35418Y29083D01*
X35405Y28955D01*
X35392Y28815D01*
Y28700D01*
X35405Y28624D01*
X35418Y28534D01*
X35443Y28433D01*
X35519Y28190D01*
Y28177D01*
X35545Y28139D01*
X35570Y28063D01*
X35609Y27986D01*
X35647Y27884D01*
X35711Y27782D01*
X35851Y27540D01*
X35864Y27527D01*
X35889Y27489D01*
X35928Y27425D01*
X35991Y27349D01*
X36055Y27259D01*
X36144Y27170D01*
X36336Y26966D01*
X36348Y26954D01*
X36386Y26928D01*
X36437Y26890D01*
X36501Y26826D01*
X36590Y26775D01*
X36693Y26711D01*
X36909Y26609D01*
X38783Y26201D01*
X38796D01*
X38835Y26214D01*
X38898Y26227D01*
X38987Y26252D01*
X39077Y26278D01*
X39179Y26316D01*
X39395Y26405D01*
X39408Y26418D01*
X39446Y26431D01*
X39498Y26469D01*
X39561Y26507D01*
X39714Y26622D01*
X39880Y26775D01*
X39893Y26788D01*
X39918Y26813D01*
X39957Y26864D01*
X39995Y26915D01*
X40097Y27068D01*
X40199Y27259D01*
Y27272D01*
X40211Y27310D01*
X40237Y27362D01*
X40250Y27438D01*
X40275Y27527D01*
X40301Y27629D01*
X40314Y27859D01*
Y27948D01*
X40301Y28050D01*
X40275Y28177D01*
X40250Y28330D01*
X40211Y28509D01*
X40148Y28688D01*
X40058Y28866D01*
X40046Y28892D01*
X40007Y28942D01*
X39957Y29044D01*
X39867Y29159D01*
X39778Y29287D01*
X39663Y29427D01*
X39523Y29567D01*
X39383Y29708D01*
X39357Y29720D01*
X39306Y29771D01*
X39217Y29835D01*
X39102Y29912D01*
X38962Y30001D01*
X38809Y30090D01*
X38631Y30192D01*
X38439Y30268D01*
X38414Y30281D01*
X38350Y30307D01*
X38248Y30332D01*
X38108Y30383D01*
X37955Y30422D01*
X37776Y30447D01*
X37585Y30472D01*
X37381Y30485D01*
D02*
G37*
G36*
X36168Y16387D02*
X36170Y16384D01*
X36182D01*
X36168Y16387D01*
D02*
G37*
%LPD*%
D10*
X61953Y142750D02*
X61402Y141933D01*
X62187Y141338D01*
X62824Y142089D01*
X62109Y142767D01*
X75844Y66350D02*
X76396Y67167D01*
X75611Y67762D01*
X74973Y67010D01*
X75689Y66333D01*
X270461Y61158D02*
Y100528D01*
X240539Y61158D02*
X270461D01*
X240539D02*
Y100528D01*
X270461D01*
X58361Y74672D02*
Y133728D01*
X28439D02*
X58361D01*
X28439Y74672D02*
Y133728D01*
Y74672D02*
X58361D01*
X75199Y145791D02*
Y168822D01*
X62502Y146086D02*
Y168724D01*
X62598Y40278D02*
Y63309D01*
X75295Y40376D02*
Y63014D01*
X251155Y138354D02*
Y154496D01*
X215328Y138354D02*
X251155D01*
X207454Y172606D02*
X214935Y180087D01*
X251155D01*
X207454Y164732D02*
Y172606D01*
X251155Y164339D02*
Y180087D01*
X207454Y146228D02*
X215328Y138354D01*
X207454Y146228D02*
Y154890D01*
X251300Y129500D02*
Y132500D01*
X249700Y131100D02*
X252900D01*
X260365Y113900D02*
Y115212D01*
Y114556D01*
X256430D01*
X257085Y113900D01*
X260365Y119804D02*
Y117180D01*
X257741Y119804D01*
X257085D01*
X256430Y119148D01*
Y117836D01*
X257085Y117180D01*
X258397Y121116D02*
Y123739D01*
X257085Y125051D02*
X256430Y125707D01*
Y127019D01*
X257085Y127675D01*
X257741D01*
X258397Y127019D01*
Y126363D01*
Y127019D01*
X259053Y127675D01*
X259709D01*
X260365Y127019D01*
Y125707D01*
X259709Y125051D01*
X256430Y131611D02*
Y128987D01*
X258397D01*
X257741Y130299D01*
Y130955D01*
X258397Y131611D01*
X259709D01*
X260365Y130955D01*
Y129643D01*
X259709Y128987D01*
X256430Y132923D02*
X259053D01*
X260365Y134235D01*
X259053Y135547D01*
X256430D01*
X263552Y116524D02*
Y113900D01*
X265520D01*
X264864Y115212D01*
Y115868D01*
X265520Y116524D01*
X266832D01*
X267488Y115868D01*
Y114556D01*
X266832Y113900D01*
X264208Y117836D02*
X263552Y118492D01*
Y119804D01*
X264208Y120460D01*
X266832D01*
X267488Y119804D01*
Y118492D01*
X266832Y117836D01*
X264208D01*
X267488Y121772D02*
X264864D01*
X263552Y123083D01*
X264864Y124395D01*
X267488D01*
X265520D01*
Y121772D01*
X268800Y129643D02*
X264864D01*
Y131611D01*
X265520Y132267D01*
X266832D01*
X267488Y131611D01*
Y129643D01*
Y135547D02*
Y134235D01*
X266832Y133579D01*
X265520D01*
X264864Y134235D01*
Y135547D01*
X265520Y136203D01*
X266176D01*
Y133579D01*
X264864Y138170D02*
Y139482D01*
X265520Y140138D01*
X267488D01*
Y138170D01*
X266832Y137514D01*
X266176Y138170D01*
Y140138D01*
X267488Y141450D02*
X263552D01*
X266176D02*
X264864Y143418D01*
X266176Y141450D02*
X267488Y143418D01*
X259900Y22436D02*
Y18500D01*
X262524D01*
X263836D02*
X265148D01*
X264492D01*
Y22436D01*
X263836Y21780D01*
X86600Y118100D02*
X82664D01*
Y120068D01*
X83320Y120724D01*
X84632D01*
X85288Y120068D01*
Y118100D01*
Y119412D02*
X86600Y120724D01*
X87256Y122036D02*
Y124660D01*
X83320Y128595D02*
X82664Y127939D01*
Y126627D01*
X83320Y125971D01*
X85944D01*
X86600Y126627D01*
Y127939D01*
X85944Y128595D01*
X83320Y132531D02*
X82664Y131875D01*
Y130563D01*
X83320Y129907D01*
X83976D01*
X84632Y130563D01*
Y131875D01*
X85288Y132531D01*
X85944D01*
X86600Y131875D01*
Y130563D01*
X85944Y129907D01*
X83320Y133843D02*
X82664Y134499D01*
Y135811D01*
X83320Y136467D01*
X83976D01*
X84632Y135811D01*
Y135155D01*
Y135811D01*
X85288Y136467D01*
X85944D01*
X86600Y135811D01*
Y134499D01*
X85944Y133843D01*
X86600Y74100D02*
X82664D01*
Y76068D01*
X83320Y76724D01*
X84632D01*
X85288Y76068D01*
Y74100D01*
Y75412D02*
X86600Y76724D01*
X87256Y78036D02*
Y80660D01*
X83320Y84595D02*
X82664Y83939D01*
Y82627D01*
X83320Y81972D01*
X85944D01*
X86600Y82627D01*
Y83939D01*
X85944Y84595D01*
X83320Y88531D02*
X82664Y87875D01*
Y86563D01*
X83320Y85907D01*
X83976D01*
X84632Y86563D01*
Y87875D01*
X85288Y88531D01*
X85944D01*
X86600Y87875D01*
Y86563D01*
X85944Y85907D01*
X86600Y89843D02*
Y91155D01*
Y90499D01*
X82664D01*
X83320Y89843D01*
X73864Y126000D02*
Y127312D01*
Y126656D01*
X77800D01*
Y126000D01*
Y127312D01*
Y129280D02*
X73864D01*
X77800Y131904D01*
X73864D01*
X77800Y133215D02*
X75176D01*
X73864Y134527D01*
X75176Y135839D01*
X77800D01*
X75832D01*
Y133215D01*
X74520Y137151D02*
X73864Y137807D01*
Y139119D01*
X74520Y139775D01*
X75176D01*
X75832Y139119D01*
Y138463D01*
Y139119D01*
X76488Y139775D01*
X77144D01*
X77800Y139119D01*
Y137807D01*
X77144Y137151D01*
X73464Y70000D02*
Y71312D01*
Y70656D01*
X77400D01*
Y70000D01*
Y71312D01*
Y73280D02*
X73464D01*
X77400Y75904D01*
X73464D01*
X77400Y77215D02*
X74776D01*
X73464Y78527D01*
X74776Y79839D01*
X77400D01*
X75432D01*
Y77215D01*
X77400Y81151D02*
Y82463D01*
Y81807D01*
X73464D01*
X74120Y81151D01*
X215571Y152528D02*
Y148529D01*
X217571Y150528D02*
X213572D01*
X121500Y79436D02*
Y75500D01*
X123468D01*
X124124Y76156D01*
Y76812D01*
X123468Y77468D01*
X121500D01*
X123468D01*
X124124Y78124D01*
Y78780D01*
X123468Y79436D01*
X121500D01*
X125436D02*
X128060D01*
X126748D01*
Y75500D01*
X129372D02*
Y79436D01*
X131995Y75500D01*
Y79436D01*
X133307Y75500D02*
X134619D01*
X133963D01*
Y79436D01*
X133307Y78780D01*
X112564Y97500D02*
X116500D01*
Y99468D01*
X115844Y100124D01*
X115188D01*
X114532Y99468D01*
Y97500D01*
Y99468D01*
X113876Y100124D01*
X113220D01*
X112564Y99468D01*
Y97500D01*
Y101436D02*
Y104060D01*
Y102748D01*
X116500D01*
Y105371D02*
X112564D01*
X116500Y107995D01*
X112564D01*
X116500Y111931D02*
Y109307D01*
X113876Y111931D01*
X113220D01*
X112564Y111275D01*
Y109963D01*
X113220Y109307D01*
X122400Y132936D02*
Y129000D01*
X124368D01*
X125024Y129656D01*
Y130312D01*
X124368Y130968D01*
X122400D01*
X124368D01*
X125024Y131624D01*
Y132280D01*
X124368Y132936D01*
X122400D01*
X126336D02*
X128960D01*
X127648D01*
Y129000D01*
X130271D02*
Y132936D01*
X132895Y129000D01*
Y132936D01*
X134207Y132280D02*
X134863Y132936D01*
X136175D01*
X136831Y132280D01*
Y131624D01*
X136175Y130968D01*
X135519D01*
X136175D01*
X136831Y130312D01*
Y129656D01*
X136175Y129000D01*
X134863D01*
X134207Y129656D01*
X172400Y20078D02*
Y17979D01*
X173450Y16929D01*
X174499Y17979D01*
Y20078D01*
X175549D02*
X176598D01*
X176073D01*
Y16929D01*
X175549D01*
X176598D01*
X178172D02*
Y20078D01*
X180271Y16929D01*
Y20078D01*
X158999Y19553D02*
X158474Y20078D01*
X157425D01*
X156900Y19553D01*
Y17454D01*
X157425Y16929D01*
X158474D01*
X158999Y17454D01*
Y18503D01*
X157949D01*
X160049Y16929D02*
Y20078D01*
X162148Y16929D01*
Y20078D01*
X163197D02*
Y16929D01*
X164771D01*
X165296Y17454D01*
Y19553D01*
X164771Y20078D01*
X163197D01*
X131500Y19553D02*
X132025Y20078D01*
X133074D01*
X133599Y19553D01*
Y19028D01*
X133074Y18503D01*
X132550D01*
X133074D01*
X133599Y17979D01*
Y17454D01*
X133074Y16929D01*
X132025D01*
X131500Y17454D01*
X134649Y20078D02*
Y17979D01*
X135698Y16929D01*
X136748Y17979D01*
Y20078D01*
X137797Y19553D02*
X138322Y20078D01*
X139372D01*
X139896Y19553D01*
Y19028D01*
X139372Y18503D01*
X138847D01*
X139372D01*
X139896Y17979D01*
Y17454D01*
X139372Y16929D01*
X138322D01*
X137797Y17454D01*
X145899Y20078D02*
X143800D01*
Y18503D01*
X144850Y19028D01*
X145374D01*
X145899Y18503D01*
Y17454D01*
X145374Y16929D01*
X144325D01*
X143800Y17454D01*
X146949Y20078D02*
Y17979D01*
X147998Y16929D01*
X149048Y17979D01*
Y20078D01*
X44094Y184542D02*
X45275D01*
X44685D01*
Y181000D01*
X44094D01*
X45275D01*
X47046D02*
X49408Y183361D01*
X50589Y184542D02*
Y181000D01*
X51769Y182181D01*
X52950Y181000D01*
Y184542D01*
X44094Y166142D02*
Y162600D01*
X45866D01*
X46456Y163190D01*
Y163781D01*
X45866Y164371D01*
X44094D01*
X45866D01*
X46456Y164961D01*
Y165552D01*
X45866Y166142D01*
X44094D01*
X47637Y162600D02*
X49998Y164961D01*
X51179Y166142D02*
Y163781D01*
X52359Y162600D01*
X53540Y163781D01*
Y166142D01*
X44094Y171900D02*
Y174261D01*
X45275Y175442D01*
X46456Y174261D01*
Y171900D01*
Y173671D01*
X44094D01*
X47637Y171900D02*
X49998Y174261D01*
X51179Y175442D02*
Y172490D01*
X51769Y171900D01*
X52950D01*
X53540Y172490D01*
Y175442D01*
X44094Y143552D02*
X44685Y144142D01*
X45866D01*
X46456Y143552D01*
Y142961D01*
X45866Y142371D01*
X45275D01*
X45866D01*
X46456Y141781D01*
Y141190D01*
X45866Y140600D01*
X44685D01*
X44094Y141190D01*
X47637Y144142D02*
Y141781D01*
X48817Y140600D01*
X49998Y141781D01*
Y144142D01*
X51179Y143552D02*
X51769Y144142D01*
X52950D01*
X53540Y143552D01*
Y142961D01*
X52950Y142371D01*
X52359D01*
X52950D01*
X53540Y141781D01*
Y141190D01*
X52950Y140600D01*
X51769D01*
X51179Y141190D01*
X46456Y155152D02*
X45866Y155742D01*
X44685D01*
X44094Y155152D01*
Y152790D01*
X44685Y152200D01*
X45866D01*
X46456Y152790D01*
Y153971D01*
X45275D01*
X47637Y152200D02*
Y155742D01*
X49998Y152200D01*
Y155742D01*
X51179D02*
Y152200D01*
X52950D01*
X53540Y152790D01*
Y155152D01*
X52950Y155742D01*
X51179D01*
X257536Y58420D02*
X256552Y59404D01*
X254584D01*
X253600Y58420D01*
Y54484D01*
X254584Y53500D01*
X256552D01*
X257536Y54484D01*
Y56452D01*
X255568D01*
X259504Y53500D02*
Y59404D01*
X263439Y53500D01*
Y59404D01*
X265407D02*
Y53500D01*
X268359D01*
X269343Y54484D01*
Y58420D01*
X268359Y59404D01*
X265407D01*
X253400Y108004D02*
Y104068D01*
X255368Y102100D01*
X257336Y104068D01*
Y108004D01*
X263239Y107020D02*
X262255Y108004D01*
X260287D01*
X259304Y107020D01*
Y103084D01*
X260287Y102100D01*
X262255D01*
X263239Y103084D01*
X269143Y107020D02*
X268159Y108004D01*
X266191D01*
X265207Y107020D01*
Y103084D01*
X266191Y102100D01*
X268159D01*
X269143Y103084D01*
D11*
X234807Y125547D02*
Y133028D01*
X248193Y125547D02*
Y133028D01*
X234807D02*
X248193D01*
X236382Y110980D02*
X246618D01*
X234807Y112949D02*
Y119642D01*
X246618Y110980D02*
X248193Y112949D01*
X234807Y112949D02*
X236382Y110980D01*
X248193Y112949D02*
Y119642D01*
X76669Y185682D02*
X77782Y184569D01*
X78618Y187631D02*
X79731Y186518D01*
X86369Y186022D02*
X87482Y184908D01*
X88318Y187970D02*
X89431Y186857D01*
X40978Y197544D02*
Y199119D01*
X38222Y197544D02*
Y199119D01*
X47878Y197544D02*
Y199119D01*
X45122Y197544D02*
Y199119D01*
X55278Y197544D02*
Y199119D01*
X52522Y197544D02*
Y199119D01*
X227913Y128178D02*
X229487D01*
X227913Y125422D02*
X229487D01*
X200000Y92622D02*
X201575D01*
X200000Y95378D02*
X201575D01*
X181515Y38922D02*
X183090D01*
X181515Y41678D02*
X183090D01*
X201213Y103622D02*
X202787D01*
X201213Y106378D02*
X202787D01*
X180315Y50622D02*
X181890D01*
X180315Y53378D02*
X181890D01*
X200113Y87322D02*
X201687D01*
X200113Y90078D02*
X201687D01*
X200000Y79022D02*
X201575D01*
X200000Y81778D02*
X201575D01*
X182013Y32422D02*
X183587D01*
X182013Y35178D02*
X183587D01*
X186613Y26722D02*
X188187D01*
X186613Y29478D02*
X188187D01*
X31800Y138500D02*
X41800D01*
X31800D02*
Y188500D01*
X41800Y138500D02*
Y188500D01*
X31800D02*
X41800D01*
X82480Y145020D02*
Y159980D01*
X94685Y145020D02*
Y159980D01*
Y50520D02*
Y65480D01*
X82480Y50520D02*
Y65480D01*
X179961Y149475D02*
X181536D01*
X179961Y146719D02*
X181536D01*
X182283Y161878D02*
X183858D01*
X182283Y159122D02*
X183858D01*
X182283Y142778D02*
X183858D01*
X182283Y140022D02*
X183858D01*
X182283Y133422D02*
X183858D01*
X182283Y136178D02*
X183858D01*
X191063Y5000D02*
X251063D01*
X191063Y15000D02*
X251063D01*
X191063Y5000D02*
Y15000D01*
X251063Y5000D02*
Y15000D01*
X171063Y203819D02*
X251063D01*
X171063Y193819D02*
Y203819D01*
Y193819D02*
X251063D01*
Y203819D01*
X100984Y15000D02*
X180984D01*
X100984Y5000D02*
Y15000D01*
Y5000D02*
X180984D01*
Y15000D01*
X166063Y193819D02*
Y203819D01*
X66063Y193819D02*
X166063D01*
X66063D02*
Y203819D01*
X73563D01*
X166063D01*
M02*
